<svg width="106" height="78" viewBox="0 0 106 78" fill="none" xmlns="http://www.w3.org/2000/svg">
<path d="M53.0965 78C82.2152 78 105.82 68.5003 105.82 56.7818C105.82 45.0633 82.2152 35.5636 53.0965 35.5636C23.9777 35.5636 0.372314 45.0633 0.372314 56.7818C0.372314 68.5003 23.9777 78 53.0965 78Z" fill="#DCFCE3"/>
<path d="M50.3363 28.1797V6.15519C50.3096 5.6625 50.4048 5.17077 50.6138 4.72092C50.8229 4.27106 51.1398 3.87609 51.5382 3.5689C51.9366 3.26171 52.405 3.05115 52.9043 2.95478C53.4036 2.85842 53.9194 2.87903 54.4088 3.01487C55.0132 3.17388 55.554 3.50613 55.9603 3.96803C56.3667 4.42994 56.6197 4.99996 56.686 5.6035C56.7294 5.98427 56.7294 6.36853 56.686 6.7493C56.686 21.206 56.686 35.6768 56.686 50.1618C56.686 50.8832 56.6859 51.1802 57.6493 51.0954C58.3923 51.0318 59.1396 51.0318 59.8826 51.0954C60.4519 51.0954 60.6271 51.0954 60.7585 50.3739C61.2899 47.9799 62.2535 45.6957 63.6049 43.6266C64.4807 42.2256 65.7184 41.07 67.1958 40.2741C67.6969 40.0965 68.1534 39.8178 68.535 39.4563C68.9166 39.0948 69.2146 38.6589 69.4092 38.1774C69.6038 37.6959 69.6906 37.1798 69.6638 36.6634C69.637 36.1469 69.4973 35.6419 69.2539 35.1817C68.4568 33.2391 67.7697 31.2558 67.1958 29.2406C66.8506 27.841 66.909 26.3764 67.3647 25.0068C67.8203 23.6372 68.6557 22.4154 69.7794 21.4747C70.0399 21.2862 70.2425 21.0326 70.3659 20.7412C70.4893 20.4497 70.5289 20.1312 70.4801 19.8197C70.4801 19.2681 70.4801 18.6739 70.4801 18.0798C70.4608 17.7908 70.5052 17.501 70.6106 17.2299C70.716 16.9589 70.88 16.7128 71.0913 16.5079C71.3027 16.3031 71.5567 16.1443 71.8364 16.0422C72.1161 15.94 72.415 15.8969 72.7133 15.9156H73.0637C74.465 15.9156 74.5964 15.7034 74.2898 14.3879C74.1029 13.7712 73.8225 13.1848 73.4578 12.648C73.0778 12.1667 72.8719 11.5776 72.8719 10.9717C72.8719 10.3658 73.0778 9.77667 73.4578 9.29545C73.9372 8.7637 74.5592 8.37119 75.255 8.16143C75.9507 7.95167 76.6929 7.93288 77.399 8.10723C78.2555 8.35776 79.0269 8.8268 79.6323 9.46523C81.1758 11.0111 82.0259 13.0857 81.9971 15.2366C81.9971 15.7883 81.997 15.958 82.7414 15.9156C83.0464 15.8732 83.356 15.8732 83.661 15.9156C83.9459 15.8979 84.2315 15.9377 84.4996 16.0327C84.7677 16.1276 85.0124 16.2756 85.2183 16.4671C85.4242 16.6587 85.5868 16.8897 85.6957 17.1454C85.8045 17.4011 85.8572 17.676 85.8505 17.9525C85.8505 18.7164 85.8505 19.4802 85.8505 20.2441C85.8134 20.4033 85.8271 20.5697 85.8897 20.7212C85.9523 20.8728 86.0608 21.0024 86.201 21.0928C87.5209 22.048 88.4947 23.3838 88.9825 24.9087C89.4703 26.4335 89.447 28.0689 88.916 29.5801C88.3029 31.7019 87.2957 33.8237 86.8578 35.8607C86.6097 36.5912 86.6217 37.3812 86.8916 38.1043C87.1615 38.8275 87.6738 39.4421 88.3467 39.8497C91.0726 41.6526 93.1294 44.2557 94.2146 47.2761C95.6526 50.4732 96.3693 53.9312 96.3166 57.4184C96.3078 58.9968 95.9649 60.5566 95.3094 62.0016C94.8333 63.1957 93.9898 64.219 92.8931 64.9327C91.7963 65.6463 90.4995 66.0156 89.1787 65.9905C82.6977 65.9905 76.0414 65.9905 69.6917 65.9905C68.6408 65.9905 68.6846 65.9906 68.7722 66.9666C68.8597 67.9426 68.7723 68.1548 68.9912 68.7913C69.0253 68.9827 69.0136 69.1792 68.9573 69.3656C68.9009 69.552 68.8013 69.7234 68.6661 69.8668C68.5308 70.0101 68.3636 70.1216 68.1771 70.1927C67.9905 70.2637 67.7896 70.2924 67.5899 70.2766C67.3715 70.2979 67.1514 70.2979 66.933 70.2766H40.1768C38.3814 70.2766 38.0311 69.8947 38.2063 68.1548C38.2063 67.4334 38.7756 66.4998 38.2063 66.033C37.637 65.5662 36.8049 66.033 36.0604 66.033H18.1939C16.411 66.1245 14.6418 65.6858 13.1235 64.7756C11.6051 63.8655 10.4101 62.5274 9.69844 60.9406C9.07905 59.2083 8.95787 57.3452 9.34804 55.5512C9.91732 50.2466 10.4428 44.9421 11.0121 39.6799C11.4331 36.3395 12.7799 33.1719 14.9096 30.5137C17.527 27.2128 20.4593 24.1581 23.6677 21.3899C25.2126 19.9854 26.6746 18.4978 28.0468 16.934C28.7171 16.2488 29.2647 15.4599 29.667 14.6C29.8409 14.1338 29.8409 13.6234 29.667 13.1572C29.6471 12.966 29.5813 12.782 29.4749 12.6199C29.3684 12.4577 29.2242 12.322 29.0539 12.2236C28.7911 12.2236 28.5723 12.6055 28.3534 12.7753C26.0117 15.1674 22.9435 16.773 19.5952 17.3584C18.995 17.3536 18.4094 17.178 17.9112 16.8537C17.413 16.5293 17.024 16.0703 16.7925 15.5336C16.7176 15.2245 16.7607 14.8997 16.9136 14.6189C17.0665 14.3381 17.319 14.1204 17.6246 14.0059C19.1543 13.1521 20.5421 12.079 21.7409 10.8232C22.967 9.50763 22.967 9.4652 21.1716 9.04084C20.6023 9.04084 20.1644 9.04084 19.7703 9.50764C19.6474 9.68856 19.4775 9.83484 19.2775 9.93171C19.0776 10.0286 18.8549 10.0726 18.6318 10.0593C17.4666 10.1653 16.2936 10.1653 15.1285 10.0593C14.8753 10.0484 14.6269 9.98926 14.3974 9.88521C14.168 9.78117 13.962 9.63431 13.7911 9.45299C13.6203 9.27167 13.4879 9.05943 13.4018 8.82851C13.3157 8.5976 13.2775 8.3525 13.2893 8.10723C13.2893 6.07028 13.2893 4.03339 13.2893 1.99644C13.2835 1.73654 13.3313 1.47813 13.4299 1.23637C13.5285 0.994613 13.6759 0.774368 13.8636 0.588582C14.0512 0.402797 14.2752 0.255159 14.5225 0.154415C14.7698 0.0536705 15.0354 0.00186013 15.3037 0.00192156C16.3546 0.00192156 17.4056 0.00192156 18.4566 0.00192156C18.7914 -0.0137225 19.1236 0.0664278 19.4117 0.232442C19.6998 0.398456 19.9311 0.642998 20.0768 0.935528C20.2958 1.44477 20.6899 1.44474 21.1278 1.44474C25.4059 1.30678 29.6791 1.83692 33.7834 3.01487C37.1493 3.97178 40.179 5.8068 42.5415 8.31943C44.5268 10.4535 45.647 13.2124 45.6945 16.0853C45.6945 17.1886 45.2566 17.6554 44.0742 17.7403C42.8919 17.8252 42.4539 17.7403 42.6729 19.3529C43.3735 24.7848 44.118 30.2591 44.7749 35.6909C45.3442 40.4862 45.6069 45.2815 45.6945 50.0769C45.6945 50.7558 45.6944 51.0105 46.5702 50.9256H49.0226C49.7671 50.9256 49.9859 50.9256 49.9859 50.0769C50.3362 42.9051 50.3363 35.5212 50.3363 28.1797Z" fill="black"/>
<path d="M28.3545 41.2501H42.1047C42.674 41.2501 42.9806 41.25 42.9806 41.9715C42.9806 44.6874 43.2433 47.3185 43.3309 49.9919C43.3309 51.0953 43.3308 51.0953 42.1923 51.0953H40.6597C40.1387 51.0892 39.6218 51.1857 39.1404 51.3787C38.6589 51.5717 38.2229 51.8573 37.8586 52.2183C37.4943 52.5792 37.2093 53.008 37.0208 53.4788C36.8324 53.9495 36.7445 54.4524 36.7623 54.957C36.7623 55.7633 36.4557 55.8481 35.755 55.8481H13.0277C12.3709 55.8481 12.1519 55.8482 12.1957 55.0419C12.7212 50.7983 13.159 46.2151 13.5969 41.8017C13.5969 41.2076 13.991 41.2501 14.4289 41.2501H28.3545Z" fill="#80ED99"/>
<path d="M87.8219 43.1599H67.6344L68.554 42.6931C70.0589 42.033 71.239 40.8306 71.844 39.341C72.449 37.8515 72.4313 36.1921 71.7944 34.715C71.269 33.0176 70.5683 31.3625 69.999 29.6651C69.5798 28.5996 69.5062 27.4356 69.7879 26.3284C70.0696 25.2213 70.6933 24.2239 71.5755 23.4694C71.7475 23.3027 71.9526 23.1716 72.1784 23.0841C72.4042 22.9965 72.6461 22.9543 72.8892 22.9601H83.4428C83.8912 22.952 84.3273 23.1029 84.6689 23.3845C85.4812 24.0105 86.0761 24.8627 86.3736 25.8262C86.6711 26.7897 86.657 27.8185 86.333 28.774C85.8513 30.726 84.9755 32.5508 84.45 34.5028C83.7351 36.0326 83.6594 37.7712 84.2392 39.3538C84.8189 40.9364 86.0089 42.2397 87.5592 42.9901C87.5592 42.9901 87.8219 42.8628 87.8219 43.1599Z" fill="#FEFEFE"/>
<path d="M77.8812 45.8756H89.5733C89.8215 45.8355 90.0765 45.8761 90.2984 45.9913C90.5202 46.1065 90.6964 46.2896 90.7994 46.5121C92.3286 49.4238 93.2652 52.5934 93.5582 55.8481C93.5582 56.3149 93.5583 56.5271 92.9452 56.5271H71.0498C70.5681 56.5271 70.4367 56.5271 70.4367 55.8906C70.5029 55.3124 70.5029 54.7289 70.4367 54.1507C70.2631 53.2858 69.7828 52.5069 69.0791 51.9489C68.3753 51.3909 67.4924 51.0889 66.5831 51.0953H64.2184C63.6929 51.0953 63.5615 51.0953 63.6929 50.4587C64.1046 49.1147 64.6019 47.7966 65.1818 46.5121C65.2608 46.2885 65.4176 46.0985 65.6253 45.9746C65.833 45.8507 66.0788 45.8007 66.3204 45.8331L77.8812 45.8756Z" fill="#80ED99"/>
<path d="M28.3542 38.6189H14.8665C14.1659 38.6189 13.9907 38.6189 14.2097 37.8126C15.2024 34.9293 16.8142 32.2826 18.939 30.0468C19.0379 29.93 19.1672 29.8409 19.3135 29.7887C19.4598 29.7365 19.6177 29.723 19.7711 29.7497H40.9221C41.4914 29.7497 41.6665 29.7497 41.7103 30.4287C41.973 32.9324 42.3233 35.4786 42.6299 37.9824C42.6299 38.6189 42.4109 38.6189 41.9292 38.6189H28.3542Z" fill="#FEFEFE"/>
<path d="M26.5146 22.8751C28.0744 21.4102 29.537 19.8511 30.8936 18.2071C31.8063 17.2144 32.453 16.0194 32.7766 14.7274C33.0122 13.8859 32.9747 12.9946 32.6692 12.1745C32.3636 11.3545 31.8049 10.6456 31.0688 10.1442C29.5897 9.03573 27.9121 8.20131 26.1205 7.6829C24.6904 7.19066 23.2273 6.79367 21.7414 6.49468C21.1721 6.49468 20.9094 6.15514 20.9532 5.5186C20.997 4.88205 20.9531 4.28797 22.2668 4.28797C26.6568 4.10943 31.038 4.80259 35.1414 6.3249C37.6116 7.16339 39.8045 8.6289 41.4911 10.5685C42.4881 11.8055 43.1503 13.2642 43.4177 14.8122C43.4177 15.2366 43.4178 15.3639 42.9799 15.3639C42.5298 15.3006 42.0726 15.3006 41.6224 15.3639C41.4274 15.3532 41.2325 15.3862 41.0529 15.4604C40.8732 15.5346 40.7136 15.648 40.5865 15.7917C40.4594 15.9354 40.3682 16.1055 40.32 16.2889C40.2718 16.4723 40.2679 16.6641 40.3086 16.8492C40.3086 18.5042 40.5714 20.2016 40.8341 21.8566C40.8341 22.6629 40.8341 22.8751 39.8707 22.8751H26.5146Z" fill="#FEFEFE"/>
<path d="M53.6212 59.71H64.2624C64.8754 59.71 65.1382 59.71 65.2258 60.4739C65.4447 62.723 65.7512 65.0145 66.014 67.2636C66.014 67.6456 66.0141 67.8153 65.5762 67.8153C63.518 67.8153 63.518 67.8153 63.518 66.033V64.5053C63.4972 64.163 63.3474 63.84 63.0972 63.5975C62.8469 63.3551 62.5137 63.21 62.1605 63.1898C61.9727 63.1828 61.7855 63.2149 61.6116 63.284C61.4377 63.3531 61.2811 63.4575 61.1524 63.5903C61.0238 63.723 60.926 63.881 60.8657 64.0535C60.8054 64.2259 60.7839 64.409 60.8028 64.5902C60.8028 65.354 60.8028 66.1179 60.8028 66.8817C60.8028 67.6456 60.803 67.8577 60.1023 67.8577C59.4017 67.8577 59.1826 67.5607 59.2264 66.9241C59.2702 66.2876 59.2264 64.3356 59.2264 63.0625C59.251 62.874 59.2345 62.6825 59.1779 62.5006C59.1214 62.3186 59.026 62.1502 58.8981 62.0062C58.7701 61.8622 58.6124 61.7459 58.4352 61.6647C58.2579 61.5834 58.065 61.5392 57.8689 61.5348C57.6811 61.5278 57.494 61.5599 57.3201 61.629C57.1462 61.6981 56.9896 61.8025 56.8609 61.9353C56.7322 62.068 56.6345 62.2259 56.5742 62.3984C56.5139 62.5709 56.4925 62.754 56.5114 62.9352C56.5114 64.2931 56.5114 65.6511 56.5114 67.1788C56.5114 67.6032 56.5115 68.0275 55.8546 68.0275C55.1977 68.0275 54.8474 68.0275 54.8912 67.1788C54.935 66.3301 54.8912 65.5662 54.8912 64.7599C54.9032 64.5801 54.8769 64.3999 54.8141 64.2304C54.7513 64.0608 54.6531 63.9056 54.5258 63.7743C54.3986 63.643 54.2448 63.5385 54.0741 63.4671C53.9034 63.3958 53.7196 63.3591 53.5337 63.3595C53.3459 63.3525 53.1587 63.3846 52.9848 63.4537C52.8109 63.5228 52.6543 63.6273 52.5257 63.76C52.397 63.8927 52.2992 64.0507 52.2389 64.2232C52.1786 64.3957 52.1571 64.5787 52.1761 64.7599C52.1761 65.6086 52.1761 66.4998 52.1761 67.3909C52.1761 68.2821 51.8696 68.0275 51.4317 67.9851C50.9938 67.9426 50.5559 67.9851 50.5996 67.4334C50.5996 66.033 50.5996 64.6326 50.5996 63.1898C50.624 62.9991 50.6076 62.8056 50.5514 62.6213C50.4952 62.437 50.4005 62.266 50.2732 62.1187C50.1458 61.9714 49.9886 61.8511 49.8112 61.7652C49.6338 61.6794 49.4401 61.6298 49.2421 61.6196C48.4539 61.6196 47.8846 62.2562 47.8846 63.2322C47.8846 64.2082 47.8846 65.9057 47.8846 67.2636C47.8846 67.9002 47.5781 67.9427 47.0964 67.9002C46.6147 67.8578 46.2206 67.9002 46.2644 67.3061C46.3082 66.4862 46.3082 65.6647 46.2644 64.8448C46.2644 63.8688 45.6513 63.2322 44.8631 63.2746C44.0748 63.317 43.5494 63.8688 43.5494 64.8448V67.3485C43.5494 67.7729 43.5494 67.9427 42.9801 67.9002C40.8781 67.9002 41.0094 68.2821 41.2722 66.1603C41.5349 64.0385 41.7977 62.4684 41.9729 60.6012C41.9729 59.8797 42.3232 59.7949 42.9801 59.7949L53.6212 59.71Z" fill="white"/>
<path d="M24.369 58.4794H35.886C36.3677 58.4794 36.718 58.4793 36.937 59.031C37.1559 59.5827 37.9004 59.7524 38.5572 59.71C39.2141 59.6676 39.3016 59.71 39.214 60.389C39.0474 61.2007 38.9448 62.0235 38.9075 62.8503C38.9075 63.3171 38.6449 63.4868 38.2069 63.4868H18.2382C17.3275 63.5258 16.4187 63.3756 15.5728 63.0462C14.7269 62.7168 13.9634 62.216 13.3337 61.5772C13.0188 61.2528 12.7399 60.8972 12.5016 60.5163C11.4945 58.734 11.6697 58.4369 13.6841 58.4369L24.369 58.4794Z" fill="#FEFEFE"/>
<path d="M93.339 59.2007C93.3421 59.7955 93.216 60.3844 92.9691 60.929C92.7221 61.4736 92.3598 61.9618 91.9056 62.362C91.4513 62.7621 90.9154 63.0653 90.3325 63.2517C89.7496 63.4382 89.1327 63.5038 88.522 63.4443H68.9475C68.4658 63.4443 68.2906 63.4443 68.2468 62.8077C68.203 62.1712 68.2468 61.0678 67.9402 60.2191C67.6337 59.3704 67.9402 59.625 68.4657 59.625C68.7477 59.6866 69.0414 59.676 69.3178 59.5941C69.5942 59.5123 69.8439 59.362 70.0422 59.1582C70.0422 59.1582 70.4364 59.1582 70.6115 59.1582H93.339V59.2007Z" fill="#FEFEFE"/>
<path d="M53.4452 57.079H40.308C39.6511 57.079 39.3884 57.079 39.3884 56.2302C39.3884 53.8114 39.3884 53.7264 41.9721 53.7264H65.9256C67.4583 53.7264 67.7649 54.0235 67.7649 55.5512C67.7649 57.079 67.7648 57.079 66.1884 57.079H53.4452Z" fill="#CECCCD"/>
<path d="M54.0155 28.3495V50.7559C54.0155 51.0954 53.7528 51.0954 53.5338 51.0954C53.3149 51.0954 53.0521 51.0954 53.0959 50.7559V6.62208C53.0959 6.24015 52.8769 5.56115 53.5775 5.60358C54.2782 5.64602 54.0155 6.28257 54.0155 6.66449V28.3495Z" fill="#92A0AA"/>
<path d="M21.8293 27.1187C22.143 26.5878 22.606 26.1543 23.1643 25.8687C23.7225 25.5832 24.353 25.4574 24.9823 25.5061C29.9744 25.5061 35.0103 25.5061 40.0025 25.5061C41.0973 25.5061 41.1849 25.5061 41.1849 26.6519C41.1849 26.9489 41.1849 27.0762 40.8345 27.0762H21.8293V27.1187Z" fill="#80ED99"/>
<path d="M78.1884 20.2017H73.8093C73.0649 20.2017 73.1963 19.8198 73.1963 19.353C73.1963 18.8862 73.1963 18.5042 73.8093 18.5467H82.3486C83.0492 18.5467 83.0492 18.8862 83.0054 19.353C82.9616 19.8198 83.0055 20.2441 82.3486 20.2017H78.1884Z" fill="#FEFEFE"/>
<path d="M78.1877 15.873C77.3556 16.0851 77.0492 15.873 77.1367 14.9394C77.1282 13.7209 76.7304 12.535 75.9981 11.5445C75.9981 11.3323 75.5165 11.0776 75.7792 10.823C75.9334 10.719 76.1168 10.6632 76.3047 10.6632C76.4926 10.6632 76.676 10.719 76.8302 10.823C77.0171 10.8961 77.1826 11.0127 77.3119 11.1625C78.415 12.1641 79.1006 13.5231 79.2387 14.9818C79.3263 15.7457 79.0635 16.0851 78.1877 15.873Z" fill="#80ED99"/>
<path d="M16.3553 5.34877C16.3553 4.75466 16.3553 4.16054 16.3553 3.60886C16.3553 3.05719 16.7057 2.88745 17.2312 2.88745C17.7567 2.88745 18.0632 2.88744 18.0194 3.60886C17.9756 4.33028 18.0194 5.90042 18.0194 7.0462C18.0194 8.19199 17.7129 7.72523 17.2312 7.68279C16.7495 7.64035 16.3115 7.68279 16.3553 7.08868C16.3991 6.49457 16.3553 5.81557 16.3553 5.34877Z" fill="#80ED99"/>
<path d="M23.7559 13.2843C24.3689 12.3931 25.0696 11.5868 25.6388 10.6956C26.2081 9.80447 26.4709 10.6956 27.0402 10.6956C26.1337 11.7613 25.0172 12.6413 23.7559 13.2843Z" fill="#80ED99"/>
</svg>
