<svg width="24" height="28" viewBox="0 0 24 28" fill="none" xmlns="http://www.w3.org/2000/svg">
<path d="M4.5 22.75V11.5C4.5 9.51088 5.29018 7.60322 6.6967 6.1967C8.10322 4.79018 10.0109 4 12 4C13.9891 4 15.8968 4.79018 17.3033 6.1967C18.7098 7.60322 19.5 9.51088 19.5 11.5V22.75M4.5 22.75H19.5M4.5 22.75H2M19.5 22.75H22M10.75 26.5H13.25" stroke="#544C4C" stroke-width="2.66667" stroke-linecap="round" stroke-linejoin="round"/>
<path d="M12 4C12.6904 4 13.25 3.44036 13.25 2.75C13.25 2.05964 12.6904 1.5 12 1.5C11.3096 1.5 10.75 2.05964 10.75 2.75C10.75 3.44036 11.3096 4 12 4Z" stroke="#544C4C" stroke-width="2.66667"/>
</svg>
