<svg width="75" height="82" viewBox="0 0 75 82" fill="none" xmlns="http://www.w3.org/2000/svg">
<path d="M3.8601 34.6853H2.05698C1.83481 34.708 1.61078 34.6644 1.4149 34.5603C1.21902 34.4562 1.06065 34.2966 0.96099 34.1028C0.875007 33.9017 0.859589 33.6788 0.917077 33.4683C0.974565 33.2579 1.10176 33.0715 1.27917 32.938L5.80456 27.9701C6.05967 27.6881 6.29589 27.3906 6.5117 27.0793C7.05694 26.4499 7.45493 25.7136 7.67835 24.9209C7.67835 23.105 7.67835 21.3234 7.67835 19.5418V10.0172C7.67835 8.68102 7.89049 8.47546 9.23397 8.47546H16.517C17.8605 8.47546 18.0726 8.68101 18.0726 9.94867C18.0726 11.2163 18.0726 12.5183 18.0726 13.786C18.0726 13.786 18.0726 14.1286 18.3908 13.786C18.6094 13.5627 18.8459 13.3565 19.0979 13.1692C21.6435 10.5996 24.0122 7.85874 26.4871 5.18636L30.6236 0.629615C31.4014 -0.226915 31.861 -0.192654 32.6741 0.629615L39.2854 7.85873C40.1465 8.45324 40.8993 9.18274 41.5128 10.0172L50.8818 20.2956C53.5687 23.2763 56.2557 26.2227 58.978 29.1692C59.9679 30.2313 60.8871 31.3277 61.9124 32.3555C62.097 32.5579 62.2627 32.7757 62.4074 33.0065C62.5163 33.159 62.5848 33.3351 62.6069 33.5193C62.629 33.7034 62.604 33.8901 62.5342 34.0627C62.4643 34.2353 62.3517 34.3887 62.2063 34.5092C62.0609 34.6297 61.8871 34.7137 61.7003 34.7538C61.291 34.8243 60.8721 34.8243 60.4628 34.7538H56.6446C56.0789 34.7538 55.8668 34.9594 55.8668 35.5076V39.9272C55.8874 40.3528 56.0214 40.7659 56.2557 41.1264C58.0527 43.9782 58.9498 47.2771 58.8366 50.6168C58.7437 53.5967 57.8806 56.5064 56.3264 59.0793C55.7254 60.0386 55.7608 60.1413 56.5739 60.9636C57.3871 61.7859 58.483 62.7452 59.4022 63.6703C59.5612 63.8877 59.7868 64.0511 60.047 64.1372C60.3072 64.2233 60.5888 64.2278 60.8518 64.1499C61.0184 64.0567 61.2074 64.0076 61.3998 64.0076C61.5922 64.0076 61.7812 64.0567 61.9478 64.1499C62.9632 64.2888 63.8989 64.7604 64.5994 65.4861C67.251 68.09 69.9026 70.6253 72.5542 73.1949C73.0235 73.5436 73.4036 73.9922 73.6653 74.5061C73.9269 75.0201 74.063 75.5854 74.063 76.1585C74.063 76.7315 73.9269 77.2969 73.6653 77.8108C73.4036 78.3247 73.0235 78.7734 72.5542 79.1221C71.6081 80.3213 70.401 81.3039 69.0187 82H67.357C66.2851 81.5789 65.3289 80.9221 64.564 80.0814C62.0892 77.6488 59.5436 75.2163 57.0334 72.818C56.3255 72.2025 55.8626 71.366 55.7253 70.454C55.6718 70.1593 55.6718 69.8579 55.7253 69.5632C55.7788 69.8579 55.7788 70.1593 55.7253 70.454C55.5486 71.0022 55.1243 71.105 54.6293 71.105H51.8717C50.7908 71.3208 49.6858 71.4014 48.5837 71.3448H26.6285C25.5499 71.4028 24.468 71.3222 23.4112 71.105H9.44609C8.10261 71.105 7.85519 70.8651 7.85519 69.5632V58.257C7.85519 57.8801 7.85519 57.5033 7.85519 57.1264C7.63936 56.6405 7.54249 56.1128 7.57229 55.5846V36.3983C7.57229 34.9594 7.57228 34.9936 6.12274 34.9594C5.23887 34.9251 4.49648 35.1307 3.8601 34.6853Z" fill="black"/>
<path d="M71.5995 37.4262C71.0887 32.9028 69.5945 28.5356 67.2154 24.6125C63.1751 17.7428 56.7279 12.5039 49.0432 9.84593C45.9149 8.79768 42.6578 8.15261 39.356 7.92731C42.4672 11.3534 45.5785 14.7795 48.725 18.2057L61.983 32.7324C62.3366 33.1093 62.6901 33.5204 62.4073 34.0686C62.1244 34.6168 61.5941 34.6511 61.0638 34.6511H56.503C55.8666 34.6511 55.6545 34.651 55.6545 35.4391C55.6545 36.9123 55.6545 38.3855 55.6545 39.8588C55.6283 40.3658 55.764 40.8683 56.0434 41.2977C57.6769 43.8176 58.5806 46.7169 58.6597 49.6917C58.8005 53.1394 57.8506 56.5463 55.9373 59.4561C55.8377 59.5459 55.7583 59.6547 55.704 59.7755C55.6497 59.8964 55.6217 60.0267 55.6217 60.1585C55.6217 60.2903 55.6497 60.4207 55.704 60.5416C55.7583 60.6624 55.8377 60.7711 55.9373 60.8609C56.9272 61.7517 57.8818 62.6767 58.801 63.636C59.4728 64.287 60.0738 64.8695 61.1344 64.4241C61.3112 64.4241 61.5941 64.4241 61.8416 64.4241C64.6925 61.5386 67.0123 58.2013 68.7004 54.5568C71.224 49.1988 72.2249 43.2847 71.5995 37.4262Z" fill="#C9DBEE"/>
<path d="M6.90115 34.6511C5.91122 34.6511 4.88598 34.6511 3.8607 34.6511C3.49248 36.2385 3.27944 37.8559 3.22434 39.482C2.99534 43.8385 3.66851 48.1952 5.20419 52.2957C5.79709 54.0726 6.62914 55.766 7.67895 57.3321C7.67895 54.6597 7.67895 51.9873 7.67895 49.3149V35.6105C7.71431 34.891 7.60824 34.6169 6.90115 34.6511Z" fill="#E8E9EA"/>
<path d="M29.881 71.3448H23.2697C27.7308 73.3413 32.586 74.3753 37.4999 74.3753C42.4138 74.3753 47.269 73.3413 51.7301 71.3448H50.811C43.8461 71.3448 36.8812 71.3106 29.881 71.3448Z" fill="#E8E9EA"/>
<path d="M6.51245 27.1477C7.18419 26.5653 7.96194 26.0514 7.67911 24.9893C7.13386 25.6186 6.73587 26.355 6.51245 27.1477Z" fill="#E8E9EA"/>
<path d="M18.2504 14.2998C18.6055 13.9627 18.9144 13.5827 19.1695 13.1692C18.7453 13.1692 18.4978 13.5461 18.1442 13.6488C18.1005 13.7567 18.0874 13.8739 18.106 13.9883C18.1247 14.1027 18.1745 14.2103 18.2504 14.2998Z" fill="#E8E9EA"/>
<path d="M7.81934 28.621L17.7186 17.7259L29.1028 5.22061L29.8453 4.5011C30.659 5.0495 31.3653 5.73398 31.9312 6.5225L38.5072 13.6146L45.5781 21.0493C47.664 23.3448 49.7853 25.5718 51.8712 27.9015L52.0833 28.1413C52.0833 28.3126 52.4723 28.5182 52.3662 28.758C52.2602 28.9979 51.9773 28.758 51.7652 28.758H8.63253C8.27899 28.8266 7.9254 29.0321 7.81934 28.621Z" fill="#FEFEFE"/>
<path d="M33.0634 34.6853C31.9321 35.439 30.8361 36.09 29.8109 36.878C27.6384 38.5935 25.9076 40.7752 24.7552 43.2506C24.7046 43.4505 24.5784 43.6248 24.4017 43.739C24.225 43.8532 24.0104 43.899 23.8005 43.8673H14.2901C13.0527 43.8673 12.8053 44.1071 12.8053 45.3405V64.8352C12.8053 65.4519 12.8052 65.726 11.9921 65.6575C11.1789 65.5889 10.2951 65.863 9.8355 65.6575C9.37589 65.4519 9.8355 64.2527 9.8355 63.499C9.8355 54.2142 9.8355 44.9637 9.8355 35.6789C9.8355 34.9594 10.0122 34.7196 10.7546 34.7538H33.2403L33.0634 34.6853Z" fill="#FEFEFE"/>
<path d="M14.7494 55.7559C14.7494 52.6724 14.7494 49.5889 14.7494 46.5396C14.7494 45.9572 14.7494 45.7516 15.5272 45.7516H23.0578C23.6234 45.7516 23.8003 45.7516 23.6588 46.4711C23.0947 48.8126 23.0454 51.243 23.5145 53.6042C23.9835 55.9653 24.9603 58.2043 26.3811 60.1756C26.6234 60.4655 26.749 60.8306 26.7347 61.2034C26.7347 62.5054 26.7347 63.8073 26.7347 65.1434C26.7347 65.6231 26.7347 65.8287 26.0629 65.8287H15.4565C14.8555 65.8287 14.7494 65.5889 14.7494 65.075C14.7847 61.8887 14.7494 58.8394 14.7494 55.7559Z" fill="#CECCCD"/>
<path d="M25.2147 50.2399C25.2217 47.2178 26.1535 44.2654 27.8919 41.7564C29.6304 39.2473 32.0975 37.2941 34.9814 36.1438C37.8653 34.9935 41.0364 34.6978 44.0938 35.2941C47.1512 35.8903 49.9574 37.3517 52.1577 39.4935C54.3579 41.6353 55.8534 44.3613 56.455 47.3267C57.0565 50.2922 56.7371 53.3639 55.5372 56.1534C54.3373 58.943 52.3108 61.3251 49.7139 62.9985C47.1169 64.6719 44.0663 65.5615 40.9476 65.5547C38.8716 65.5685 36.8135 65.1812 34.8937 64.4156C32.9738 63.65 31.2307 62.5213 29.766 61.0956C28.3013 59.6698 27.1445 57.9755 26.3631 56.1116C25.5816 54.2477 25.1912 52.2517 25.2147 50.2399Z" fill="#629BCE"/>
<path d="M59.2965 32.7324H4.03711L5.66339 30.9166C5.94623 30.6082 6.33516 30.7109 6.68871 30.7109H56.1852C56.5947 30.6756 57.0065 30.7458 57.379 30.9142C57.7515 31.0827 58.0715 31.3435 58.3065 31.6703C58.6601 31.9787 58.9783 32.287 59.2965 32.7324Z" fill="#FEFEFE"/>
<path d="M7.81959 28.621C8.03172 28.8266 8.27924 28.621 8.52672 28.621H52.225C51.7301 28.0728 51.3412 27.5589 50.8815 27.0793L43.9874 19.7474C40.8762 16.3212 37.8003 12.8951 34.6538 9.46901C33.0628 7.72168 31.4011 6.04292 29.8809 4.26134C30.3051 3.54185 31.0123 3.06217 31.4719 2.4112C31.9315 1.76024 31.8961 2.4112 32.0728 2.4112L38.2599 9.26345L46.639 18.4797L55.7251 28.4497C55.5483 28.7581 55.3009 28.6553 55.1241 28.6553H8.38528C8.2085 28.8951 7.74888 29.1349 7.81959 28.621Z" fill="#629BCE"/>
<path d="M31.6133 69.4263H10.5772C10.2944 69.4263 9.79944 69.4263 9.72873 69.1865C9.60442 68.726 9.60442 68.2422 9.72873 67.7817C9.72873 67.5076 10.1883 67.7817 10.4711 67.7817H52.8967C53.1796 67.7817 53.6392 67.5762 53.7452 67.9873C53.9042 68.4429 53.9042 68.9364 53.7452 69.392C53.7452 69.7004 53.2503 69.5633 53.0028 69.5633H31.79L31.6133 69.4263Z" fill="#FEFEFE"/>
<path d="M71.3523 77.9229C70.7159 78.5396 70.1149 79.1905 69.4785 79.7729C69.3062 79.9569 69.0961 80.1039 68.8617 80.2044C68.6272 80.305 68.3737 80.357 68.1173 80.357C67.8609 80.357 67.6075 80.305 67.373 80.2044C67.1386 80.1039 66.9284 79.9569 66.7561 79.7729C63.857 77.032 60.9934 74.2569 58.1297 71.4817C57.9554 71.3131 57.8171 71.1128 57.7228 70.8923C57.6285 70.6719 57.58 70.4356 57.58 70.1969C57.58 69.9583 57.6285 69.722 57.7228 69.5015C57.8171 69.2811 57.9554 69.0808 58.1297 68.9121C58.6953 68.2954 59.3671 67.713 60.0035 67.1305C60.6399 66.5481 60.6044 67.1305 60.8166 67.4389L70.9633 77.2376C71.1755 77.4432 71.423 77.6145 71.3523 77.9229Z" fill="#FEFEFE"/>
<path d="M13.7944 19.1307L9.79932 23.7217V21.5975C9.79932 17.8288 9.79932 14.06 9.79932 10.2913C11.0593 10.2225 12.3223 10.2225 13.5823 10.2913C14.0065 10.2913 14.0772 10.5996 14.1126 10.8737C14.1479 11.307 14.1479 11.7424 14.1126 12.1757V17.863C14.1192 18.3049 14.0098 18.7411 13.7944 19.1307Z" fill="#FEFEFE"/>
<path d="M71.3519 77.923L70.2205 76.7581L60.8161 67.6446C60.604 67.4391 60.3919 67.1307 60.0383 67.1307C60.2216 66.8831 60.4631 66.6814 60.7429 66.5423C61.0226 66.4032 61.3326 66.3306 61.647 66.3306C61.9615 66.3306 62.2713 66.4032 62.5511 66.5423C62.8308 66.6814 63.0723 66.8831 63.2556 67.1307C65.9779 69.7688 68.7003 72.3727 71.3873 75.0108C71.6072 75.1901 71.7833 75.4144 71.9031 75.6676C72.0229 75.9207 72.0832 76.1965 72.0798 76.475C72.0764 76.7535 72.0094 77.0278 71.8836 77.2781C71.7577 77.5285 71.5761 77.7488 71.3519 77.923Z" fill="#629BCE"/>
<path d="M13.7944 19.1307C13.7944 16.424 13.7944 13.7516 13.7944 11.045C13.7944 10.4626 13.5822 10.257 12.9812 10.2913H9.79932C10.2236 10.0172 10.6832 10.2913 11.1428 10.2913C12.5924 10.2913 14.0772 10.2913 15.5268 10.2913C16.0571 10.2913 16.2339 10.4625 16.2339 10.9765C16.2339 12.758 16.2339 14.4026 16.2339 16.287C16.2556 16.5438 16.1802 16.7995 16.0218 17.0064C15.1733 17.6231 14.5015 18.3769 13.7944 19.1307Z" fill="#629BCE"/>
<path d="M57.8824 66.4796C57.1753 67.2676 57.1753 67.2676 56.4329 66.4796L53.6398 63.7729C52.7913 62.9507 52.7913 62.9507 53.6398 62.2312C54.0287 62.2312 54.2409 62.608 54.4884 62.8479L57.3167 65.623C57.6349 65.8971 57.9531 66.0684 57.8824 66.4796Z" fill="#FEFEFE"/>
<path d="M32.8153 65.6917H29.2798C28.8909 65.6917 28.8202 65.6917 28.8202 65.2121V62.711C30.0705 63.803 31.4062 64.7996 32.8153 65.6917Z" fill="#D2E5F7"/>
<path d="M57.8823 66.4796L54.3468 63.0534L53.7457 62.4025C54.0639 61.7858 54.4175 61.82 54.8771 62.4025C55.9024 63.4303 56.9277 64.4582 58.0237 65.4175C59.1197 66.3768 58.5187 66.1027 57.8823 66.4796Z" fill="#9E9E9E"/>
<path d="M53.7461 35.0964C53.7461 34.7195 53.4986 34.6852 53.2158 34.6852H50.246C49.7191 34.6033 49.182 34.6033 48.655 34.6852L50.246 35.439C51.51 36.2569 52.6934 37.1859 53.7815 38.2141C53.7108 37.1178 53.7108 36.1242 53.7461 35.0964Z" fill="#FEFEFE"/>
<path d="M50.1038 65.0408C49.6852 65.1975 49.3012 65.4301 48.9724 65.726H50.2452H52.7201C51.3766 64.1842 51.3766 64.1842 50.1038 65.0408Z" fill="#FEFEFE"/>
<path d="M55.7603 69.7003V68.5354C56.1102 68.9123 55.7603 69.3234 55.7603 69.7003Z" fill="#8A84A2"/>
<path d="M54.9131 50.9251C54.798 53.6365 53.8548 56.2538 52.2031 58.4452C50.5514 60.6367 48.2654 62.3036 45.6351 63.2346C43.0047 64.1657 40.1483 64.319 37.4279 63.6752C34.7075 63.0313 32.2456 61.6193 30.3543 59.618C28.4629 57.6168 27.2272 55.1164 26.8038 52.4339C26.3804 49.7513 26.7884 47.0074 27.9761 44.5498C29.1637 42.0922 31.0775 40.0316 33.475 38.6292C35.8724 37.2269 38.6456 36.5458 41.4429 36.6724C43.3052 36.7148 45.1393 37.1216 46.8353 37.8682C48.5312 38.6148 50.054 39.6859 51.3121 41.0171C52.5702 42.3483 53.5377 43.9121 54.1565 45.6147C54.7753 47.3174 55.0327 49.1237 54.9131 50.9251Z" fill="#000002"/>
<path d="M50.2458 57.6746C49.0767 59.1379 47.5497 60.2958 45.8027 61.0436C44.0558 61.7913 42.144 62.1054 40.2404 61.9572C37.2232 61.8247 34.3674 60.5997 32.2377 58.5244C30.108 56.4491 28.8596 53.6748 28.7396 50.7503C28.6196 47.8258 29.6367 44.9642 31.5896 42.7316C33.5426 40.499 36.2891 39.058 39.2858 38.6938C41.1027 38.4202 42.9604 38.5629 44.7102 39.1102C46.4599 39.6576 48.053 40.5945 49.3619 41.8458C49.7225 42.1432 50.0223 42.5035 50.2458 42.908C50.564 43.3876 50.564 43.833 49.9276 44.0386C49.5168 44.0887 49.101 44.0887 48.6902 44.0386H33.2756C31.8614 44.0386 31.6492 44.2441 31.6492 45.6146C31.6492 46.985 31.6492 48.6638 31.6492 50.1713C31.6492 51.6788 31.6492 53.1178 31.6492 54.591C31.6492 56.0643 31.8614 56.0643 33.1341 56.0643H48.6902C49.1575 55.9789 49.6371 55.9789 50.1043 56.0643C50.7054 56.6467 50.4579 57.1606 50.2458 57.6746Z" fill="#FEFEFE"/>
<path d="M49.9274 43.9015C50.4577 43.6959 50.1395 43.2505 50.2455 42.9079C51.2868 43.8961 52.0321 45.1393 52.4021 46.5053C53.0639 48.327 53.2391 50.2814 52.9115 52.1864C52.5839 54.0915 51.764 55.8851 50.5283 57.4004C50.4432 57.5002 50.3485 57.5919 50.2455 57.6745C50.2455 57.2291 50.2456 56.7494 50.0688 56.3383C50.3466 55.0086 50.4299 53.6476 50.3162 52.2954C50.3162 50.3083 50.3162 48.2869 50.3162 46.2997C50.4182 45.4808 50.2837 44.6506 49.9274 43.9015Z" fill="#9E9E9E"/>
<path d="M49.9274 43.9014C50.1581 44.0135 50.3469 44.1926 50.4673 44.4138C50.5877 44.6349 50.6339 44.887 50.5991 45.1348V55.1733C50.6146 55.3946 50.5743 55.6162 50.482 55.8191C50.3896 56.022 50.2479 56.2002 50.0688 56.3383H49.185H32.8864C31.649 56.3383 31.4015 56.0984 31.4015 54.8993C31.4015 51.4732 31.4015 48.3554 31.4015 45.1006C31.4015 44.2098 31.6844 43.7986 32.4622 43.7986L49.9274 43.9014Z" fill="#000002"/>
<path d="M33.4166 54.5569C33.4166 51.7817 33.4166 49.0066 33.4166 46.2657C33.4166 45.9231 33.4166 45.8546 33.8763 45.8546H38.8967C39.1195 46.1635 39.2083 46.5449 39.1441 46.9166C39.1441 49.1094 39.1441 51.302 39.1441 53.4605C39.1441 54.5569 39.1441 54.6254 37.9774 54.5911C36.8107 54.5569 34.9015 54.5569 33.4166 54.5569Z" fill="#FEFEFE"/>
<path d="M42.0076 54.5569C42.0076 51.7817 42.0076 49.0408 42.0076 46.2999C42.0076 45.923 42.0076 45.8546 42.5026 45.8546H47.4522C47.5742 46.0021 47.6625 46.1731 47.7113 46.3562C47.76 46.5393 47.7682 46.7303 47.7351 46.9166V53.4605C47.7351 54.5569 47.7351 54.6254 46.5683 54.5911C45.4016 54.5569 43.5278 54.5569 42.0076 54.5569Z" fill="#FEFEFE"/>
<path d="M33.4166 54.5567C34.9015 54.5567 36.4218 54.5567 37.942 54.5567C38.6845 54.5567 38.8612 54.3169 38.8259 53.6659C38.8259 51.0621 38.8259 48.4925 38.8259 45.8886C40.0279 45.8886 40.0279 45.8886 40.0279 46.9849C40.0279 49.3147 40.0279 51.6102 40.0279 53.8372C40.0279 54.3854 40.028 54.591 39.2855 54.5567H33.9116C33.7349 54.5567 33.5227 54.5567 33.4166 54.5567Z" fill="#BBBEBF"/>
<path d="M42.0076 54.5567H46.4623C47.2047 54.5567 47.4522 54.5567 47.4522 53.6316C47.4522 51.062 47.4522 48.4925 47.4522 45.8886C48.6896 45.8886 48.6897 45.8886 48.6897 46.9849C48.6897 49.2804 48.6897 51.6102 48.6897 53.8372C48.6897 54.3854 48.6897 54.591 47.9472 54.5567H42.5733C42.3611 54.5567 42.149 54.5567 42.0076 54.5567Z" fill="#BBBEBF"/>
</svg>
