<svg width="45" height="46" viewBox="0 0 45 46" fill="none" xmlns="http://www.w3.org/2000/svg">
<path d="M23.04 0.5C30.1162 0.5 36.6683 3.63875 41.013 8.924C41.1368 9.07382 41.2292 9.247 41.2846 9.43325C41.3401 9.6195 41.3576 9.815 41.3359 10.0081C41.3143 10.2013 41.2541 10.3881 41.1588 10.5574C41.0635 10.7268 40.9351 10.8753 40.7812 10.994C40.4681 11.2395 40.0716 11.3533 39.6759 11.3113C39.2802 11.2693 38.9164 11.0748 38.6618 10.769C36.762 8.46763 34.3751 6.61671 31.6732 5.34981C28.9713 4.08291 26.0219 3.43164 23.0378 3.443C11.979 3.443 3.01275 12.2 3.01275 23C3.01275 33.8 11.979 42.557 23.0378 42.557C26.0649 42.5689 29.0559 41.8989 31.7887 40.5968C34.5215 39.2946 36.926 37.3938 38.8237 35.0353C39.0741 34.7263 39.4349 34.527 39.8297 34.4796C40.2245 34.4321 40.6223 34.5402 40.9388 34.781C41.0939 34.8977 41.2241 35.0444 41.3215 35.2124C41.4188 35.3804 41.4815 35.5663 41.5056 35.7589C41.5297 35.9516 41.5149 36.1472 41.462 36.334C41.409 36.5208 41.3191 36.6951 41.1975 36.8465C36.8595 42.269 30.2197 45.5 23.04 45.5C10.3117 45.5 0 35.4268 0 23C0 10.5733 10.314 0.5 23.04 0.5ZM38.4705 16.61L44.559 22.7007C45.1485 23.288 45.1597 24.2308 44.586 24.8068L38.637 30.7535C38.4975 30.8908 38.3323 30.9992 38.1508 31.0724C37.9692 31.1457 37.775 31.1823 37.5793 31.1802C37.3836 31.1781 37.1902 31.1373 37.0103 31.0602C36.8304 30.9832 36.6675 30.8713 36.531 30.731C36.3902 30.5946 36.2779 30.4317 36.2004 30.2516C36.1229 30.0716 36.0818 29.878 36.0795 29.682C36.0772 29.486 36.1138 29.2915 36.187 29.1097C36.2602 28.9279 36.3687 28.7624 36.5063 28.6227L39.987 25.142H16.7895C16.5937 25.145 16.3993 25.1092 16.2174 25.0368C16.0355 24.9643 15.8698 24.8566 15.7297 24.7198C15.5895 24.5831 15.4779 24.42 15.401 24.2399C15.3242 24.0598 15.2838 23.8663 15.282 23.6705C15.282 22.856 15.957 22.1967 16.7895 22.1967H39.8948L36.3893 18.6912C36.2488 18.5549 36.1368 18.3921 36.0595 18.2123C35.9822 18.0324 35.9412 17.8391 35.9389 17.6434C35.9366 17.4477 35.973 17.2534 36.0461 17.0718C36.1191 16.8902 36.2273 16.7249 36.3645 16.5853C36.5041 16.4481 36.6695 16.3399 36.8511 16.2668C37.0327 16.1938 37.2269 16.1574 37.4226 16.1597C37.6184 16.162 37.8117 16.203 37.9915 16.2802C38.1714 16.3575 38.3341 16.4696 38.4705 16.61Z" fill="#75865C"/>
</svg>
