<svg width="92" height="75" viewBox="0 0 92 75" fill="none" xmlns="http://www.w3.org/2000/svg">
<path d="M45.8469 75C70.9265 75 91.2576 66.8236 91.2576 56.7374C91.2576 46.6513 70.9265 38.4749 45.8469 38.4749C20.7672 38.4749 0.436157 46.6513 0.436157 56.7374C0.436157 66.8236 20.7672 75 45.8469 75Z" fill="#FFE8BE"/>
<path d="M41.1164 6.16706C39.9432 6.16706 38.7702 6.16706 37.5971 6.16706C37.1429 6.16706 37.0673 6.16706 37.0673 5.65366C37.0673 4.61297 37.4939 3.61491 38.2532 2.87903C39.0126 2.14316 40.0425 1.72974 41.1164 1.72974C42.1902 1.72974 43.2202 2.14316 43.9795 2.87903C44.7389 3.61491 45.1655 4.61297 45.1655 5.65366C45.1655 6.09372 45.1655 6.31374 44.56 6.27707C43.9545 6.2404 42.2516 6.16706 41.1164 6.16706Z" fill="#FEFEFE"/>
<path d="M91.257 59.1211C91.03 59.7812 90.8407 60.5147 90.538 61.1748C89.8802 62.7012 88.7543 63.9948 87.3125 64.8804C85.8707 65.7659 84.1828 66.2006 82.4776 66.1255H49.6684C49.5057 66.1571 49.3378 66.1549 49.1761 66.119C49.0143 66.0831 48.8623 66.0144 48.7299 65.9174C48.5976 65.8203 48.488 65.6971 48.4084 65.556C48.3288 65.4149 48.2811 65.259 48.2682 65.0987C48.2104 64.8317 48.2607 64.5535 48.4086 64.3214C48.5565 64.0894 48.7907 63.9213 49.0629 63.8518C49.4886 63.7807 49.9238 63.7807 50.3495 63.8518H65.7514C66.8488 63.8518 66.8866 63.8518 66.8866 62.7883V40.1251C66.8866 39.0249 66.8866 39.0249 65.7514 39.0249H41.3809C40.2835 39.0249 40.2456 39.025 40.2456 40.0885V62.605C40.2456 63.6318 40.2456 63.6318 41.3052 63.6685H43.765C44.0793 63.6336 44.3967 63.6336 44.7111 63.6685C44.8932 63.686 45.0682 63.7459 45.2213 63.8432C45.3743 63.9405 45.5009 64.0722 45.5901 64.2271C45.6793 64.382 45.7286 64.5554 45.7337 64.7327C45.7388 64.9101 45.6994 65.0859 45.6192 65.2454C45.5419 65.4806 45.3826 65.6823 45.1686 65.8161C44.9546 65.95 44.6991 66.0075 44.4461 65.9788C37.6345 65.9788 30.7851 65.9788 23.9735 65.9788C21.8281 65.9219 19.7892 65.0607 18.2859 63.5765C16.7825 62.0922 15.9319 60.1007 15.9131 58.021C15.9131 52.0435 15.9131 46.0659 15.9131 40.0517C15.9802 39.1243 16.4084 38.2562 17.1109 37.623C17.8134 36.9899 18.7379 36.639 19.6973 36.6413C20.4284 36.6046 21.161 36.6046 21.8922 36.6413C22.4598 36.6413 22.5733 36.6413 22.5733 35.9812V24.3562C22.5733 23.6961 22.7625 23.1827 23.4815 23.036C23.6268 22.9716 23.7857 22.941 23.9453 22.9469C24.105 22.9528 24.261 22.9948 24.4009 23.0697C24.5407 23.1446 24.6605 23.2503 24.7506 23.3782C24.8406 23.5061 24.8985 23.6526 24.9195 23.8061C24.9775 24.183 24.9775 24.5661 24.9195 24.9429V35.2844C24.9195 36.3479 24.9195 36.3846 26.017 36.3846H30.7094C31.769 36.3846 31.8068 36.3846 31.8068 35.3211V18.1953C31.7696 17.8417 31.7696 17.4854 31.8068 17.1318C31.8062 16.8426 31.9194 16.564 32.1233 16.3528C32.3271 16.1416 32.6064 16.0136 32.9042 15.995C33.2224 15.9585 33.5434 16.035 33.8078 16.2103C34.0722 16.3856 34.2621 16.6479 34.3423 16.9484C34.3983 17.35 34.3983 17.7571 34.3423 18.1586V35.1377C34.3423 36.3846 34.3422 36.3846 35.6289 36.3846H38.8077C39.6402 36.3846 39.7537 36.3846 39.7537 35.4678V18.122C39.6963 17.7697 39.6963 17.4108 39.7537 17.0585C39.8163 16.7773 39.9801 16.5269 40.2159 16.3522C40.4517 16.1774 40.744 16.0898 41.0404 16.105C41.3304 16.0986 41.6137 16.1903 41.8415 16.3643C42.0694 16.5383 42.2277 16.7838 42.2892 17.0585C42.3267 17.4366 42.3267 17.8173 42.2892 18.1953V35.8712C42.2892 36.2745 42.4784 36.4579 42.9325 36.4579H47.0194C47.5113 36.4579 47.7006 36.2379 47.7006 35.7978V18.342C47.6442 17.965 47.6442 17.5821 47.7006 17.2052C47.7388 16.8806 47.9067 16.5835 48.1686 16.3778C48.4304 16.1721 48.7652 16.0741 49.1008 16.105C49.2598 16.1097 49.4163 16.1448 49.5613 16.2082C49.7064 16.2716 49.8372 16.3621 49.9461 16.4745C50.0551 16.5869 50.14 16.719 50.1963 16.8632C50.2525 17.0075 50.2789 17.1611 50.2739 17.3152C50.2927 17.645 50.2927 17.9755 50.2739 18.3053V35.7245C50.2739 36.2746 50.5009 36.4946 51.0307 36.4946H56.2529C57.0476 36.4946 57.1234 36.4946 57.1612 35.6145V16.6551C57.1809 16.3865 57.1809 16.1169 57.1612 15.8483C57.1612 15.4449 56.9719 15.2616 56.5178 15.2616C56.0637 15.2616 55.0041 15.2616 54.2473 15.2616C53.7351 15.3172 53.2166 15.2709 52.7236 15.1255C52.2305 14.98 51.7733 14.7385 51.38 14.4157C50.9867 14.093 50.6656 13.6957 50.4364 13.2484C50.2071 12.8011 50.0745 12.3131 50.0468 11.8144C49.9898 10.9841 49.9898 10.151 50.0468 9.32074C50.0468 8.77066 49.8197 8.5506 49.2521 8.5506H32.8664C32.2988 8.5506 32.1096 8.77066 32.1096 9.32074C32.1474 9.95585 32.1474 10.5925 32.1096 11.2276C32.1663 11.779 32.0933 12.3356 31.8961 12.8558C31.6989 13.3759 31.3827 13.8459 30.9712 14.2306C30.5596 14.6153 30.0635 14.9046 29.52 15.0768C28.9766 15.249 28.3999 15.2997 27.8334 15.2249H25.7142C25.1087 15.2249 24.8817 15.4816 24.8817 16.0316C24.8817 16.5817 24.8817 18.0486 24.8817 19.0388C24.9369 19.342 24.9369 19.6523 24.8817 19.9556C24.8028 20.2013 24.6284 20.4076 24.3953 20.5308C24.1622 20.654 23.8887 20.6844 23.6329 20.6156C23.4734 20.5975 23.3191 20.5489 23.1792 20.4725C23.0393 20.3961 22.9165 20.2934 22.8178 20.1705C22.7192 20.0477 22.6468 19.907 22.6048 19.7568C22.5629 19.6066 22.5521 19.4498 22.5733 19.2955V10.7876C22.5629 10.1797 22.6795 9.57609 22.9159 9.01297C23.1523 8.44985 23.5037 7.93887 23.9491 7.5107C24.3944 7.08253 24.9245 6.74606 25.5075 6.52144C26.0905 6.29682 26.7143 6.18869 27.3414 6.2036C29.6876 6.2036 32.0717 6.2036 34.418 6.2036C34.9099 6.2036 35.0991 6.20361 35.137 5.58019C35.2592 4.0615 35.9681 2.64338 37.122 1.60898C38.276 0.574587 39.7901 0 41.362 0C42.9339 0 44.448 0.574587 45.6019 1.60898C46.7559 2.64338 47.4648 4.0615 47.5871 5.58019C47.5871 6.09359 47.7763 6.16695 48.2682 6.16695C50.5766 6.16695 52.8849 6.16695 55.1933 6.16695C55.8563 6.13502 56.5187 6.23866 57.1376 6.47113C57.7565 6.7036 58.318 7.05967 58.7856 7.51624C59.2532 7.97281 59.6164 8.51962 59.8515 9.12114C60.0867 9.72266 60.1886 10.3654 60.1507 11.0076V18.7454C60.7399 18.656 61.34 18.656 61.9292 18.7454H81.418C81.9154 18.6551 82.4278 18.6798 82.9135 18.8176C83.3992 18.9553 83.8445 19.2021 84.2132 19.538C84.5819 19.8739 84.8636 20.2894 85.0355 20.7506C85.2073 21.2118 85.2644 21.7059 85.2022 22.1926V25.1996C85.2291 25.3527 85.2223 25.5095 85.1822 25.6599C85.1421 25.8102 85.0697 25.9505 84.9696 26.0718C84.8695 26.193 84.7441 26.2923 84.6016 26.3632C84.4591 26.4341 84.3026 26.475 84.1426 26.4832C83.98 26.5242 83.8097 26.5273 83.6457 26.492C83.4817 26.4567 83.3287 26.3841 83.1994 26.2803C83.07 26.1764 82.9679 26.0441 82.9016 25.8945C82.8354 25.7449 82.8068 25.5821 82.8183 25.4197C82.7616 24.7975 82.7616 24.1716 82.8183 23.5494C82.8183 23.146 82.8183 22.7793 82.8183 22.3759C82.8183 21.3124 82.5533 21.0924 81.5315 21.0924H78.1257C77.5959 21.0924 77.369 21.3124 77.369 21.8625V25.7864C77.3805 26.2335 77.3165 26.6794 77.1797 27.1066C77.086 27.4081 76.9299 27.6878 76.7206 27.9287C76.5114 28.1695 76.2535 28.3664 75.9629 28.5072C75.6723 28.648 75.3551 28.7298 75.0307 28.7475C74.7063 28.7652 74.3818 28.7184 74.0767 28.6101C73.5433 28.4279 73.0246 28.2072 72.5252 27.95C72.2863 27.8072 72.011 27.7316 71.7304 27.7316C71.4497 27.7316 71.1746 27.8072 70.9357 27.95L69.5356 28.6101C69.1707 28.7704 68.7699 28.8389 68.3704 28.8095C67.971 28.78 67.5856 28.6533 67.2499 28.4414C66.9142 28.2294 66.6391 27.9388 66.4499 27.5966C66.2608 27.2543 66.1636 26.8714 66.1676 26.4832C66.1676 25.0163 66.1676 23.5494 66.1676 22.0459C66.1676 21.2024 66.1676 21.1291 65.1837 21.1291H62.005C60.8697 21.1291 60.6048 21.4225 60.567 22.5593V35.6511C60.567 36.6413 60.567 36.6779 61.6266 36.6779H81.9857C82.5912 36.6779 82.8183 36.4212 82.8183 35.8712C82.8183 34.1842 82.8183 32.4974 82.8183 30.8105C82.7625 30.4826 82.7625 30.1481 82.8183 29.8203C82.845 29.6839 82.9001 29.5542 82.98 29.4391C83.06 29.3239 83.1632 29.2256 83.2834 29.1502C83.4037 29.0748 83.5385 29.0238 83.6797 29.0003C83.8208 28.9768 83.9655 28.9813 84.1049 29.0135C84.2681 29.0313 84.4258 29.0811 84.5686 29.1598C84.7113 29.2385 84.8361 29.3446 84.9352 29.4715C85.0343 29.5985 85.1058 29.7436 85.1452 29.8981C85.1846 30.0527 85.1911 30.2133 85.1645 30.3704C85.1645 32.3507 85.1645 34.3309 85.1645 36.2745C85.1645 36.8613 85.1644 36.9713 85.8456 36.9347C86.5267 36.898 86.716 36.9347 87.1701 36.9347C88.1483 36.739 89.1666 36.926 90.0031 37.455C90.8395 37.9839 91.4263 38.8119 91.6355 39.7584L91.257 59.1211Z" fill="black"/>
<path d="M54.4373 36.7146H50.8422C50.4638 36.7146 50.3503 36.7145 50.3503 36.2011C50.3503 35.6877 50.3503 34.5876 50.3503 33.7808V17.8652C50.3692 17.6088 50.3692 17.3515 50.3503 17.0951C50.3242 16.8641 50.2151 16.6494 50.0422 16.4885C49.8692 16.3276 49.6434 16.2308 49.4042 16.215C49.156 16.1841 48.9043 16.2363 48.691 16.3631C48.4776 16.4898 48.3154 16.6834 48.2311 16.9117C48.1735 17.2148 48.1735 17.5255 48.2311 17.8285V35.9811C48.2311 36.5312 48.2311 36.7146 47.5121 36.7146C45.9984 36.7146 44.4847 36.7146 42.971 36.7146C42.4034 36.7146 42.2899 36.5312 42.2899 36.0545C42.2899 29.9669 42.2899 23.8794 42.2899 17.7185C42.3088 17.4744 42.3088 17.2292 42.2899 16.9851C42.2384 16.7488 42.1054 16.5365 41.9128 16.3832C41.7202 16.2299 41.4795 16.1448 41.2303 16.1416C40.9728 16.1288 40.7193 16.2073 40.5173 16.3626C40.3152 16.5178 40.1786 16.7392 40.1329 16.9851C40.0953 17.2159 40.0953 17.451 40.1329 17.6819C40.1329 23.7694 40.1329 29.8203 40.1329 36.0178C40.1329 36.6779 39.9437 36.7879 39.3003 36.7879C37.8245 36.7879 36.3486 36.7879 34.9106 36.7879C34.3051 36.7879 34.1538 36.7879 34.1538 36.0911C34.1538 30.0036 34.1538 23.9527 34.1538 17.7552C34.1928 17.4753 34.1928 17.1916 34.1538 16.9117C34.0908 16.6657 33.9362 16.4509 33.7196 16.3087C33.503 16.1665 33.2398 16.107 32.9807 16.1416C32.7264 16.1511 32.4857 16.2557 32.3093 16.4335C32.1329 16.6113 32.0344 16.8484 32.0346 17.0951C32.0158 17.327 32.0158 17.56 32.0346 17.7919C32.0346 23.8061 32.0346 29.8202 32.0346 35.8344C32.0346 36.5312 31.8076 36.6412 31.1643 36.6412C29.2722 36.6412 27.38 36.6412 25.4879 36.6412C24.7689 36.6412 24.6554 36.4212 24.6554 35.7611C24.6554 32.0939 24.6554 28.17 24.6554 24.3561C24.6554 23.4026 24.3148 23.0726 23.3688 23.0359C23.5007 22.1973 23.5007 21.3442 23.3688 20.5056C24.2391 20.3222 24.504 20.0288 24.504 19.1487C24.504 18.2686 24.504 16.765 24.504 15.4815C24.504 14.9681 24.504 14.7481 25.1852 14.7848H27.9855C28.9892 14.7848 29.9517 14.3984 30.6614 13.7107C31.3711 13.0229 31.7698 12.0902 31.7698 11.1176C31.7698 10.2374 31.7698 9.32067 31.7698 8.40388C31.7698 8.07383 31.7697 7.92712 32.2617 7.92712H50.0476C50.5017 7.92712 50.5773 7.9271 50.5773 8.47718C50.5773 9.02726 50.5773 9.90739 50.5773 10.6042C50.5186 11.1185 50.5729 11.6391 50.7366 12.1317C50.9003 12.6243 51.1696 13.0777 51.5271 13.4622C51.8845 13.8467 52.3218 14.1535 52.8104 14.3625C53.2989 14.5715 53.8275 14.6779 54.3616 14.6747C54.4685 14.8088 54.5469 14.9622 54.5924 15.1258C54.6379 15.2895 54.6495 15.4602 54.6265 15.6282V35.3944C54.7186 35.6109 54.7497 35.8473 54.7164 36.0793C54.6832 36.3113 54.5869 36.5306 54.4373 36.7146Z" fill="#FEFEFE"/>
<path d="M45.6195 65.3922C45.6195 64.3287 45.3168 63.9986 44.1815 63.9986H40.3973C39.9432 63.9986 39.8296 63.9987 39.8296 63.4486V39.4285C39.8296 38.9884 39.8296 38.8784 40.3973 38.8784H66.3571C66.8112 38.8784 66.9247 38.8784 66.9247 39.4285C66.9247 47.4229 66.9247 55.4541 66.9247 63.4486C66.9247 64.1087 66.5462 63.9986 66.1678 63.9986H49.593C48.5712 63.9986 48.3063 64.182 48.0414 65.0988H46.0735C45.9794 65.1098 45.8893 65.1421 45.8105 65.1931C45.7316 65.244 45.6662 65.3122 45.6195 65.3922Z" fill="#FFC567"/>
<path d="M79.0344 20.7623H81.5319C81.6739 20.7513 81.8168 20.7702 81.9505 20.8179C82.0842 20.8656 82.2058 20.9409 82.3065 21.0385C82.4073 21.1362 82.4849 21.2539 82.5342 21.3835C82.5834 21.5131 82.603 21.6515 82.5916 21.7892V25.0163C82.5916 25.8964 82.8564 26.1898 83.7268 26.3731V28.8668C82.8186 29.0868 82.5916 29.3802 82.5916 30.2604C82.5916 32.2406 82.5916 34.2209 82.5916 36.2379C82.5916 36.6413 82.5915 36.8246 82.0238 36.7879H79.3371C79.1129 36.438 79.0319 36.0194 79.11 35.6145C79.11 31.3605 79.11 27.1066 79.11 22.8893C79.0045 22.1852 78.9792 21.4719 79.0344 20.7623Z" fill="#FFC567"/>
<path d="M37.7864 51.4569C37.7864 55.4174 37.7864 59.4147 37.7864 63.3752C37.7864 63.8519 37.7864 63.9986 37.1431 63.9986H24.5416C23.6766 64.0301 22.8143 63.887 22.0095 63.5784C21.2046 63.2697 20.4747 62.8023 19.8662 62.2057C19.2577 61.6091 18.7839 60.8965 18.4747 60.113C18.1656 59.3295 18.028 58.4922 18.0705 57.6544C18.0705 51.958 18.0705 46.2739 18.0705 40.602C18.0705 39.3185 18.5247 38.8784 19.8113 38.8784H37.0296C37.6729 38.8784 37.7864 39.0984 37.7864 39.6485C37.7864 43.5724 37.7864 47.4596 37.7864 51.4569Z" fill="#CECCCD"/>
<path d="M79.0344 20.7624C79.2235 21.1919 79.3262 21.6524 79.3371 22.1193V36.788H74.1148C69.6495 36.788 65.184 36.788 60.7186 36.788C59.9996 36.788 59.8862 36.568 59.8862 35.9812C59.8862 31.3606 59.8862 26.7766 59.8862 22.1926C59.8862 21.0558 60.151 20.7624 61.3241 20.7624H65.2976C65.7518 20.7624 65.8653 20.7624 65.8653 21.3125V26.1532C65.8041 26.5403 65.8606 26.9362 66.0277 27.2926C66.1949 27.6491 66.4655 27.9508 66.8066 28.1608C67.1476 28.3707 67.5444 28.48 67.9484 28.4751C68.3524 28.4703 68.7463 28.3515 69.0819 28.1335C69.7115 27.7156 70.4568 27.492 71.22 27.492C71.9831 27.492 72.7284 27.7156 73.3581 28.1335C73.6882 28.3451 74.0737 28.4611 74.4695 28.4679C74.8653 28.4746 75.2547 28.3719 75.5924 28.1717C75.93 27.9716 76.2017 27.6822 76.3757 27.3377C76.5497 26.9932 76.6187 26.6077 76.5746 26.2266C76.5746 24.613 76.5746 23.0361 76.5746 21.4225C76.5746 20.8357 76.7638 20.6891 77.2936 20.7624H79.0344Z" fill="#FEFEFE"/>
<path d="M87.2462 38.8784H70.028C69.4225 38.8784 69.309 38.8784 69.309 39.6118C69.309 47.533 69.309 55.4541 69.309 63.3386C69.309 63.5586 69.309 63.8153 69.309 63.9986C73.0932 63.9986 76.8774 63.9986 80.6616 63.9986H82.0997C82.9858 64.0406 83.8711 63.9024 84.6988 63.5929C85.5264 63.2834 86.2781 62.8094 86.9054 62.2015C87.5327 61.5936 88.0218 60.8652 88.3412 60.0631C88.6606 59.2611 88.8031 58.4031 88.7598 57.5444V40.6387C89.0626 39.3185 88.6085 38.8784 87.2462 38.8784Z" fill="#CECCCD"/>
<path d="M54.4371 36.7147V15.0416H57.2374C57.6537 15.0416 57.6915 15.0416 57.6915 15.555V36.2746C57.6915 36.6047 57.6915 36.788 57.2374 36.788L54.4371 36.7147Z" fill="#FFC567"/>
<path d="M26.4714 12.878C25.8659 12.6213 24.7307 13.4281 24.6171 12.4379C24.2765 9.83422 25.0712 8.51405 26.6606 8.33069C27.4931 8.33069 28.3257 8.33069 29.1582 8.33069C29.9907 8.33069 29.5366 8.33069 29.5366 8.73408C29.5366 9.68755 29.5366 10.641 29.5366 11.5578C29.5426 11.7439 29.5079 11.9291 29.4348 12.1013C29.3618 12.2735 29.2519 12.4287 29.1126 12.5569C28.9732 12.685 28.8074 12.7831 28.6261 12.8448C28.4449 12.9064 28.2522 12.9303 28.0607 12.9147L26.4714 12.878Z" fill="#FFC567"/>
<path d="M74.4932 21.2024C74.4932 20.8357 74.4932 20.689 74.0012 20.7257H68.7412C68.2871 20.7257 68.1735 20.7257 68.1735 21.2757C68.1735 22.5593 68.1735 23.8428 68.1735 24.9429C68.1735 26.0431 68.1735 26.0797 69.3088 25.603C70.4441 25.1263 70.7846 24.6862 71.7306 24.8329L74.0012 25.8964C74.4553 26.1164 74.4932 25.8964 74.4932 25.5297V21.2024Z" fill="#FFC567"/>
<path d="M57.6914 10.7877C57.673 10.1869 57.421 9.61504 56.9859 9.18662C56.5509 8.75821 55.9648 8.50485 55.3452 8.47737H53.4152C53.1125 8.47737 52.6963 8.25734 52.7341 8.88076V11.6312C52.7323 11.8259 52.7737 12.0187 52.8556 12.1965C52.9375 12.3744 53.0578 12.533 53.2086 12.6618C53.3594 12.7905 53.537 12.8863 53.7294 12.9426C53.9217 12.9989 54.1244 13.0144 54.3235 12.9881H55.5723C56.2913 12.9881 57.313 13.3181 57.6535 12.9881C57.9941 12.658 57.7293 11.3378 57.6914 10.7877Z" fill="#FFC567"/>
<path d="M52.4694 53.6936V52.0434C52.4694 50.9799 52.6966 50.7233 53.8318 50.5766C54.2004 50.554 54.5605 50.459 54.89 50.2975C55.2196 50.1359 55.5118 49.9111 55.7489 49.6367C55.986 49.3623 56.1631 49.044 56.2694 48.7013C56.3757 48.3585 56.409 47.9984 56.3672 47.6428C56.2878 46.9931 55.9721 46.3921 55.4766 45.9477C54.9811 45.5033 54.3382 45.2447 53.6637 45.2182C52.9891 45.1917 52.3269 45.3991 51.7959 45.8031C51.265 46.2072 50.9 46.7814 50.7666 47.4228C50.7666 48.5596 50.2368 48.9996 49.5178 48.9263C48.7988 48.8529 48.3825 48.1562 48.5717 47.056C48.7977 45.938 49.4177 44.9308 50.3255 44.2067C51.2332 43.4827 52.3723 43.0868 53.548 43.0868C54.7236 43.0868 55.8628 43.4827 56.7706 44.2067C57.6783 44.9308 58.2982 45.938 58.5242 47.056C58.7554 48.1562 58.5786 49.3002 58.0248 50.2863C57.4709 51.2725 56.5758 52.0376 55.4969 52.4468C54.8157 52.7035 54.6265 52.9969 54.6644 53.6203C54.7211 54.3037 54.7211 54.9905 54.6644 55.674C54.6644 56.4441 54.2102 56.8474 53.529 56.8474C52.8479 56.8474 52.5073 56.4074 52.4694 55.6372V53.6936Z" fill="black"/>
<path d="M54.664 60.0012C54.6641 60.2868 54.5497 60.5612 54.3449 60.7665C54.1401 60.9718 53.861 61.0919 53.5665 61.1014C53.4191 61.1015 53.2733 61.0728 53.1376 61.0171C53.0019 60.9613 52.8792 60.8797 52.7768 60.7771C52.6744 60.6744 52.5943 60.5528 52.5414 60.4195C52.4886 60.2862 52.464 60.1439 52.469 60.0012C52.4689 59.7254 52.5793 59.4603 52.777 59.2619C52.9747 59.0635 53.2442 58.9473 53.5286 58.9378C53.6759 58.9328 53.8228 58.9567 53.9603 59.0079C54.0978 59.0592 54.2233 59.1367 54.3293 59.236C54.4352 59.3352 54.5194 59.4541 54.5769 59.5856C54.6344 59.7171 54.664 59.8584 54.664 60.0012Z" fill="#010101"/>
<path d="M37.0673 5.91007C37.0673 4.86939 37.4939 3.87132 38.2532 3.13545C39.0126 2.39958 40.0425 1.98621 41.1164 1.98621C42.1902 1.98621 43.2202 2.39958 43.9795 3.13545C44.7389 3.87132 45.1655 4.86939 45.1655 5.91007" fill="#FEFEFE"/>
</svg>
