<svg width="97" height="85" viewBox="0 0 97 85" fill="none" xmlns="http://www.w3.org/2000/svg">
<path d="M48.4819 84.2542C74.964 84.2542 96.4321 65.3932 96.4321 42.1271C96.4321 18.8609 74.964 0 48.4819 0C21.9998 0 0.53186 18.8609 0.53186 42.1271C0.53186 65.3932 21.9998 84.2542 48.4819 84.2542Z" fill="#FFE4E1"/>
<path d="M90.8953 69.3775C90.6991 70.0373 90.2992 70.6367 89.7399 71.1095C89.1805 71.5822 88.4834 71.91 87.7254 72.0567C87.3519 72.0917 86.9752 72.0917 86.6018 72.0567H31.6297C31.0483 72.0995 30.4633 72.0305 29.9154 71.8543C29.3676 71.6781 28.87 71.399 28.4575 71.0365C28.0449 70.6741 27.7272 70.2369 27.5267 69.7556C27.3261 69.2742 27.2475 68.7603 27.2962 68.2495V66.2753C27.2961 65.9621 27.367 65.6521 27.5046 65.3632C27.6422 65.0743 27.8438 64.8124 28.0977 64.5926C28.3517 64.3728 28.6528 64.1995 28.9836 64.0829C29.3144 63.9663 29.6683 63.9087 30.0247 63.9133C31.1081 63.9133 31.5495 63.3493 30.9878 62.5033C29.5031 60.1413 27.9382 57.8146 26.3733 55.4527C26.3337 55.3692 26.2668 55.2978 26.1812 55.2476C26.0955 55.1975 25.9948 55.1707 25.8918 55.1707C23.9453 55.194 22.0344 54.7111 20.3994 53.7827C18.7644 52.8544 17.4783 51.5221 16.703 49.9533C16.4944 49.8395 16.3381 49.6647 16.2616 49.4597C15.6934 48.0831 15.5279 46.603 15.7803 45.1555C16.0327 43.708 16.6949 42.3394 17.7061 41.1753C17.8471 40.9787 18.0425 40.8166 18.2741 40.7044C18.5056 40.5921 18.7658 40.5331 19.0303 40.5331C19.2948 40.5331 19.555 40.5921 19.7866 40.7044C20.0181 40.8166 20.2135 40.9787 20.3545 41.1753C21.0366 42.0566 21.5984 43.0437 22.2003 43.9955C22.3215 44.1715 22.4809 44.3247 22.6695 44.4465C22.8581 44.5682 23.0721 44.6562 23.2994 44.7053C23.5267 44.7544 23.7628 44.7637 23.9941 44.7326C24.2255 44.7016 24.4477 44.6308 24.6479 44.5243C24.8482 44.4178 25.0225 44.2777 25.1611 44.112C25.2997 43.9464 25.3999 43.7583 25.4557 43.5586C25.5116 43.359 25.5223 43.1515 25.4869 42.9483C25.4516 42.745 25.371 42.5498 25.2498 42.3739C24.688 41.4926 24.0862 40.6465 23.5244 39.8004C23.3278 39.5782 23.2093 39.3104 23.1835 39.0299C23.1577 38.7494 23.2257 38.4684 23.3791 38.2213C23.5324 37.9743 23.7646 37.7719 24.047 37.6392C24.3294 37.5064 24.6499 37.4488 24.9689 37.4737C26.7362 37.3488 28.5093 37.6409 30.105 38.3198C30.9075 38.6371 30.9476 38.6371 30.9075 37.8263C30.812 37.2271 30.8745 36.6167 31.0901 36.0421C31.3058 35.4676 31.6689 34.9442 32.1514 34.5125C32.5392 34.1448 33.0118 33.854 33.5376 33.6594C34.0635 33.4649 34.6305 33.3712 35.2009 33.3845C38.6517 33.3845 42.1025 33.3845 45.5533 33.3845C46.7571 33.3845 46.7571 33.3844 46.9577 32.3621C47.0074 32.0571 47.1437 31.7681 47.3541 31.5216C47.5645 31.2751 47.8422 31.0792 48.1615 30.952L49.2048 30.5642C49.927 30.2822 50.0875 30.0002 49.8869 29.3656V29.0836C49.51 28.586 49.3549 27.9838 49.4511 27.3921C49.5474 26.8004 49.8882 26.2606 50.4085 25.8756C51.3041 24.9821 52.284 24.1566 53.3377 23.4079C53.7108 23.0932 54.1893 22.8923 54.7024 22.8352C55.2156 22.778 55.736 22.8676 56.1866 23.0906L56.7082 23.3022C57.5509 23.5489 57.9521 23.3021 58.233 22.6676C58.3372 22.1259 58.6563 21.6341 59.1336 21.2792C59.611 20.9244 60.2159 20.7293 60.8412 20.7287C60.924 20.7245 61.005 20.7053 61.079 20.6723C61.153 20.6393 61.2184 20.5932 61.2712 20.5369C61.3239 20.4806 61.3629 20.4154 61.3855 20.3452C61.4082 20.2751 61.4141 20.2016 61.4029 20.1294C61.4029 19.4596 61.4029 18.7898 61.4029 18.0847C61.4029 17.3796 61.1622 17.556 60.7208 17.5207H35.1207C30.5063 17.5207 25.8918 17.5207 21.2773 17.5207H10.2027C9.11929 17.5207 9.07919 17.5207 9.03907 18.5078C9.03907 27.9085 9.03907 37.368 9.03907 46.8862C9.03907 48.1553 9.31992 48.4021 10.7644 48.4374C11.6462 48.3845 12.531 48.3845 13.4127 48.4374C14.4159 48.4374 14.8974 49.0014 14.7369 49.777C14.5764 50.5526 14.0949 50.9403 13.0516 50.9403H10.2428C9.17859 50.9403 8.15797 50.5689 7.40547 49.9078C6.65297 49.2467 6.23022 48.35 6.23022 47.4151V11.7745C6.23022 10.8395 6.65297 9.94284 7.40547 9.28172C8.15797 8.6206 9.17859 8.24919 10.2428 8.24919C11.3663 8.24919 12.4497 8.24919 13.5732 8.24919C14.0146 8.24919 14.2153 8.24916 14.1751 7.72037C14.1341 7.30988 14.1341 6.89705 14.1751 6.48655C14.1751 6.01907 14.3865 5.57071 14.7627 5.24015C15.139 4.90959 15.6493 4.72391 16.1814 4.72391C16.7135 4.72391 17.2238 4.90959 17.6 5.24015C17.9763 5.57071 18.1877 6.01907 18.1877 6.48655C18.1877 7.0506 17.8667 7.86142 18.1877 8.14344C18.5087 8.42546 19.5519 8.14344 20.2341 8.14344H51.5722C52.2944 8.14344 52.5753 8.14344 52.4549 7.36787C52.4149 7.00444 52.4149 6.63848 52.4549 6.27505C52.4856 5.83549 52.7062 5.42279 53.0717 5.12138C53.4371 4.81996 53.9199 4.65257 54.4211 4.65339C54.9186 4.64344 55.4012 4.80306 55.7677 5.09879C56.1343 5.39452 56.3563 5.8034 56.3872 6.23976C56.4067 6.32112 56.4067 6.40519 56.3872 6.48655C56.3872 7.01535 56.3872 7.72038 56.3872 8.0024C56.3872 8.28442 57.591 8.0024 58.233 8.0024H60.2794C61.3436 8.0024 62.3642 8.37381 63.1167 9.03493C63.8692 9.69604 64.292 10.5927 64.292 11.5277C64.292 14.4184 64.292 17.3444 64.292 20.2351C64.292 20.7639 64.292 20.9755 65.0544 20.9755C65.5944 20.924 66.1364 21.056 66.5691 21.3444C67.0019 21.6328 67.2926 22.0558 67.3817 22.5266C67.4403 22.7377 67.535 22.9397 67.6626 23.1259C67.9434 23.7252 68.4249 23.9719 69.0669 23.6194C69.7648 23.1963 70.6249 23.0329 71.4594 23.165C72.2939 23.2971 73.035 23.714 73.5209 24.3245C74.3995 25.0848 75.2173 25.8976 75.9685 26.7569C76.1959 26.9866 76.3372 27.2723 76.3731 27.5751C76.409 27.8779 76.3378 28.1831 76.1692 28.449C75.1259 30.2822 75.2463 30.4232 77.3328 31.0578C77.7503 31.1495 78.1153 31.3721 78.3592 31.6837C78.603 31.9953 78.7089 32.3745 78.6569 32.7499C78.6569 33.5254 79.0181 33.7017 79.8206 33.6312C80.6231 33.5607 81.5059 33.6312 82.3887 33.6312C82.9875 33.5747 83.5932 33.6374 84.1607 33.8146C84.7282 33.9918 85.243 34.279 85.667 34.6549C86.0909 35.0308 86.4131 35.4856 86.6097 35.9858C86.8063 36.486 86.8721 37.0187 86.8024 37.5443C86.8024 46.0049 86.8024 54.5009 86.8024 62.9616C86.8024 63.6666 86.8025 63.9134 87.8457 63.8429C88.4917 63.7849 89.1405 63.9254 89.6818 64.2403C90.2232 64.5552 90.6236 65.0252 90.815 65.5702L90.8953 69.3775Z" fill="black"/>
<path d="M61.7245 18.1905C61.7245 17.6265 61.7245 17.5208 60.9621 17.5208H9.3205C8.75874 17.5208 8.79884 17.7675 8.79884 18.0848V47.4856C8.79884 48.508 9.28037 48.8957 10.444 48.8957H13.0923C14.1356 48.8957 14.4967 49.1425 14.7776 50.0591H16.8641L16.6234 49.4598C16.1025 48.1787 15.9364 46.8071 16.1387 45.4584C16.3411 44.1098 16.9061 42.8229 17.787 41.7042C18.6698 40.4703 19.713 40.5408 20.5557 41.7042C21.3983 42.8675 21.8397 43.6431 22.4416 44.6654C22.7225 45.0884 23.0033 45.1236 23.5651 45.1236C24.0402 45.1078 24.5029 44.9864 24.9099 44.7706C25.317 44.5548 25.655 44.2517 25.8924 43.8898C26.0277 43.7599 26.1028 43.59 26.1028 43.4139C26.1028 43.2377 26.0277 43.068 25.8924 42.938C25.1701 41.8804 24.4479 40.7876 23.7657 39.6947C23.6294 39.5254 23.547 39.327 23.5273 39.1202C23.5075 38.9135 23.5511 38.7059 23.6534 38.5189C23.7557 38.3319 23.9131 38.1723 24.1092 38.0567C24.3054 37.9412 24.5331 37.8738 24.7689 37.8616H25.6917C27.6272 37.8345 29.5322 38.2865 31.1889 39.166C31.0819 37.969 31.2736 36.7659 31.7507 35.6407C32.0957 35.1013 32.5963 34.6512 33.202 34.3356C33.8077 34.02 34.4973 33.85 35.2015 33.8428H46.1157C46.9182 33.8428 47.3194 33.8428 47.3194 32.9262C47.2837 32.5624 47.392 32.1989 47.6259 31.897C47.8598 31.5952 48.2051 31.3735 48.6035 31.2693C50.8104 30.6348 50.8104 30.4585 49.8072 28.6959C49.6372 28.4157 49.5692 28.0965 49.6122 27.7813C49.6553 27.4661 49.8074 27.1701 50.048 26.9332C50.9448 25.899 51.9526 24.9428 53.0574 24.0778C53.487 23.6644 54.0698 23.3984 54.7018 23.3274C55.3338 23.2564 55.974 23.3849 56.5082 23.69C57.7119 24.254 58.0731 24.113 58.4744 22.9497C58.5641 22.4228 58.8804 21.9463 59.3582 21.6184C59.836 21.2904 60.4388 21.136 61.0424 21.187C61.564 21.187 61.6844 20.9755 61.6844 20.5525C61.6358 19.7653 61.6492 18.9761 61.7245 18.1905Z" fill="white"/>
<path d="M84.195 37.7557V37.2622C84.195 36.963 84.0597 36.676 83.8189 36.4645C83.5781 36.2529 83.2515 36.1341 82.9109 36.1341C82.4695 36.1341 82.0282 36.1341 81.5868 36.1341H35.643C34.359 36.1341 33.9176 36.4866 33.9176 37.6499V63.2787C33.9176 63.9133 33.9176 64.019 34.8004 64.019H52.0142C52.3392 63.9906 52.6671 64.0337 52.9683 64.1445C53.2696 64.2553 53.5347 64.4303 53.7397 64.6536C53.8548 64.8149 54.0145 64.9479 54.2039 65.0404C54.3933 65.1329 54.6063 65.1817 54.823 65.1824H62.8481C63.1208 65.2171 63.3992 65.1863 63.6535 65.0932C63.9079 65.0001 64.1287 64.8482 64.2927 64.6536C64.5058 64.4181 64.7828 64.2335 65.0983 64.1164C65.4137 63.9994 65.7576 63.9538 66.0984 63.9838H83.1116C83.9141 63.9838 84.1548 63.8075 84.1147 63.1025L84.195 37.7557ZM81.2658 59.965C81.2658 61.0226 80.9047 61.3398 79.7009 61.3398C78.4972 61.3398 76.3303 61.3398 74.6451 61.3398C74.1839 61.408 73.71 61.3458 73.2917 61.162C72.8734 60.9783 72.5324 60.6826 72.3178 60.3175C71.4434 60.0719 70.5037 60.0719 69.6294 60.3175C69.1479 61.1988 68.3453 61.3398 67.3021 61.3398C64.9347 61.3398 62.6074 61.3398 60.24 61.3398C59.7986 61.3398 59.3572 61.3398 58.9961 61.5513C58.7986 61.4329 58.5763 61.3501 58.3421 61.3077C58.1079 61.2653 57.8665 61.2643 57.6318 61.3046H39.1339C38.7731 61.3222 38.4114 61.3222 38.0505 61.3046C37.8909 61.3095 37.7319 61.2855 37.5833 61.2341C37.4347 61.1827 37.2998 61.105 37.1869 61.0058C37.074 60.9066 36.9855 60.788 36.927 60.6575C36.8685 60.5269 36.8411 60.3872 36.8468 60.247C36.8266 59.9535 36.8266 59.6592 36.8468 59.3657V40.4702C36.8468 38.6723 36.8468 38.5313 39.0537 38.5313H57.6318C58.1134 38.5313 58.635 38.5313 59.0362 38.3198C59.4882 38.4999 59.99 38.5611 60.4807 38.496H79.5805C80.9046 38.496 81.2658 38.8133 81.2658 39.9414C81.306 46.7452 81.306 53.4079 81.2658 59.965Z" fill="#898888"/>
<path d="M35.2408 15.194H9.56043C8.95854 15.194 8.7178 15.194 8.75793 14.5242C8.79805 13.8544 8.75793 12.7263 8.75793 11.845C8.72274 11.6668 8.73679 11.4838 8.79895 11.3114C8.86111 11.139 8.96958 10.9823 9.11512 10.8544C9.26067 10.7265 9.43903 10.6313 9.63525 10.5767C9.83147 10.5221 10.0398 10.5097 10.2426 10.5406H13.5329C13.9341 10.5406 14.0144 10.5406 14.0545 10.9989C14.0545 12.1622 14.8972 12.8673 15.9805 12.8673C17.0639 12.8673 17.9066 12.1975 17.9868 10.9989C17.9868 10.6464 17.9868 10.5406 18.5085 10.5406H35.2007C35.6624 12.0637 35.6762 13.6649 35.2408 15.194Z" fill="white"/>
<path d="M35.241 15.194V10.6112H51.9332C52.2943 10.6112 52.4147 10.6112 52.4548 11.0695C52.4548 12.2681 53.3376 12.9731 54.4611 12.9379C55.5846 12.9026 56.3069 12.2328 56.3871 11.0695C56.3871 10.7169 56.3871 10.6112 56.9088 10.6112H60.3195C60.4996 10.5954 60.6815 10.6144 60.8524 10.6667C61.0234 10.7191 61.1793 10.8036 61.3092 10.9144C61.4391 11.0252 61.5399 11.1595 61.6046 11.3081C61.6693 11.4566 61.6963 11.6158 61.6837 11.7745C61.6837 12.7616 61.6837 13.7839 61.6837 14.8063C61.6837 15.8286 61.3226 15.2293 60.9614 15.2293H35.2008L35.241 15.194Z" fill="#FF6F61"/>
<path d="M88.1671 67.0157C88.1671 66.3811 88.1671 66.1696 87.2442 66.1696H67.1814C66.9223 66.1542 66.6628 66.1942 66.4251 66.2864C66.1875 66.3785 65.9789 66.5199 65.8171 66.6984C65.6065 66.9364 65.3299 67.1229 65.0137 67.2402C64.6976 67.3574 64.3526 67.4015 64.0115 67.3682H54.4215C54.0814 67.392 53.7398 67.3435 53.4256 67.2269C53.1113 67.1104 52.8336 66.9291 52.6158 66.6984C52.459 66.515 52.2512 66.3701 52.0123 66.2775C51.7734 66.1849 51.5114 66.1477 51.2515 66.1696H32.1919C31.5097 66.1696 30.6671 65.9581 30.2659 66.1696C29.8646 66.3811 30.2659 67.2977 30.2659 67.897C30.2659 69.2013 30.6671 69.5539 32.1919 69.5539H86.8831C87.0795 69.5647 87.2762 69.5382 87.4598 69.476C87.6434 69.4138 87.8095 69.3174 87.9467 69.1935C88.0839 69.0696 88.189 68.9211 88.2547 68.7581C88.3205 68.5952 88.3454 68.4217 88.3276 68.2495C88.1671 68.0733 88.127 67.615 88.1671 67.0157Z" fill="white"/>
<path d="M19.191 44.3832C19.7929 45.2998 20.3546 46.0753 20.8361 46.8861C20.9783 47.1766 21.2358 47.4118 21.5605 47.5479C21.8853 47.6841 22.2553 47.712 22.6017 47.6265C23.1816 47.5137 23.7733 47.4546 24.3672 47.4502C25.0299 47.4627 25.6836 47.3146 26.2569 47.0224C26.8302 46.7301 27.3009 46.3049 27.6174 45.7933L27.8581 45.476C29.5835 43.5724 29.5434 43.8544 28.139 41.7393L27.2162 40.2939C28.7319 40.4947 30.1364 41.1117 31.2287 42.0565C31.2652 42.1287 31.2841 42.2067 31.2841 42.2857C31.2841 42.3646 31.2652 42.4427 31.2287 42.5148V57.7793V57.9555C30.3058 56.5807 29.3829 55.2411 28.5403 53.8662C28.3834 53.5588 28.1213 53.3019 27.7905 53.1313C27.4597 52.9607 27.0766 52.8849 26.6945 52.9144C25.4753 53.0147 24.2471 52.8425 23.1239 52.4139C22.0008 51.9853 21.0193 51.3142 20.2706 50.4629C19.5219 49.6116 19.0303 48.6079 18.8416 47.5449C18.6528 46.482 18.773 45.3944 19.191 44.3832Z" fill="#FF6F61"/>
<path d="M63.008 29.1189C61.5512 29.1292 60.1384 29.5588 58.9861 30.342C57.8337 31.1252 57.0054 32.2187 56.6281 33.455C56.6281 33.7723 56.3873 33.8075 56.0663 33.8075H50.3684C50.3684 33.8075 49.9271 33.8075 49.9271 33.6313C49.9083 33.5847 49.9021 33.535 49.909 33.486C49.9159 33.437 49.9358 33.3901 49.9669 33.3491C49.9981 33.308 50.0397 33.2738 50.0885 33.2494C50.1373 33.2249 50.192 33.2109 50.2481 33.2082C52.0136 32.9615 52.5352 31.7628 53.0167 30.529C53.0979 30.2362 53.1003 29.9309 53.0237 29.6371C52.947 29.3434 52.7935 29.0694 52.5754 28.8369C52.4836 28.7265 52.418 28.601 52.3824 28.4679C52.3469 28.3348 52.342 28.1968 52.3682 28.0621C52.3944 27.9273 52.4511 27.7985 52.5349 27.6834C52.6187 27.5682 52.728 27.4689 52.8563 27.3915C53.097 27.2152 53.2976 26.9685 53.5384 26.757C54.7823 25.6994 54.7823 25.6994 56.3873 26.2987C56.6541 26.4193 56.9499 26.4822 57.25 26.4822C57.5501 26.4822 57.8459 26.4193 58.1127 26.2987C58.4292 26.1452 58.7662 26.0268 59.1159 25.9462C59.4143 25.8576 59.6854 25.7097 59.9081 25.5141C60.1308 25.3184 60.2991 25.0802 60.3998 24.8181C61.0017 23.4079 61.0018 23.4079 62.8074 23.4784C62.9111 23.5774 62.9898 23.6946 63.0382 23.8222C63.0866 23.9498 63.1037 24.0849 63.0883 24.2188V28.2376C63.1571 28.3792 63.1857 28.5334 63.1717 28.6869C63.1577 28.8404 63.1016 28.9887 63.008 29.1189Z" fill="white"/>
<path d="M63.0088 29.1189V23.3726H63.5304C63.7333 23.3368 63.9424 23.3368 64.1454 23.3725C64.3484 23.4082 64.5414 23.4789 64.713 23.5805C64.8847 23.6821 65.0317 23.8127 65.1455 23.9646C65.2594 24.1165 65.3378 24.2868 65.3762 24.4655C65.5287 24.8414 65.7692 25.1852 66.0822 25.4744C66.3952 25.7637 66.7738 25.9921 67.1935 26.1449C67.6131 26.2977 68.0646 26.3715 68.5188 26.3615C68.9729 26.3516 69.4196 26.2581 69.8301 26.0871C69.994 25.9822 70.1805 25.9078 70.3784 25.8686C70.5762 25.8294 70.781 25.8262 70.9803 25.8592C71.1795 25.8922 71.3689 25.9608 71.5369 26.0606C71.7048 26.1604 71.8478 26.2895 71.9568 26.4397L72.3179 26.7217C73.6822 27.8851 73.6822 27.8851 72.9599 29.3657C72.8322 29.5963 72.7658 29.8494 72.7658 30.1059C72.7658 30.3625 72.8322 30.6156 72.9599 30.8463C73.091 31.06 73.1985 31.2843 73.2809 31.516C73.3747 31.8677 73.5784 32.1893 73.8691 32.4447C74.1597 32.7001 74.5259 32.879 74.9261 32.9614C75.1885 33.0223 75.4438 33.105 75.6885 33.2082C76.0095 33.2082 76.17 33.4197 76.0897 33.6665C76.0095 33.9132 75.7286 33.8427 75.5681 33.8427H70.0308C69.8769 33.8634 69.7198 33.8309 69.5926 33.752C69.4654 33.6732 69.378 33.5541 69.3486 33.4197C68.9717 32.1928 68.1479 31.1081 67.003 30.3314C65.8581 29.5548 64.4552 29.1289 63.0088 29.1189Z" fill="#FF6F61"/>
<path d="M63.2087 33.7722H59.4369C59.7076 32.9692 60.3251 32.291 61.1573 31.8826C61.9895 31.4742 62.9706 31.368 63.8908 31.5865C63.7282 31.729 63.6013 31.8999 63.5183 32.0882C63.4354 32.2764 63.3982 32.4777 63.4093 32.6793C63.4691 32.8633 63.4822 33.0565 63.4475 33.2454C63.4128 33.4342 63.3313 33.6141 63.2087 33.7722Z" fill="white"/>
<path d="M63.2085 33.7722C63.2479 33.2792 63.2479 32.7844 63.2085 32.2915C63.2085 31.7979 63.2085 31.5512 63.9307 31.5864C64.5785 31.6969 65.1808 31.958 65.6748 32.3424C66.1688 32.7268 66.5364 33.2205 66.7395 33.7722H63.2085Z" fill="white"/>
<path d="M19.3915 22.1742H20.7959C21.1259 22.2007 21.4325 22.3348 21.6554 22.5502C21.8782 22.7656 22.0011 23.0465 21.9997 23.3375C22.0108 23.6309 21.8913 23.9166 21.6665 24.1338C21.4418 24.351 21.1294 24.4827 20.7959 24.5009H17.9872C17.815 24.4965 17.6456 24.4616 17.489 24.3985C17.3325 24.3353 17.192 24.2452 17.0759 24.1333C16.9599 24.0215 16.8706 23.8903 16.8134 23.7475C16.7563 23.6048 16.7324 23.4534 16.7433 23.3023C16.7527 23.0117 16.8856 22.7348 17.1158 22.526C17.3461 22.3172 17.6569 22.1917 17.9872 22.1742H19.3915Z" fill="#010101"/>
<path d="M29.9445 22.1742H31.2686C31.6198 22.1742 31.9566 22.2967 32.205 22.5149C32.4533 22.7331 32.5928 23.029 32.5928 23.3375C32.5929 23.6401 32.4589 23.9307 32.2192 24.1479C31.9795 24.3651 31.6529 24.4917 31.3087 24.5009H28.5802C28.4063 24.4963 28.2351 24.4617 28.0764 24.399C27.9178 24.3362 27.7747 24.2467 27.6554 24.1354C27.5362 24.0241 27.4431 23.8932 27.3814 23.7502C27.3198 23.6073 27.2908 23.4551 27.2962 23.3023C27.3166 22.9968 27.4694 22.7097 27.7231 22.5C27.9768 22.2902 28.3121 22.1737 28.6605 22.1742H29.9445Z" fill="#010101"/>
<path d="M19.3518 30.3174H17.9474C17.784 30.3129 17.6232 30.2801 17.4743 30.2209C17.3254 30.1617 17.1912 30.0773 17.0794 29.9726C16.9676 29.8678 16.8804 29.7447 16.8228 29.6103C16.7652 29.4759 16.7383 29.3329 16.7436 29.1893C16.7325 28.896 16.8521 28.6103 17.0768 28.3931C17.3016 28.1759 17.6139 28.0442 17.9474 28.026C18.9104 28.026 19.8333 28.026 20.7562 28.026C21.0897 28.0352 21.4061 28.158 21.6383 28.3686C21.8705 28.5792 22.0002 28.8609 22.0001 29.1541C22.0109 29.3051 21.9871 29.4565 21.9299 29.5993C21.8728 29.7421 21.7835 29.8733 21.6674 29.9851C21.5514 30.097 21.4109 30.1871 21.2543 30.2503C21.0978 30.3134 20.9284 30.3483 20.7562 30.3527L19.3518 30.3174Z" fill="#010101"/>
<path d="M29.9846 27.9907C30.426 27.9907 30.9075 27.9907 31.389 27.9907C31.7189 28.0172 32.0256 28.1513 32.2484 28.3667C32.4713 28.5821 32.5941 28.863 32.5928 29.1541C32.5981 29.2976 32.5712 29.4406 32.5136 29.575C32.456 29.7094 32.3688 29.8325 32.257 29.9373C32.1452 30.0421 32.011 30.1264 31.8621 30.1856C31.7131 30.2448 31.5524 30.2776 31.389 30.2822C30.4537 30.335 29.5155 30.335 28.5802 30.2822C28.4082 30.2822 28.2378 30.2519 28.0794 30.193C27.9209 30.1342 27.7775 30.0479 27.6578 29.9394C27.538 29.8309 27.4443 29.7023 27.3822 29.5614C27.3201 29.4204 27.2908 29.2699 27.2962 29.1188C27.3153 28.8251 27.4567 28.5478 27.6935 28.3398C27.9303 28.1318 28.2459 28.0075 28.5802 27.9907C29.0216 27.9555 29.5031 27.9907 29.9846 27.9907Z" fill="#010101"/>
<path d="M19.3916 36.1341H17.9872C17.8169 36.1344 17.6483 36.104 17.4919 36.0447C17.3355 35.9854 17.1946 35.8986 17.078 35.7895C16.9614 35.6805 16.8715 35.5515 16.8139 35.4107C16.7563 35.2698 16.7323 35.1201 16.7433 34.9708C16.7432 34.6776 16.8729 34.3959 17.1051 34.1853C17.3373 33.9747 17.6537 33.8518 17.9872 33.8427C18.9101 33.8427 19.8731 33.8427 20.796 33.8427C21.1295 33.8608 21.4418 33.9926 21.6666 34.2098C21.8913 34.427 22.0108 34.7126 21.9998 35.006C22.0051 35.1495 21.9782 35.2926 21.9206 35.427C21.863 35.5614 21.7758 35.6845 21.664 35.7893C21.5522 35.894 21.418 35.9784 21.2691 36.0376C21.1201 36.0967 20.9594 36.1296 20.796 36.1341H19.3916Z" fill="#010101"/>
<path d="M40.6184 22.1742H41.8623C42.2135 22.1742 42.5503 22.2967 42.7986 22.5149C43.047 22.7331 43.1864 23.029 43.1864 23.3375C43.1864 23.6461 43.047 23.942 42.7986 24.1601C42.5503 24.3783 42.2135 24.5009 41.8623 24.5009H39.1338C38.7896 24.4917 38.463 24.3651 38.2233 24.1479C37.9836 23.9307 37.8496 23.6401 37.8497 23.3375C37.8598 23.0318 38.0026 22.741 38.2487 22.5248C38.4949 22.3085 38.8259 22.1831 39.1739 22.1742H40.6184Z" fill="#010000"/>
<path d="M40.6184 27.9907C41.0197 27.9907 41.461 27.9907 41.8623 27.9907C42.0343 27.986 42.2056 28.0117 42.366 28.0663C42.5264 28.1209 42.6728 28.2032 42.7963 28.3084C42.9198 28.4136 43.018 28.5396 43.085 28.6788C43.152 28.818 43.1865 28.9677 43.1864 29.1188C43.1918 29.2716 43.1628 29.4238 43.1012 29.5668C43.0395 29.7097 42.9464 29.8406 42.8272 29.9519C42.7079 30.0632 42.5648 30.1528 42.4062 30.2155C42.2475 30.2782 42.0763 30.3128 41.9024 30.3174H39.1739C38.8227 30.3174 38.4859 30.1949 38.2375 29.9767C37.9892 29.7585 37.8497 29.4626 37.8497 29.1541C37.8497 28.8455 37.9892 28.5496 38.2375 28.3315C38.4859 28.1133 38.8227 27.9907 39.1739 27.9907C39.6955 27.9555 40.1369 27.9907 40.6184 27.9907Z" fill="#010000"/>
<path d="M72.2774 60.4939H69.6692C69.3954 60.1503 69.0164 59.8819 68.5761 59.7197C68.1358 59.5575 67.6523 59.5081 67.1814 59.5773C64.8541 59.5773 62.5269 59.5773 60.2397 59.5773C59.7983 59.5773 59.3168 59.5774 58.9556 59.3306C58.8554 58.9836 58.8554 58.62 58.9556 58.273V41.8804C58.9014 41.4953 58.9709 41.1046 59.1563 40.7524C59.4867 40.5592 59.8883 40.4836 60.2798 40.5409H77.9351C79.1389 40.5409 79.3395 40.5408 79.3395 41.7747V58.3788C79.3395 59.4363 79.1388 59.5773 77.8949 59.6126C76.651 59.6478 75.9689 59.6126 75.0059 59.6126C74.5029 59.505 73.9748 59.5314 73.4889 59.6883C73.003 59.8453 72.5813 60.1257 72.2774 60.4939Z" fill="#FF6F61"/>
<path d="M58.9279 58.9049H67.8357C68.9191 58.9049 69.2401 59.1517 69.521 60.033C69.8019 60.9143 68.9191 61.2316 67.8759 61.2316H38.5842C36.8989 61.2316 36.5779 60.9496 36.5779 59.4337V39.6921C36.5779 38.282 36.939 38 38.5039 38H79.5524C81.2377 38 81.5587 38.282 81.5587 39.6921V59.5395C81.5587 60.8438 81.1975 61.1611 79.7129 61.1611H73.9348C72.8514 61.1611 72.4903 60.8791 72.2896 59.9625C72.089 59.0459 72.8916 58.8344 73.8947 58.8344H78.2684C78.7098 58.8344 78.9505 58.8344 78.9104 58.3056V40.6792C78.9104 40.3267 78.9104 40.1504 78.3887 40.1504H59.0883C58.6743 40.3554 58.193 40.43 57.7241 40.3619H40.1892C39.7077 40.3619 39.507 40.6087 39.507 40.9965V57.7063C39.507 58.4466 39.507 58.4819 40.5904 58.4819H58.1253C58.4338 58.5516 58.7126 58.6986 58.9279 58.9049Z" fill="black"/>
<path d="M59.0751 59.3304H39.7345C39.0524 59.3304 39.2128 58.9779 39.2128 58.6606V42.6206C39.2128 42.0213 38.9721 41.2104 39.2128 40.8579C39.4536 40.5054 40.537 40.8579 41.2593 40.8579H58.9546L59.0751 59.3304Z" fill="white"/>
</svg>
