<svg width="20" height="22" viewBox="0 0 20 22" fill="none" xmlns="http://www.w3.org/2000/svg">
<path fill-rule="evenodd" clip-rule="evenodd" d="M9.99995 0.5C9.60212 0.5 9.22059 0.658035 8.93929 0.93934C8.65798 1.22064 8.49995 1.60218 8.49995 2V2.15C6.8059 2.4958 5.28335 3.41627 4.18999 4.75565C3.09662 6.09502 2.4996 7.77102 2.49995 9.5V15.5L0.692448 17.492C-0.182052 18.4565 0.501949 20 1.80245 20H7.40195C7.66526 20.456 8.04397 20.8347 8.50001 21.098C8.95606 21.3613 9.47336 21.4999 9.99995 21.4999C10.5265 21.4999 11.0438 21.3613 11.4999 21.098C11.9559 20.8347 12.3346 20.456 12.5979 20H18.1974C19.4979 20 20.1819 18.455 19.3074 17.492L17.4999 15.5V9.5C17.5003 7.77102 16.9033 6.09502 15.8099 4.75565C14.7165 3.41627 13.194 2.4958 11.4999 2.15V2C11.4999 1.60218 11.3419 1.22064 11.0606 0.93934C10.7793 0.658035 10.3978 0.5 9.99995 0.5ZM4.74995 16.37L4.16495 17.012L3.49595 17.75H16.5039L15.8334 17.012L15.2499 16.3685V9.5C15.2499 8.81056 15.1142 8.12787 14.8503 7.49091C14.5865 6.85395 14.1998 6.2752 13.7123 5.78769C13.2248 5.30018 12.646 4.91347 12.009 4.64963C11.3721 4.3858 10.6894 4.25 9.99995 4.25C9.31051 4.25 8.62782 4.3858 7.99086 4.64963C7.3539 4.91347 6.77515 5.30018 6.28764 5.78769C5.80013 6.2752 5.41342 6.85395 5.14958 7.49091C4.88574 8.12787 4.74995 8.81056 4.74995 9.5V16.37Z" fill="black"/>
</svg>
