<svg width="24" height="24" viewBox="0 0 24 24" fill="none" xmlns="http://www.w3.org/2000/svg">
<path fill-rule="evenodd" clip-rule="evenodd" d="M10.3589 0.11682C0.53397 1.49306 -3.47112 13.4058 3.52691 20.4378C10.9288 27.8756 23.5802 22.9253 23.9907 12.4308C24.2808 5.01487 17.7175 -0.913927 10.3589 0.11682ZM14.206 1.34608C26.9114 3.93004 24.9595 22.8784 11.9875 22.8833C-1.79017 22.8885 -2.61872 2.85693 11.0875 1.12593C11.7024 1.04822 13.2943 1.16066 14.206 1.34608ZM11.3608 5.72103C10.6522 6.19768 10.6398 6.32257 10.9061 10.2948C11.1564 14.0288 11.2437 14.3759 11.9326 14.3759C12.6865 14.3759 12.793 14.0528 13.052 10.9765C13.0793 10.6515 13.1404 9.98254 13.1875 9.4898C13.5086 6.13978 12.8274 4.73446 11.3608 5.72103ZM11.4974 15.972C10.5626 16.3604 10.4809 17.7898 11.3664 18.2638C12.5727 18.9094 13.8015 17.6138 13.0889 16.4474C12.8031 15.9795 12.0329 15.7494 11.4974 15.972Z" fill="#787878"/>
</svg>
