<svg width="34" height="37" viewBox="0 0 34 37" fill="none" xmlns="http://www.w3.org/2000/svg">
<path d="M2.08955 36.862C2.04387 36.8503 1.99594 36.8503 1.95026 36.862C1.39478 36.7451 0.897145 36.4413 0.541733 36.0019C0.18632 35.5626 -0.00499948 35.0149 0.000217483 34.4516C0.000217483 32.2101 0.000217483 29.9686 0.000217483 27.7271C-0.00421934 27.3961 0.0592719 27.0676 0.186831 26.7617C0.31439 26.4558 0.503352 26.1788 0.74222 25.9475C0.981089 25.7163 1.26487 25.5357 1.57631 25.4168C1.88775 25.2978 2.22034 25.2428 2.55384 25.2554H3.73005C3.73005 24.7948 3.73005 24.3649 3.73005 23.935C3.79603 22.8413 4.2805 21.8139 5.08447 21.0627C5.88845 20.3114 6.95125 19.8931 8.05573 19.8931C9.16022 19.8931 10.223 20.3114 11.027 21.0627C11.831 21.8139 12.3154 22.8413 12.3814 23.935V25.2554H13.666C13.8219 24.3047 14.2962 23.4339 15.0124 22.7836C15.6369 22.2205 16.413 21.8499 17.2461 21.7168C18.0793 21.5837 18.9335 21.694 19.7045 22.0341C20.4756 22.3742 21.1303 22.9296 21.5887 23.6324C22.0471 24.3352 22.2895 25.1552 22.2864 25.9923V26.284C22.2864 26.5296 22.2864 26.8213 22.2864 26.9902C22.2864 27.1591 22.6888 27.1591 22.9054 27.2512C23.2188 27.3759 23.49 27.5865 23.6874 27.8583C23.8847 28.1302 23.9999 28.4521 24.0197 28.7865C24.2519 30.8591 24.4995 32.9471 24.7316 35.035C24.7624 35.4249 24.6663 35.8143 24.4573 36.1459C24.2484 36.4776 23.9377 36.7339 23.5709 36.8773L23.3078 37.0002L2.08955 36.862ZM13.6041 26.4222H2.77051C1.76454 26.4222 1.22286 26.8828 1.22286 27.8653V34.1906C1.1949 34.3853 1.21272 34.5837 1.27492 34.7703C1.33712 34.957 1.44202 35.1269 1.58141 35.2666C1.72079 35.4064 1.89089 35.5122 2.07838 35.5759C2.26588 35.6396 2.46569 35.6594 2.66218 35.6338H11.1433C11.1278 35.3423 11.1278 35.0502 11.1433 34.7587C11.3754 32.6861 11.6231 30.6135 11.8707 28.5408C11.9056 28.1655 12.0638 27.8119 12.3211 27.5345C12.5784 27.2571 12.9204 27.0713 13.2945 27.0056H13.5886L13.6041 26.4222ZM17.9375 35.6338H22.7661C23.3542 35.6338 23.5709 35.4035 23.4935 34.8047C23.2769 32.8242 23.0447 30.8437 22.828 28.8479C22.828 28.418 22.5959 28.2645 22.1161 28.2645H13.7898C13.31 28.2645 13.1398 28.3873 13.0933 28.8632L12.3969 34.8508C12.3969 35.3881 12.5671 35.6338 13.1243 35.6338H17.9375ZM11.1433 25.1786C11.1433 24.6873 11.1433 24.2114 11.1433 23.7508C11.112 23.3281 10.9928 22.9163 10.7932 22.5415C10.5936 22.1667 10.3179 21.837 9.9835 21.573C9.64912 21.3091 9.26327 21.1167 8.85026 21.008C8.43724 20.8993 8.006 20.8765 7.5837 20.9413C5.43247 21.3404 4.6896 23.1214 5.04556 25.1786H11.1433ZM21.0328 27.0209C21.0328 26.5143 21.0328 26.0537 21.0328 25.5931C20.9962 25.0728 20.8265 24.5703 20.5399 24.133C20.2533 23.6957 19.8591 23.3381 19.3945 23.0939C18.9299 22.8496 18.4103 22.7268 17.8846 22.7369C17.3589 22.7471 16.8444 22.89 16.3898 23.1521C15.7484 23.5477 15.2519 24.1371 14.9733 24.8335C14.6947 25.5299 14.6488 26.2967 14.8422 27.0209H21.0328Z" fill="#5B6A46"/>
<path d="M27.0373 36.8619C26.9087 36.7939 26.8016 36.6919 26.7279 36.5673C26.6541 36.4426 26.6166 36.3002 26.6194 36.1556C26.6417 33.9772 26.3816 31.8049 25.8456 29.6922C24.917 24.7077 23.9833 19.7283 23.0444 14.754C22.8122 13.4951 22.5646 12.2515 22.3634 11.008C22.2945 10.5725 22.3209 10.1274 22.4408 9.70298C22.5245 9.36759 22.7267 9.07312 23.0107 8.87309C23.2947 8.67306 23.6416 8.58076 23.9884 8.61294H25.3658V8.18307C25.3658 6.92415 25.3658 5.64987 25.3658 4.3756C25.3527 3.29688 25.7474 2.25242 26.4722 1.44816C27.197 0.643899 28.1993 0.138202 29.2814 0.0307847C30.3458 -0.0731364 31.4111 0.219971 32.2695 0.852944C33.1279 1.48592 33.7179 2.41337 33.9243 3.45444C34.0251 4.05418 34.0251 4.66632 33.9243 5.26606C33.8701 5.70562 33.6499 6.10843 33.3081 6.39333C32.9664 6.67823 32.5285 6.82403 32.0826 6.80132C31.6509 6.79544 31.2352 6.63799 30.9094 6.35693C30.5836 6.07587 30.3687 5.68938 30.3028 5.26606C30.3028 4.97435 30.3028 4.6673 30.3028 4.3756C30.2989 4.21802 30.2341 4.06798 30.1217 3.95652C30.0094 3.84507 29.8581 3.78074 29.6993 3.77684C29.5458 3.77263 29.3968 3.82808 29.2841 3.93134C29.1713 4.0346 29.1037 4.1775 29.0957 4.32954C29.0957 5.77269 29.0957 7.20049 29.0957 8.6897H30.3183C30.5985 8.67148 30.8791 8.71929 31.1371 8.8292C31.3951 8.93912 31.6232 9.10802 31.8028 9.32213C31.9824 9.53623 32.1084 9.78946 32.1705 10.0611C32.2326 10.3328 32.229 10.6151 32.16 10.8851C31.6029 13.9557 31.0457 16.888 30.4731 19.8972C29.6064 24.503 28.7397 29.1088 27.904 33.7146C27.8342 34.4653 27.8342 35.2207 27.904 35.9714C27.9209 36.1424 27.8943 36.3149 27.8268 36.4732C27.7592 36.6314 27.6527 36.7703 27.5171 36.8772L27.0373 36.8619ZM27.223 30.2756C27.223 30.1528 27.3004 30.0913 27.3159 30.0299C27.4706 29.2316 27.6099 28.4947 27.7647 27.6349L30.4112 13.4337C30.5814 12.5125 30.7671 11.576 30.9374 10.6548C31.0302 10.0868 30.8136 9.84115 30.2564 9.84115C28.229 9.84115 26.2016 9.84115 24.1741 9.84115C23.617 9.84115 23.5551 10.1175 23.5396 10.5013C23.5256 10.6443 23.5256 10.7882 23.5396 10.9312C24.3134 15.1378 25.0976 19.3496 25.892 23.5665L27.223 30.2756ZM27.8575 8.58223C27.8575 7.43078 27.8575 6.32539 27.8575 5.20464C27.8267 4.80094 27.8267 4.39549 27.8575 3.99178C27.9215 3.55926 28.1423 3.16471 28.4784 2.88209C28.8146 2.59946 29.2432 2.44815 29.6838 2.45651C30.12 2.45823 30.5414 2.6135 30.873 2.89465C31.2046 3.17581 31.4249 3.5646 31.4945 3.99178C31.4945 4.29883 31.4945 4.59053 31.4945 4.89758C31.5057 5.04718 31.5717 5.18756 31.68 5.29221C31.7884 5.39686 31.9316 5.45855 32.0826 5.46564C32.2361 5.47412 32.3869 5.42263 32.5026 5.3222C32.6183 5.22176 32.6898 5.08036 32.7017 4.92829C32.7779 4.43493 32.7454 3.93105 32.6065 3.45133C32.4675 2.97162 32.2255 2.52747 31.8969 2.14946C31.4604 1.71882 30.9043 1.4271 30.2997 1.3116C29.6952 1.19609 29.0697 1.26205 28.5031 1.50103C27.9365 1.74002 27.4547 2.14117 27.1192 2.65322C26.7836 3.16527 26.6096 3.76495 26.6194 4.3756C26.6194 5.71128 26.6194 7.04696 26.6194 8.36729C26.6194 8.45941 26.6194 8.53617 26.6194 8.62829L27.8575 8.58223Z" fill="#5B6A46"/>
<path d="M1.85742 9.21162C1.85742 7.38973 2.40203 5.60876 3.42237 4.09392C4.44272 2.57908 5.89298 1.3984 7.58976 0.701192C9.28653 0.00398692 11.1536 -0.178428 12.9549 0.177004C14.7562 0.532436 16.4108 1.40975 17.7094 2.69802C19.0081 3.98628 19.8925 5.62765 20.2508 7.41452C20.6091 9.2014 20.4252 11.0535 19.7224 12.7367C19.0195 14.4199 17.8293 15.8586 16.3023 16.8708C14.7752 17.883 12.9799 18.4232 11.1433 18.4232C8.68054 18.4232 6.31864 17.4527 4.5772 15.7252C2.83575 13.9977 1.85742 11.6547 1.85742 9.21162ZM11.1433 1.24357C9.55163 1.23751 7.99388 1.6998 6.66705 2.57197C5.34022 3.44415 4.3039 4.68704 3.68914 6.14348C3.07438 7.59992 2.90879 9.20448 3.21331 10.7543C3.51783 12.3041 4.27878 13.7295 5.39994 14.8503C6.5211 15.971 7.95212 16.7369 9.51202 17.0509C11.0719 17.3648 12.6907 17.2129 14.1635 16.6143C15.6364 16.0157 16.8972 14.9972 17.7866 13.6878C18.676 12.3783 19.154 10.8366 19.1601 9.25767C19.1441 7.15872 18.2985 5.1498 16.8052 3.6627C15.3119 2.17561 13.2901 1.32905 11.1743 1.30498L11.1433 1.24357Z" fill="#5B6A46"/>
<path d="M10.5708 12.4665C10.5535 11.702 10.7217 10.9446 11.061 10.2579C11.4004 9.57131 11.901 8.97557 12.5208 8.52087C12.9173 8.27541 13.2299 7.91695 13.4177 7.49236C13.6054 7.06778 13.6596 6.59686 13.5732 6.14122C13.4911 5.80492 13.3374 5.48994 13.1225 5.21742C12.9075 4.9449 12.6363 4.72116 12.327 4.5612C12.0177 4.40125 11.6775 4.30878 11.3292 4.29002C10.9809 4.27126 10.6326 4.32663 10.3077 4.45242C9.83493 4.58862 9.4195 4.87323 9.1237 5.26355C8.82791 5.65387 8.66771 6.12883 8.66715 6.61714C8.67478 6.66804 8.67478 6.71977 8.66715 6.77067C8.68126 6.85839 8.67602 6.94811 8.65179 7.03363C8.62756 7.11915 8.58492 7.19844 8.5268 7.26602C8.46869 7.3336 8.39648 7.38787 8.31517 7.42508C8.23386 7.4623 8.14538 7.48158 8.05583 7.48158C7.96628 7.48158 7.8778 7.4623 7.79648 7.42508C7.71517 7.38787 7.64297 7.3336 7.58485 7.26602C7.52673 7.19844 7.48409 7.11915 7.45986 7.03363C7.43563 6.94811 7.43039 6.85839 7.44451 6.77067C7.40974 5.86728 7.72865 4.98558 8.33447 4.3102C8.94029 3.63482 9.78602 3.21815 10.6946 3.14743C11.5 3.01757 12.326 3.15668 13.0431 3.54292C13.7602 3.92916 14.3277 4.54066 14.6565 5.28146C14.8963 5.913 14.9434 6.60057 14.792 7.25849C14.6407 7.91641 14.2975 8.51561 13.8053 8.98146C13.6196 9.16569 13.403 9.33457 13.2018 9.50344C12.7668 9.84031 12.4152 10.2713 12.1738 10.7636C11.9324 11.2558 11.8076 11.7963 11.8089 12.3437C11.8089 12.5279 11.8089 12.6968 11.8089 12.881C11.805 13.0386 11.7401 13.1887 11.6277 13.3001C11.5154 13.4116 11.3641 13.4759 11.2053 13.4798C11.0463 13.48 10.8934 13.4195 10.7781 13.3109C10.6629 13.2023 10.5942 13.0539 10.5862 12.8964C10.5553 12.7889 10.5708 12.62 10.5708 12.4665Z" fill="#5B6A46"/>
<path d="M11.1586 14.7539C11.3228 14.7539 11.4803 14.8186 11.5964 14.9338C11.7124 15.0489 11.7777 15.2051 11.7777 15.368C11.7777 15.5309 11.7124 15.6871 11.5964 15.8022C11.4803 15.9174 11.3228 15.9821 11.1586 15.9821C10.9957 15.9782 10.8405 15.9123 10.7252 15.7979C10.61 15.6836 10.5435 15.5297 10.5396 15.368C10.5435 15.2064 10.61 15.0524 10.7252 14.9381C10.8405 14.8238 10.9957 14.7578 11.1586 14.7539Z" fill="#5B6A46"/>
</svg>
