<svg width="49" height="48" viewBox="0 0 49 48" fill="none" xmlns="http://www.w3.org/2000/svg">
<path fill-rule="evenodd" clip-rule="evenodd" d="M16.2817 0.085289C2.45763 0.896379 -4.82997 16.8583 3.57983 27.9059C6.12875 31.2543 10.4089 33.8498 14.2546 34.3792C14.5044 34.4136 14.7644 34.4528 14.8322 34.4664C18.3514 35.1683 23.5442 34.0421 26.6962 31.8931C27.0084 31.6802 26.7534 31.4793 28.8895 33.6206C30.1964 34.9308 30.1964 34.9308 30.1481 35.4093C30.019 36.6883 30.4138 38.1223 31.2139 39.2803C31.6158 39.8622 38.3622 46.5924 38.9107 46.9588C44.3351 50.5815 50.755 44.0053 47.0087 38.6635C46.7064 38.2324 40.0266 31.5381 39.5268 31.1652C38.3438 30.2828 36.7149 29.8597 35.2522 30.0549C34.3983 30.1689 31.4804 27.2678 31.8677 26.6899C38.0463 17.4718 33.3965 4.43908 22.6655 0.897366C21.1482 0.396587 17.7091 -0.136758 17.0835 0.0317511C17.0666 0.0363154 16.7057 0.0603704 16.2817 0.085289ZM19.3399 1.58762C27.084 2.64192 33.182 9.34479 33.182 16.8027C33.182 17.4796 33.182 17.4796 33.3516 17.547C33.4469 17.585 33.4875 17.6271 33.4441 17.6432C33.4017 17.6589 33.367 17.7002 33.367 17.7349C33.367 17.7696 33.4086 17.7821 33.4595 17.7625C33.5104 17.7431 33.5526 17.747 33.5533 17.7714C33.5783 18.6891 33.5747 18.94 33.5366 18.9165C33.5111 18.9007 33.4881 18.827 33.4855 18.7527C33.4826 18.6732 33.4669 18.6522 33.4472 18.7016C33.3717 18.8914 33.3155 18.6123 33.3489 18.2137C33.372 17.938 33.3602 17.788 33.3131 17.7588C33.2135 17.6973 33.1491 17.9031 33.2282 18.0299C33.2682 18.0939 33.2724 18.1692 33.2389 18.2221C33.2086 18.27 33.1834 18.4147 33.1829 18.5438C33.1506 26.5705 24.6442 33.9124 16.1892 33.2111C-1.88457 31.7118 -3.93345 6.1705 13.6753 1.87271C14.1245 1.7631 14.478 1.65048 14.4607 1.62247C14.4434 1.59447 14.4618 1.55154 14.5015 1.52699C14.5474 1.49856 14.5572 1.50911 14.5282 1.55598C14.4805 1.63314 14.938 1.61618 16.0041 1.50133C16.6849 1.428 18.5151 1.47531 19.3399 1.58762ZM16.0041 6.03055C14.2701 6.42678 12.9435 7.77448 12.5544 9.53519C12.5169 9.70481 12.5169 9.70481 10.5289 9.70586C7.31775 9.70759 6.37553 10.18 6.04862 11.9521C5.95487 12.4604 5.95481 23.0471 6.04856 23.556C6.24193 24.6054 7.0677 25.4714 8.10392 25.7118C8.51983 25.8082 20.8722 25.8534 21.563 25.7609C21.8663 25.7204 21.8936 25.4916 21.5943 25.4987C21.4358 25.5026 21.4352 25.504 21.5707 25.5584C21.7354 25.6246 21.7548 25.6929 21.6016 25.6672C21.4057 25.6343 21.3267 25.4338 21.509 25.4322C21.5954 25.4314 21.5998 25.4204 21.5309 25.3768C21.4618 25.333 21.4678 25.3164 21.5618 25.2924C21.6261 25.2759 21.5637 25.2592 21.4232 25.2553C21.149 25.2476 20.9719 25.5036 21.1662 25.6268C21.2232 25.663 21.2072 25.6783 21.1116 25.679C21.0088 25.6796 20.9822 25.6499 21.0005 25.5549C21.0138 25.4862 20.9983 25.4461 20.9661 25.466C20.9339 25.4858 20.9077 25.5421 20.9077 25.591C20.9077 25.6399 20.8799 25.6799 20.846 25.6799C20.7039 25.6799 20.8724 25.3731 21.0178 25.3672C21.1071 25.3635 21.1049 25.3555 21.0038 25.316C20.9069 25.278 20.9354 25.2561 21.1536 25.2007C21.5047 25.1116 21.8324 25.2294 21.8338 25.4454C21.8358 25.7381 21.8958 25.7603 22.6749 25.7571C23.8501 25.7523 23.7996 25.7587 23.7628 25.6182C23.7404 25.5328 23.6806 25.496 23.5681 25.4987C23.4095 25.5026 23.409 25.504 23.5445 25.5584C23.7092 25.6246 23.7285 25.6929 23.5753 25.6672C23.3794 25.6343 23.3005 25.4338 23.4828 25.4322C23.5692 25.4314 23.5735 25.4204 23.5047 25.3768C23.4356 25.333 23.4416 25.3164 23.5355 25.2924C23.5998 25.2759 23.5374 25.2592 23.3969 25.2553C23.1227 25.2476 22.9456 25.5036 23.14 25.6268C23.197 25.663 23.1809 25.6783 23.0854 25.679C22.9786 25.6797 22.9556 25.6508 22.9757 25.5411C23.0008 25.4048 22.999 25.405 22.874 25.5565C22.7709 25.6813 22.7549 25.6872 22.7901 25.5874C22.8141 25.5195 22.847 25.4182 22.8632 25.3622C22.9497 25.0628 23.8055 25.1383 23.8075 25.4454C23.8095 25.7413 23.8661 25.7611 24.7262 25.7669C25.5241 25.7723 25.5337 25.7707 25.5337 25.6336C25.5337 25.536 25.4971 25.4949 25.4103 25.4949C25.3424 25.4949 25.2869 25.4671 25.2869 25.4332C25.2869 25.3992 25.3355 25.3711 25.3949 25.3706C25.4775 25.3698 25.4836 25.3574 25.4205 25.3175C25.3553 25.2761 25.3604 25.2568 25.4449 25.2244C25.5073 25.2005 25.5973 25.2249 25.6621 25.2835C25.7234 25.339 25.806 25.3629 25.8477 25.3371C25.8956 25.3075 25.9069 25.3165 25.8787 25.3619C25.8248 25.4493 25.657 25.4565 25.657 25.3715C25.657 25.3376 25.6331 25.3098 25.6039 25.3098C25.5747 25.3098 25.564 25.3792 25.5802 25.464C25.6032 25.5842 25.6456 25.6169 25.7722 25.612C25.9346 25.6059 25.9346 25.6059 25.7804 25.5565C25.6262 25.5071 25.6262 25.5071 25.7891 25.501C25.9142 25.4963 25.9611 25.5309 25.9909 25.6499C26.0242 25.7823 26.0544 25.7991 26.1981 25.7649C26.45 25.705 26.5937 25.6042 26.3803 25.637C26.2862 25.6515 26.1943 25.6393 26.1762 25.6099C26.158 25.5806 26.2154 25.5565 26.3037 25.5565C26.3964 25.5565 26.46 25.5239 26.4542 25.4794C26.4332 25.3171 26.4621 25.2481 26.5514 25.2481C26.6023 25.2481 26.6439 25.2759 26.6439 25.3098C26.6439 25.3437 26.6092 25.3719 26.5668 25.3724C26.5104 25.3732 26.5122 25.3876 26.5738 25.4266C26.6333 25.4644 26.6368 25.487 26.5857 25.504C26.5448 25.5176 26.5312 25.5743 26.5545 25.6348C26.5979 25.7479 26.8261 25.7794 26.9245 25.6859C26.9567 25.6552 27.0386 25.6146 27.1065 25.5956C27.1829 25.5741 27.1665 25.5684 27.0633 25.5805C26.9665 25.5917 26.9019 25.5715 26.9091 25.532C26.9258 25.4401 27.0249 25.3727 27.1373 25.3768C27.1987 25.379 27.1883 25.3983 27.1065 25.4342C27.0182 25.4728 27.064 25.4829 27.2673 25.4697C27.7839 25.4362 28.3223 24.9585 28.6973 24.2011C29.0281 23.5328 29.119 12.4719 28.8011 11.5662C28.5371 10.814 27.9134 10.1785 27.1512 9.88492C26.5775 9.66398 23.6985 9.63536 23.7814 9.85143C23.7976 9.89355 23.7562 9.92507 23.6848 9.92507C23.6161 9.92507 23.5599 9.9033 23.5599 9.87665C23.5599 9.85001 23.5923 9.82817 23.6319 9.82817C23.6714 9.82817 23.6831 9.80739 23.6578 9.78191C23.6326 9.75644 23.3472 9.72178 23.0237 9.70481C22.4354 9.67397 22.4354 9.67397 22.3011 9.21138C21.5886 6.75707 18.8588 5.37816 16.0041 6.03055ZM18.9543 7.49002C19.8878 7.79644 20.728 8.66125 20.9413 9.53519C20.9827 9.70481 20.9827 9.70481 17.4646 9.70481C13.5329 9.70481 13.8749 9.75854 14.1274 9.18054C14.8075 7.62441 17.0118 6.85237 18.9543 7.49002ZM24.2538 9.90342C24.1637 9.94691 24.1143 10.0266 24.1132 10.1306C24.1116 10.2671 24.1021 10.2751 24.0496 10.185C23.9675 10.0441 24.1025 9.82675 24.2687 9.83237C24.3846 9.83625 24.3836 9.84088 24.2538 9.90342ZM24.3368 10.4453C24.34 10.7165 24.3176 10.9384 24.2869 10.9384C24.2562 10.9384 24.2482 10.9107 24.2692 10.8769C24.2901 10.843 24.261 10.7528 24.2045 10.6764C24.1017 10.5375 24.1017 10.5375 24.1417 10.7123C24.168 10.8274 24.1595 10.8734 24.1168 10.847C24.0156 10.7845 24.0617 10.435 24.166 10.475C24.2238 10.4972 24.2403 10.4772 24.2161 10.4141C24.1751 10.3074 24.2338 9.95135 24.2923 9.9519C24.3136 9.95209 24.3335 10.1741 24.3368 10.4453ZM23.9335 10.315C23.8953 10.3865 23.8302 10.4454 23.789 10.4459C23.7422 10.4465 23.7372 10.4638 23.7758 10.4922C23.9047 10.5869 23.9924 10.8073 23.9192 10.8526C23.8779 10.8781 23.8662 10.8683 23.8906 10.8289C23.9134 10.792 23.9038 10.7445 23.8693 10.7231C23.8348 10.7019 23.8066 10.7277 23.8066 10.7806C23.8066 10.918 23.6997 10.8993 23.6185 10.7476C23.5315 10.5852 23.5956 10.2985 23.7092 10.342C23.8222 10.3854 23.928 10.2668 23.8853 10.1445C23.8582 10.0671 23.8677 10.0603 23.9266 10.1146C23.9846 10.168 23.9863 10.2163 23.9335 10.315ZM26.9624 11.3397C27.5982 11.7805 27.5691 11.4724 27.5691 17.754C27.5691 25.3698 29.1042 24.3489 17.6179 24.3721C7.92548 24.3916 8.27582 24.4026 7.86985 24.0669C7.37184 23.6551 7.4025 24.0688 7.4025 17.754C7.4025 11.1993 7.35673 11.5414 8.27804 11.2054C8.8146 11.0097 26.6715 11.1381 26.9624 11.3397ZM10.4969 12.7351C10.0314 12.8693 10.0524 12.6309 10.0524 17.754C10.0524 22.1695 10.0564 22.3248 10.1727 22.5155C10.3384 22.7872 10.6817 22.8904 10.9908 22.7613C11.4485 22.5701 11.4212 22.8828 11.4266 17.7613C11.4319 12.6398 11.4573 12.9417 11.0052 12.7528C10.7702 12.6546 10.7752 12.6548 10.4969 12.7351ZM23.5176 12.7557C23.1128 12.9318 23.1281 12.7342 23.1281 17.7877C23.1281 22.2749 23.1305 22.3643 23.2526 22.5357C23.5098 22.897 24.0829 22.9056 24.3608 22.5523C24.5359 22.3297 24.5584 13.2293 24.3845 12.9811C24.1936 12.7085 23.8385 12.6162 23.5176 12.7557ZM16.6582 13.8116C14.8479 14.2984 13.8661 16.7363 15.4804 16.7363C15.812 16.7363 15.986 16.5578 16.225 15.9723C16.7059 14.7943 17.8757 14.4813 18.5405 15.3529C18.9781 15.9266 18.7994 16.376 17.7652 17.3041C16.8615 18.1149 16.5086 18.8525 16.7071 19.5152C16.9392 20.2897 17.885 20.1706 18.0666 19.3441C18.1781 18.8368 18.2828 18.6951 19.1462 17.8845C21.4496 15.7216 19.7716 12.9744 16.6582 13.8116ZM33.4484 18.2166C33.4484 18.4371 33.4596 18.5274 33.4733 18.4171C33.487 18.3068 33.487 18.1265 33.4733 18.0162C33.4596 17.9059 33.4484 17.9961 33.4484 18.2166ZM17.0237 20.6394C16.6178 20.8447 16.4481 21.5353 16.7189 21.8795C17.0049 22.2432 17.5218 22.3339 17.8908 22.0852C18.7571 21.5013 17.957 20.1671 17.0237 20.6394ZM22.4694 24.8626C22.4446 25.0323 22.4446 25.0323 22.5347 24.8472C22.6247 24.6622 22.6247 24.6622 22.6297 24.8626C22.6324 24.9729 22.6075 25.0631 22.5742 25.0631C22.5409 25.0631 22.4959 25.134 22.4741 25.2206C22.3956 25.5336 22.1751 25.3935 22.1535 25.0168C22.135 24.696 22.1365 24.693 22.3145 24.693C22.4754 24.693 22.4917 24.7107 22.4694 24.8626ZM22.2549 25.0323C22.2671 25.1849 22.302 25.3098 22.3325 25.3098C22.363 25.3098 22.388 25.1849 22.388 25.0323C22.388 24.8505 22.3612 24.7547 22.3104 24.7547C22.2564 24.7547 22.2396 24.8388 22.2549 25.0323ZM24.5776 25.279C24.5776 25.3412 24.536 25.4058 24.4851 25.4226C24.4053 25.449 24.4044 25.439 24.4784 25.3493C24.5541 25.2576 24.5511 25.2504 24.4528 25.288C24.3762 25.3175 24.3554 25.3083 24.3861 25.2586C24.4134 25.2146 24.3907 25.1865 24.3279 25.1865C24.2619 25.1865 24.2379 25.2196 24.2607 25.279C24.3017 25.3857 24.2048 25.4052 24.1416 25.3029C24.0831 25.2083 24.2374 25.1226 24.4234 25.1463C24.5246 25.1593 24.5776 25.2048 24.5776 25.279ZM25.1457 25.2707C25.1332 25.3086 25.1597 25.3765 25.2049 25.4216C25.3696 25.5863 25.3017 25.6804 25.0248 25.6711C24.7627 25.6624 24.7627 25.6624 24.9923 25.6249C25.1775 25.5946 25.2105 25.5695 25.1628 25.4949C25.1235 25.4333 25.1034 25.4282 25.1028 25.4794C25.1023 25.5243 25.0309 25.553 24.9323 25.5481C24.7966 25.5414 24.7892 25.5346 24.8951 25.5138C25.0226 25.4889 25.1488 25.2481 25.0344 25.2481C25.0037 25.2481 24.9785 25.2898 24.9785 25.3407C24.9785 25.3915 24.9283 25.4332 24.8668 25.4332C24.8053 25.4332 24.6946 25.4895 24.6206 25.5584C24.5088 25.6626 24.4522 25.6739 24.2852 25.6257C24.1746 25.5938 24.1258 25.5647 24.1767 25.5612C24.2589 25.5554 24.2589 25.5473 24.1767 25.4889C24.108 25.4401 24.1521 25.4327 24.3479 25.46C24.5644 25.4902 24.6189 25.4773 24.6524 25.3879C24.7341 25.1703 25.2175 25.0554 25.1457 25.2707ZM22.6119 25.3252C22.5915 25.4015 22.5743 25.5126 22.5739 25.572C22.5724 25.7558 22.1946 25.6999 22.1567 25.5103C22.1473 25.4634 22.2077 25.4335 22.3109 25.4341C22.4431 25.4348 22.4601 25.4483 22.388 25.4949C22.3089 25.5459 22.3111 25.5548 22.4034 25.5556C22.4824 25.5563 22.5113 25.5069 22.5113 25.3715C22.5113 25.2697 22.5423 25.1865 22.5802 25.1865C22.6216 25.1865 22.6342 25.242 22.6119 25.3252ZM32.582 29.9595C34.181 31.5561 34.181 31.5561 34.7146 31.5045C36.4092 31.3407 37.401 31.4869 38.3483 32.0405C38.7743 32.2894 45.4296 38.8725 45.8623 39.4729C46.8168 40.7977 46.971 42.58 46.2565 44.0296C45.8523 44.8496 45.9595 44.8575 45.0385 43.9395C44.4729 43.3757 44.2244 43.1653 44.1998 43.2293C44.1414 43.3813 43.9136 43.3426 43.9186 43.1815C43.9227 43.0491 43.9253 43.0484 43.9762 43.1661C44.022 43.2721 44.0282 43.2653 44.02 43.118C44.005 42.8495 43.2358 42.0834 43.2358 42.3371C43.2358 42.373 43.2642 42.3848 43.299 42.3634C43.3337 42.3418 43.3546 42.361 43.3452 42.406C43.3359 42.4509 43.3594 42.4819 43.3975 42.4749C43.4943 42.457 43.4296 43.0146 43.3203 43.1403C43.2736 43.1939 43.2541 43.2564 43.2767 43.2791C43.2994 43.3018 43.2776 43.3203 43.2283 43.3203C43.179 43.3203 43.1344 43.2642 43.1292 43.1956C43.1241 43.127 43.144 43.0859 43.1735 43.1041C43.2031 43.1224 43.2473 43.1048 43.2718 43.0651C43.2997 43.02 43.2898 43.0094 43.2453 43.0369C43.1954 43.0677 43.1759 43.0014 43.1803 42.8151C43.1854 42.5905 43.194 42.5732 43.2358 42.7035C43.2817 42.8471 43.2856 42.8484 43.2913 42.7226C43.2947 42.6483 43.2718 42.5716 43.2403 42.5522C43.2089 42.5327 43.1935 42.4361 43.206 42.3373C43.2185 42.2385 43.1956 42.1301 43.1551 42.0964C43.099 42.0495 43.0861 42.1469 43.101 42.5081C43.1117 42.7682 43.0978 43.0419 43.0702 43.1162C43.039 43.1999 43.0199 42.998 43.0199 42.586C43.0199 42.1127 42.9955 41.8912 42.9353 41.8187C42.8336 41.6962 42.7163 41.6832 42.7608 41.7994C42.7783 41.8448 42.7648 41.9212 42.7308 41.969C42.6819 42.0378 42.6763 42.0334 42.7037 41.9479C42.7228 41.8886 42.7134 41.84 42.6828 41.84C42.6522 41.84 42.6156 41.7637 42.6014 41.6704C42.5873 41.5771 42.5659 41.8755 42.5537 42.3334C42.5316 43.1661 42.5316 43.1661 42.4939 42.2718C42.4563 41.3774 42.4563 41.3774 42.4605 42.2873C42.4629 42.7877 42.444 43.1971 42.4185 43.1971C42.393 43.197 42.3676 42.8847 42.3618 42.5031C42.3401 41.0517 42.6282 41.5102 40.2337 39.1157C38.1302 37.0122 38.1302 37.0122 37.8177 36.9822C37.3407 36.9363 36.9818 37.3508 37.0962 37.8154C37.1536 38.0486 40.2695 41.1769 40.396 41.1283C40.4462 41.1091 40.4672 41.1134 40.4427 41.1378C40.3599 41.2207 40.5839 41.3966 40.7258 41.36C40.8461 41.3291 40.8517 41.3366 40.7765 41.4284C40.7214 41.4955 40.716 41.5316 40.761 41.5316C40.7991 41.5316 40.8302 41.5615 40.8302 41.598C40.8302 41.6345 41.0384 41.8692 41.2929 42.1195C41.7554 42.5747 41.7554 42.5747 41.7554 42.0532C41.7554 41.7663 41.7762 41.5318 41.8017 41.532C41.8272 41.5322 41.848 41.7751 41.848 42.0717C41.848 42.6454 41.8898 42.7808 42.0482 42.72C42.1242 42.6908 42.1369 42.7081 42.1035 42.7953C42.069 42.8854 42.3486 43.1976 43.4682 44.3195C44.8764 45.7305 44.8764 45.7305 44.5817 45.9118C43.1703 46.7803 41.3939 46.7983 39.9377 45.9589C39.4739 45.6916 32.965 39.2958 32.4307 38.5823C31.774 37.7054 31.5658 36.9776 31.5534 35.5163C31.5416 34.1339 31.6979 34.3957 29.7007 32.4134C28.1266 30.851 28.1266 30.851 28.3258 30.6887C28.9051 30.2168 29.6739 29.4746 30.2008 28.8787C30.7059 28.3074 30.8078 28.2195 30.8884 28.2855C30.9404 28.3281 31.7026 29.0814 32.582 29.9595ZM9.81005 28.5836C9.17228 29.2214 9.84773 29.8483 12.1491 30.755C16.2611 32.3749 20.5254 32.2044 24.4753 30.262C25.619 29.6996 25.9037 29.4631 25.9037 29.0757C25.9037 28.4562 25.2902 28.2132 24.6616 28.5838C20.419 31.0854 14.8781 31.0625 10.7305 28.5263C10.4018 28.3253 10.0462 28.3474 9.81005 28.5836ZM15.0005 33.7202C15.1597 33.9179 15.0867 34.1294 14.9247 33.9397C14.9078 33.9199 14.8384 33.8694 14.7705 33.8276C14.6523 33.7546 14.6531 33.7527 14.7895 33.7817C14.9075 33.8068 14.9192 33.7968 14.8584 33.7235C14.7745 33.6225 14.6163 33.7117 14.6163 33.86C14.6163 33.9095 14.552 33.945 14.4621 33.945C14.3773 33.945 14.3079 33.9198 14.3079 33.8891C14.3079 33.8583 14.3703 33.8448 14.4467 33.8589C14.5231 33.8731 14.5508 33.8682 14.5084 33.848C14.4116 33.802 14.4082 33.6581 14.5025 33.5999C14.5464 33.5728 14.557 33.5829 14.5302 33.6264C14.502 33.6719 14.5203 33.6839 14.5819 33.6603C14.6344 33.6401 14.6601 33.5958 14.6391 33.5618C14.5657 33.4431 14.8925 33.5864 15.0005 33.7202ZM14.987 34.1195C14.9527 34.131 14.9247 34.1674 14.9247 34.2005C14.9247 34.2336 14.9506 34.2447 14.9821 34.2252C15.0789 34.1654 15.1024 34.2791 15.0108 34.3637C14.9231 34.4448 14.8968 34.3856 14.9098 34.1355C14.9123 34.0877 14.8493 34.1293 14.7699 34.228C14.6473 34.3804 14.6132 34.3946 14.5439 34.3214C14.4989 34.2741 14.491 34.2513 14.5263 34.2708C14.5615 34.2903 14.643 34.228 14.7073 34.1323C14.8056 33.9861 14.8423 33.9695 14.9368 34.0285C14.9987 34.0672 15.0213 34.1081 14.987 34.1195ZM40.7766 40.8125C40.7389 40.8581 40.7177 40.9067 40.7296 40.9205C40.7747 40.973 40.8381 41.3133 40.7947 41.2699C40.7696 41.2448 40.7155 41.2521 40.6745 41.2862C40.6225 41.3293 40.574 41.3163 40.5146 41.2433C40.4399 41.1514 40.4424 41.1433 40.5353 41.1781C40.5936 41.2 40.6581 41.1906 40.6786 41.1573C40.6992 41.124 40.6932 41.1019 40.6652 41.1081C40.541 41.1357 40.3985 41.0125 40.3985 40.8774C40.3985 40.7488 40.4274 40.7298 40.6219 40.7298C40.8018 40.7298 40.832 40.7459 40.7766 40.8125ZM41.7356 41.2223C41.9473 41.2248 42.0023 41.4087 41.991 42.0757C41.9798 42.7344 41.9798 42.7344 41.9422 42.1176C41.8923 41.3033 41.8806 41.2822 41.4867 41.296C41.1695 41.3071 41.1695 41.3071 41.4625 41.3302C41.6236 41.3429 41.7554 41.374 41.7554 41.3992C41.7554 41.4245 41.6514 41.4377 41.5242 41.4286C41.2929 41.4121 41.2929 41.4121 41.4933 41.4808C41.6036 41.5185 41.6938 41.5663 41.6938 41.5868C41.6938 41.6367 41.2632 41.6201 41.1078 41.5643C41.0088 41.5287 41.0028 41.5332 41.077 41.5865C41.1451 41.6355 41.1482 41.6533 41.0887 41.654C41.0443 41.6545 41.027 41.6857 41.0502 41.7232C41.0796 41.7708 41.1081 41.7661 41.1441 41.7078C41.1865 41.6393 41.2149 41.6432 41.3007 41.729C41.4186 41.8468 41.1875 41.878 41.0366 41.7647C40.7959 41.5841 41.2034 41.1225 41.5396 41.195C41.6074 41.2096 41.6956 41.2219 41.7356 41.2223ZM42.804 42.6418C42.804 43.1291 42.7908 43.1971 42.6961 43.1979C42.6038 43.1987 42.6016 43.2076 42.6806 43.2586C42.7617 43.311 42.7611 43.3185 42.6755 43.3194C42.6218 43.3199 42.5596 43.3021 42.5372 43.2797C42.4893 43.2318 42.615 43.0638 42.6722 43.0994C42.6938 43.1129 42.7025 42.8905 42.6916 42.6053C42.6784 42.2647 42.6943 42.0867 42.7378 42.0867C42.7801 42.0867 42.804 42.2876 42.804 42.6418ZM44.7161 43.8138C44.7983 43.8669 44.7983 43.8743 44.7161 43.8806C44.6652 43.8846 44.693 43.91 44.7778 43.9371C44.932 43.9865 44.932 43.9865 44.7557 43.9926C44.6264 43.9971 44.5886 43.9752 44.6136 43.9102C44.6333 43.8587 44.6038 43.8099 44.5431 43.794C44.4652 43.7734 44.4621 43.7648 44.531 43.7602C44.5819 43.7568 44.6652 43.7809 44.7161 43.8138Z" fill="#5B6A46"/>
</svg>
