<svg width="314" height="314" viewBox="0 0 314 314" fill="none" xmlns="http://www.w3.org/2000/svg">
<path fill-rule="evenodd" clip-rule="evenodd" d="M112.02 80.0521C111.915 80.1576 111.828 80.3468 111.828 80.4721C111.828 80.5975 132.093 80.7316 156.862 80.7704C192.744 80.8266 201.896 80.771 201.896 80.4966C201.896 80.2226 192.821 80.1523 157.436 80.1523C132.982 80.1523 112.803 80.0865 112.594 80.0061C112.384 79.9257 112.126 79.9463 112.02 80.0521ZM211.583 80.4297C211.66 80.6589 213.135 80.7418 216.778 80.7217C221.428 80.6958 221.943 80.7412 222.768 81.2491C223.264 81.5549 223.796 81.805 223.95 81.805C224.247 81.805 224.664 82.1066 225.761 83.1133C226.132 83.4543 226.523 83.7339 226.629 83.735C227.177 83.7402 229.165 87.4652 229.165 88.4849C229.165 88.8405 229.291 89.2581 229.446 89.4126C230.078 90.045 229.56 116.293 228.906 116.786C228.805 116.861 228.506 117.39 228.241 117.96C227.694 119.135 225.85 121.071 225.029 121.332C224.728 121.427 224.482 121.621 224.482 121.762C224.482 121.903 224.275 122.019 224.022 122.019C223.769 122.019 223.366 122.187 223.127 122.393C221.987 123.374 221.285 123.396 191.527 123.396C171.064 123.396 162.233 123.484 162.233 123.688C162.233 123.893 171.124 123.955 191.912 123.895C225.489 123.798 223.248 124.01 226.745 120.607C228.09 119.299 228.482 118.741 229.48 116.721C229.609 116.458 229.716 115.993 229.716 115.688C229.716 115.383 229.84 115.133 229.991 115.133C230.171 115.133 230.267 110.588 230.267 102.05C230.267 93.5111 230.171 88.9664 229.991 88.9664C229.84 88.9664 229.716 88.5945 229.716 88.1401C229.716 87.6856 229.592 87.3137 229.44 87.3137C229.289 87.3137 229.165 87.0039 229.165 86.6251C229.165 86.2464 229.049 85.9366 228.908 85.9366C228.767 85.9366 228.573 85.6892 228.477 85.3871C228.235 84.6252 225.877 82.0804 225.413 82.0804C225.204 82.0804 225.033 81.9716 225.033 81.8388C225.033 81.7061 224.383 81.304 223.587 80.9456C221.919 80.1934 211.353 79.7395 211.583 80.4297ZM109.26 123.347C106.839 123.815 111.179 123.947 128.905 123.947C141.948 123.947 149.012 123.852 149.012 123.675C149.012 123.427 110.492 123.11 109.26 123.347Z" fill="#D073B2"/>
<path fill-rule="evenodd" clip-rule="evenodd" d="M146.923 98.1942C146.923 100.921 146.964 101.999 147.014 100.59C147.064 99.1814 147.064 96.9504 147.014 95.6324C146.963 94.3147 146.922 95.4674 146.923 98.1942ZM105.707 94.6777C106.355 94.7361 107.346 94.7353 107.91 94.6761C108.474 94.6168 107.944 94.5692 106.732 94.5703C105.521 94.5711 105.059 94.6196 105.707 94.6777ZM122.088 94.6763C122.656 94.7358 123.586 94.7358 124.154 94.6763C124.722 94.6171 124.257 94.5684 123.121 94.5684C121.985 94.5684 121.52 94.6171 122.088 94.6763ZM194.853 100.811C194.853 104.219 194.892 105.614 194.941 103.91C194.989 102.205 194.989 99.4166 194.941 97.7122C194.892 96.0081 194.853 97.4023 194.853 100.811ZM149.492 127.115C149.572 128.933 149.688 130.478 149.75 130.547C149.954 130.778 149.772 124.923 149.557 124.361C149.442 124.058 149.412 125.297 149.492 127.115ZM162.931 128.725C163.19 130.465 163.931 133.09 163.76 131.66C163.562 130.01 163.09 127.742 162.907 127.563C162.811 127.468 162.822 127.991 162.931 128.725ZM149.927 132.486C149.927 133.471 149.977 133.874 150.038 133.382C150.099 132.889 150.099 132.084 150.038 131.591C149.977 131.099 149.927 131.502 149.927 132.486ZM150.282 137.72C150.488 143.613 150.949 151.023 151.101 150.871C151.222 150.751 150.713 140.913 150.379 136.893C150.174 134.426 150.169 134.473 150.282 137.72ZM185.095 146.675C185.095 146.887 186.851 148.444 187.101 148.454C187.219 148.458 186.883 148.028 186.353 147.498C185.437 146.582 185.095 146.358 185.095 146.675ZM197.586 150.876C197.412 150.987 198.361 151.078 199.695 151.078C201.029 151.078 201.977 150.987 201.802 150.876C201.627 150.765 200.678 150.674 199.693 150.674C198.708 150.674 197.76 150.765 197.586 150.876ZM189.158 153.062C189.236 153.789 189.466 155.251 189.67 156.312C190.071 158.404 190.014 157.266 189.536 153.631C189.283 151.704 188.959 151.217 189.158 153.062ZM168.022 153.902C168.019 154.394 168.069 154.797 168.133 154.797C168.196 154.797 168.444 154.872 168.684 154.964C168.927 155.058 169.119 154.99 169.119 154.81C169.119 154.634 168.995 154.565 168.844 154.659C168.692 154.753 168.566 154.605 168.564 154.331C168.562 154.057 168.44 153.647 168.293 153.42C168.09 153.106 168.025 153.222 168.022 153.902ZM216.431 161.607C216.926 161.668 217.669 161.667 218.083 161.604C218.497 161.541 218.092 161.491 217.183 161.493C216.274 161.494 215.936 161.546 216.431 161.607ZM209.342 164.024C209.342 164.479 209.462 165.036 209.609 165.264C209.814 165.581 209.876 165.484 209.876 164.85C209.876 164.396 209.756 163.838 209.609 163.611C209.404 163.294 209.342 163.39 209.342 164.024Z" fill="#E2ADDD"/>
<path fill-rule="evenodd" clip-rule="evenodd" d="M150.214 141.546C150.304 142.667 150.447 143.653 150.532 143.738C150.617 143.823 150.606 142.968 150.508 141.839C150.409 140.709 150.266 139.723 150.189 139.647C150.112 139.572 150.123 140.426 150.214 141.546ZM177.967 145.119C177.607 145.22 178.37 145.301 179.662 145.298C180.954 145.296 181.868 145.203 181.694 145.091C181.309 144.846 178.876 144.864 177.967 145.119ZM215.491 161.342C215.317 161.453 216.224 161.549 217.506 161.555C218.789 161.56 219.612 161.476 219.337 161.368C218.67 161.105 215.889 161.087 215.491 161.342Z" fill="#B8A1E6"/>
<path fill-rule="evenodd" clip-rule="evenodd" d="M152.492 40.7648C153.426 42.3199 154.041 43.2438 154.142 43.2438C154.366 43.2438 153.358 41.5027 152.802 40.9284C152.495 40.6111 152.355 40.5376 152.492 40.7648ZM182.065 59.8883C182.065 60.0249 184.926 60.8826 185.275 60.8504C185.577 60.8228 182.862 59.8194 182.409 59.7916C182.22 59.7797 182.065 59.8232 182.065 59.8883ZM205.574 76.5071C205.399 76.6184 205.979 76.7137 206.861 76.7189C207.744 76.7239 208.406 76.6311 208.332 76.5123C208.164 76.2402 205.998 76.2361 205.574 76.5071ZM203.699 77.5483C203.265 77.9218 202.984 78.3019 203.075 78.3928C203.166 78.4839 203.571 78.2278 203.975 77.8237C204.379 77.4199 204.66 77.0398 204.599 76.9795C204.539 76.9189 204.134 77.1751 203.699 77.5483ZM247.952 98.7358C248.435 99.7156 248.876 100.472 248.932 100.416C249.055 100.293 247.389 96.9543 247.205 96.9543C247.133 96.9543 247.469 97.7561 247.952 98.7358ZM258.912 120.091C259.371 121 259.809 121.744 259.884 121.744C259.96 121.744 259.647 121 259.188 120.091C258.729 119.182 258.291 118.439 258.216 118.439C258.14 118.439 258.453 119.182 258.912 120.091ZM149.088 125.6C149.082 126.585 149.167 128.196 149.278 129.181C149.479 130.971 149.479 130.971 149.487 129.318C149.491 128.409 149.406 126.798 149.297 125.738C149.099 123.81 149.099 123.81 149.088 125.6ZM163.91 131.384C163.934 132.504 164.394 133.385 164.413 132.348C164.422 131.894 164.308 131.336 164.161 131.109C163.951 130.783 163.898 130.842 163.91 131.384ZM149.626 135.24C149.613 136.831 149.708 138.38 149.839 138.683C150.132 139.366 150.136 137.089 149.848 134.276C149.654 132.384 149.649 132.402 149.626 135.24ZM165.186 137.581C165.277 138.339 165.45 139.269 165.569 139.647C165.695 140.049 165.718 139.706 165.622 138.821C165.533 137.988 165.36 137.058 165.239 136.755C165.114 136.442 165.09 136.798 165.186 137.581ZM150.146 144.467C150.133 145.528 150.243 146.581 150.389 146.809C150.721 147.321 150.721 144.262 150.389 143.228C150.232 142.735 150.162 143.087 150.146 144.467ZM176.143 145.156C175.945 145.477 176.931 145.477 177.933 145.156C178.521 144.968 178.453 144.932 177.468 144.908C176.833 144.893 176.237 145.005 176.143 145.156ZM185.646 146.657C185.646 146.857 185.844 147.057 187.165 148.186C187.752 148.688 187.861 148.726 187.565 148.325C186.868 147.378 185.646 146.316 185.646 146.657ZM169.853 150.081C169.449 150.822 169.122 151.535 169.124 151.666C169.127 151.797 169.499 151.233 169.951 150.413C170.403 149.593 170.731 148.879 170.679 148.828C170.628 148.776 170.256 149.34 169.853 150.081ZM198.178 150.389C198.072 150.56 198.588 150.665 199.539 150.665C200.381 150.665 201.07 150.541 201.07 150.389C201.07 150.238 200.458 150.114 199.709 150.114C198.961 150.114 198.272 150.238 198.178 150.389ZM189.51 153.144C189.51 153.674 189.63 154.294 189.777 154.521C189.977 154.831 190.044 154.693 190.044 153.97C190.044 153.44 189.924 152.82 189.777 152.593C189.577 152.283 189.51 152.421 189.51 153.144ZM206.984 154.108C208.292 155.852 208.398 155.95 207.88 154.934C207.648 154.48 207.119 153.798 206.704 153.419C206.11 152.877 206.17 153.023 206.984 154.108ZM209.333 162.355C209.333 162.725 209.457 163.104 209.609 163.197C209.769 163.297 209.884 163.017 209.884 162.525C209.884 162.062 209.76 161.682 209.609 161.682C209.457 161.682 209.333 161.985 209.333 162.355ZM211.95 163.109C211.534 163.604 211.069 164.281 210.918 164.614C210.76 164.961 210.481 165.158 210.263 165.074C210.038 164.988 209.884 165.109 209.884 165.371C209.884 166.213 210.657 165.81 211.26 164.652C211.593 164.014 212.121 163.269 212.434 162.998C212.747 162.727 212.936 162.439 212.855 162.357C212.774 162.276 212.367 162.615 211.95 163.109Z" fill="#A77AD9"/>
<path fill-rule="evenodd" clip-rule="evenodd" d="M142.462 34.7401C141.965 34.8836 141.294 35.213 140.972 35.4728C139.848 36.3781 138.821 37.3829 138.821 37.5774C138.821 37.6851 138.449 38.3139 137.995 38.9744C137.54 39.6349 137.168 40.2806 137.168 40.4092C137.168 40.5378 136.921 40.8218 136.618 41.0402C136.315 41.2586 136.067 41.601 136.067 41.8013C136.067 42.0015 135.94 42.315 135.786 42.4978C135.26 43.1206 132.486 47.7091 132.486 47.9559C132.486 48.0912 132.362 48.2016 132.211 48.2016C132.059 48.2016 131.935 48.3875 131.935 48.6148C131.935 48.842 131.811 49.0279 131.66 49.0279C131.508 49.0279 131.384 49.2139 131.384 49.4411C131.384 49.6683 131.26 49.8543 131.109 49.8543C130.957 49.8543 130.833 50.0402 130.833 50.2674C130.833 50.4946 130.709 50.6806 130.558 50.6806C130.406 50.6806 130.282 50.8139 130.282 50.9767C130.282 51.1395 129.725 52.1349 129.043 53.1887C128.361 54.2425 127.804 55.2248 127.804 55.3716C127.804 55.5184 127.68 55.6385 127.528 55.6385C127.377 55.6385 127.253 55.8244 127.253 56.0516C127.253 56.2789 127.129 56.4648 126.977 56.4648C126.826 56.4648 126.702 56.6854 126.702 56.9548C126.702 57.2244 126.454 57.6236 126.151 57.842C125.848 58.0604 125.6 58.4595 125.6 58.7292C125.6 58.9985 125.507 59.2197 125.393 59.22C125.28 59.2205 124.819 59.9023 124.37 60.7349C123.921 61.5678 123.471 62.249 123.371 62.249C123.27 62.249 123.034 62.6208 122.846 63.0753C122.657 63.5298 122.394 63.9016 122.261 63.9016C122.128 63.9016 122.019 64.0862 122.019 64.3118C122.019 64.6886 121.585 65.3325 120.711 66.2539C120.522 66.4536 120.367 66.8114 120.367 67.0496C120.367 67.2876 120.251 67.4823 120.11 67.4823C119.968 67.4823 119.776 67.7242 119.682 68.0197C119.589 68.3153 118.899 69.4966 118.149 70.6449C117.399 71.7932 116.786 72.7961 116.786 72.8735C116.786 72.9509 116.538 73.2803 116.235 73.6053C115.932 73.9306 115.684 74.3592 115.684 74.5581C115.684 74.7567 115.56 74.9192 115.409 74.9192C115.257 74.9192 115.133 75.1051 115.133 75.3323C115.133 75.5596 115.024 75.7455 114.89 75.7455C114.756 75.7455 114.576 75.9625 114.489 76.2275C114.402 76.4925 114.019 77.2053 113.638 77.8113C112.308 79.928 112.33 79.8757 112.711 80.0208C114.21 80.5907 202.051 79.9773 202.306 79.395C202.456 79.0541 202.673 78.7753 202.788 78.7753C202.904 78.7753 202.998 78.6348 202.998 78.4632C202.998 77.6383 205.458 76.2964 206.971 76.2964C207.892 76.2964 209.328 76.8406 209.331 77.1915C209.332 77.3053 209.519 77.3981 209.746 77.3981C209.974 77.3981 210.16 77.5166 210.16 77.6612C210.16 77.8058 210.47 78.2338 210.848 78.6125C211.227 78.9913 211.537 79.4793 211.537 79.6972C211.537 80.0244 212.357 80.0999 216.277 80.1321C218.884 80.1533 221.332 80.2445 221.717 80.3346C222.887 80.6084 225.033 81.582 225.033 81.839C225.033 81.9718 225.204 82.0806 225.413 82.0806C225.877 82.0806 228.235 84.6254 228.477 85.3872C228.573 85.6894 228.767 85.9367 228.908 85.9367C229.049 85.9367 229.165 86.2466 229.165 86.6253C229.165 87.004 229.289 87.3139 229.44 87.3139C229.592 87.3139 229.716 87.6857 229.716 88.1402C229.716 88.5947 229.84 88.9665 229.991 88.9665C230.171 88.9665 230.267 93.5113 230.267 102.05C230.267 110.588 230.171 115.133 229.991 115.133C229.84 115.133 229.716 115.383 229.716 115.688C229.716 115.993 229.609 116.458 229.48 116.721C228.482 118.741 228.09 119.299 226.745 120.608C223.25 124.008 225.453 123.799 192.187 123.888C162.784 123.966 162.784 123.966 162.784 125.058C162.784 125.659 162.908 126.151 163.06 126.151C163.211 126.151 163.335 126.701 163.335 127.374C163.335 128.047 163.446 128.666 163.581 128.75C163.717 128.833 163.898 129.367 163.984 129.936C164.211 131.444 164.635 133.782 164.994 135.516C165.167 136.349 165.488 137.96 165.707 139.096C165.926 140.233 166.23 141.72 166.383 142.402C166.535 143.083 166.733 144.292 166.822 145.087C166.911 145.883 167.093 146.533 167.225 146.533C167.358 146.533 167.467 147.084 167.467 147.756C167.467 148.429 167.591 149.056 167.742 149.15C167.894 149.244 168.018 149.87 168.018 150.543C168.018 151.216 168.141 151.767 168.293 151.767C168.444 151.767 168.577 152.046 168.587 152.386C168.608 153.078 168.528 153.218 169.611 150.583C170.13 149.321 172.698 146.533 173.341 146.533C173.595 146.533 173.802 146.409 173.802 146.258C173.802 146.106 173.988 145.982 174.215 145.982C174.442 145.982 174.628 145.858 174.628 145.707C174.628 145.555 174.93 145.431 175.3 145.431C175.67 145.431 176.049 145.308 176.143 145.156C176.24 144.998 177.661 144.881 179.464 144.881C181.382 144.881 182.616 144.989 182.616 145.156C182.616 145.308 182.988 145.431 183.442 145.431C183.897 145.431 184.268 145.555 184.268 145.707C184.268 145.858 184.454 145.982 184.682 145.982C184.909 145.982 185.095 146.106 185.095 146.258C185.095 146.409 185.262 146.533 185.467 146.533C186.122 146.533 188.4 148.995 188.4 149.704C188.4 149.929 188.524 150.114 188.675 150.114C188.827 150.114 188.951 150.362 188.951 150.665C188.951 150.968 189.045 151.216 189.159 151.216C189.53 151.216 190.053 153.37 190.053 154.896C190.053 156.639 190.697 157.565 190.968 156.211C191.055 155.773 191.319 155.222 191.554 154.987C191.789 154.752 191.981 154.486 191.981 154.396C191.981 154.037 194.471 151.767 194.866 151.767C195.097 151.767 195.287 151.674 195.288 151.56C195.291 151.255 196.678 150.665 197.39 150.665C197.73 150.665 198.084 150.541 198.178 150.389C198.272 150.238 198.961 150.114 199.709 150.114C200.458 150.114 201.07 150.238 201.07 150.389C201.07 150.541 201.504 150.665 202.034 150.665C202.564 150.665 202.998 150.789 202.998 150.94C202.998 151.092 203.246 151.216 203.549 151.216C203.852 151.216 204.1 151.34 204.1 151.491C204.1 151.643 204.283 151.767 204.506 151.767C205.663 151.767 208.782 155.766 208.782 157.25C208.782 157.549 208.906 157.87 209.058 157.964C209.209 158.058 209.333 158.932 209.333 159.908C209.333 160.907 209.454 161.682 209.609 161.682C209.761 161.682 209.884 162.409 209.884 163.312C209.884 165.38 210.291 165.54 211.385 163.904C211.847 163.212 212.504 162.524 212.845 162.375C213.186 162.225 213.465 162.008 213.465 161.892C213.465 161.777 213.713 161.682 214.016 161.682C214.319 161.682 214.567 161.558 214.567 161.407C214.567 161.241 215.714 161.131 217.459 161.131C219.203 161.131 220.351 161.241 220.351 161.407C220.351 161.558 220.599 161.682 220.902 161.682C221.205 161.682 221.453 161.806 221.453 161.958C221.453 162.109 221.619 162.233 221.821 162.233C222.294 162.233 222.83 161.063 222.83 160.033C222.83 159.595 222.954 159.159 223.105 159.066C223.257 158.972 223.381 158.469 223.381 157.948C223.381 157.426 223.505 157 223.656 157C223.808 157 223.932 156.628 223.932 156.174C223.932 155.719 224.056 155.347 224.207 155.347C224.358 155.347 224.482 155.161 224.482 154.934C224.482 154.707 224.606 154.521 224.758 154.521C224.909 154.521 225.035 154.366 225.037 154.177C225.042 153.654 227.92 151.767 228.712 151.767C229.095 151.767 229.484 151.643 229.578 151.491C229.672 151.34 230.113 151.216 230.558 151.216C231.004 151.216 231.368 151.092 231.368 150.94C231.368 150.789 231.802 150.665 232.332 150.665C232.863 150.665 233.296 150.554 233.296 150.419C233.296 150.285 233.699 150.108 234.192 150.026C235.664 149.782 236.707 149.535 237.29 149.292C238.378 148.838 245.686 146.884 247.275 146.621C247.767 146.54 248.17 146.362 248.17 146.228C248.17 146.093 248.597 145.982 249.118 145.982C249.639 145.982 250.142 145.858 250.236 145.707C250.33 145.555 250.763 145.431 251.2 145.431C251.637 145.431 252.07 145.308 252.164 145.156C252.258 145.005 252.691 144.881 253.128 144.881C253.565 144.881 253.99 144.77 254.073 144.635C254.157 144.501 254.629 144.329 255.123 144.255C260.068 143.506 265.247 141.058 265.247 139.469C265.247 139.264 265.371 139.096 265.523 139.096C265.674 139.096 265.798 138.786 265.798 138.408C265.798 138.029 265.922 137.719 266.074 137.719C266.226 137.719 266.349 136.99 266.349 136.083C266.349 135.183 266.225 134.37 266.074 134.276C265.922 134.183 265.798 133.866 265.798 133.571C265.798 133.277 265.674 133.037 265.523 133.037C265.371 133.037 265.247 132.789 265.247 132.486C265.247 132.183 265.123 131.935 264.972 131.935C264.82 131.935 264.696 131.698 264.696 131.407C264.696 131.117 264.603 130.838 264.49 130.787C264.244 130.678 261.667 125.475 261.667 125.088C261.667 124.94 261.574 124.778 261.46 124.728C261.346 124.677 260.396 122.963 259.349 120.917C258.301 118.872 257.216 116.792 256.938 116.296C256.661 115.798 256.433 115.21 256.433 114.987C256.433 114.764 256.309 114.582 256.158 114.582C256.006 114.582 255.882 114.334 255.882 114.031C255.882 113.728 255.782 113.481 255.659 113.481C255.535 113.481 255.264 113.047 255.056 112.517C254.848 111.986 254.577 111.552 254.454 111.552C254.331 111.552 254.23 111.305 254.23 111.002C254.23 110.699 254.106 110.451 253.954 110.451C253.803 110.451 253.679 110.203 253.679 109.9C253.679 109.597 253.555 109.349 253.403 109.349C253.252 109.349 253.128 109.211 253.128 109.043C253.128 108.674 250.722 103.813 250.356 103.441C250.214 103.297 250.098 102.956 250.098 102.683C250.098 102.411 249.974 102.188 249.823 102.188C249.671 102.188 249.547 102.092 249.547 101.975C249.547 101.858 248.866 100.466 248.032 98.8823C247.199 97.2986 246.518 95.8451 246.518 95.6523C246.518 95.4595 246.394 95.3016 246.242 95.3016C246.091 95.3016 245.967 95.0537 245.967 94.7507C245.967 94.4478 245.843 94.1999 245.691 94.1999C245.54 94.1999 245.416 93.952 245.416 93.649C245.416 93.346 245.315 93.0981 245.192 93.0981C245.068 93.0981 244.797 92.6643 244.589 92.1341C244.382 91.6039 244.11 91.17 243.987 91.17C243.864 91.17 243.763 91.0089 243.763 90.8117C243.763 90.3052 243.115 88.9712 242.868 88.9687C242.754 88.9676 242.661 88.7847 242.661 88.5627C242.661 88.3407 242.228 87.3698 241.697 86.4052C241.167 85.4406 240.733 84.5017 240.733 84.3185C240.733 84.1353 240.485 83.7194 240.182 83.3944C239.879 83.0691 239.632 82.6405 239.632 82.4417C239.632 82.2431 239.508 82.0806 239.356 82.0806C239.205 82.0806 239.081 81.9065 239.081 81.6936C239.081 80.4646 237.022 77.8319 235.452 77.0524C234.278 76.4699 231.009 75.47 230.278 75.47C229.969 75.47 229.716 75.3461 229.716 75.1946C229.716 75.0431 229.344 74.9192 228.889 74.9192C228.435 74.9192 228.063 74.7952 228.063 74.6437C228.063 74.4922 227.753 74.3683 227.375 74.3683C226.996 74.3683 226.686 74.2443 226.686 74.0929C226.686 73.9414 226.314 73.8174 225.86 73.8174C225.405 73.8174 225.033 73.6935 225.033 73.542C225.033 73.3905 224.729 73.2665 224.358 73.2665C223.986 73.2665 223.397 73.1508 223.049 73.0095C222.701 72.8682 221.301 72.4193 219.938 72.0119C218.574 71.6045 217.211 71.1704 216.908 71.0476C216.605 70.9245 215.861 70.6766 215.255 70.4964C214.649 70.3163 213.938 70.0604 213.675 69.9274C213.412 69.7946 212.885 69.6858 212.505 69.6858C212.124 69.6858 211.812 69.5619 211.812 69.4104C211.812 69.2589 211.51 69.135 211.14 69.135C210.77 69.135 210.391 69.011 210.297 68.8595C210.204 68.708 209.825 68.5841 209.455 68.5841C209.085 68.5841 208.782 68.4601 208.782 68.3086C208.782 68.1572 208.409 68.0332 207.952 68.0332C207.496 68.0332 206.907 67.9228 206.644 67.7875C205.788 67.3476 199.985 65.5543 199.418 65.5543C199.115 65.5543 198.867 65.4303 198.867 65.2788C198.867 65.1273 198.502 65.0034 198.057 65.0034C197.611 65.0034 197.17 64.8794 197.076 64.7279C196.983 64.5764 196.611 64.4525 196.25 64.4525C195.889 64.4525 195.517 64.3286 195.424 64.1771C195.33 64.0256 194.889 63.9016 194.443 63.9016C193.998 63.9016 193.633 63.7777 193.633 63.6262C193.633 63.4747 193.331 63.3507 192.961 63.3507C192.591 63.3507 192.212 63.2268 192.118 63.0753C192.025 62.9238 191.666 62.7999 191.322 62.7999C190.977 62.7999 190.602 62.707 190.489 62.5936C190.375 62.4801 189.704 62.2416 188.997 62.0633C188.29 61.8854 187.154 61.5516 186.472 61.3213C185.79 61.0913 184.303 60.6286 183.167 60.2928C182.03 59.9573 180.983 59.5783 180.839 59.4511C180.695 59.3236 180.23 59.2192 179.806 59.2192C179.382 59.2192 179.035 59.0952 179.035 58.9437C179.035 58.7922 178.663 58.6683 178.209 58.6683C177.754 58.6683 177.382 58.5443 177.382 58.3929C177.382 58.2414 177.011 58.1174 176.556 58.1174C176.102 58.1174 175.73 58.0075 175.73 57.8731C175.73 57.739 175.389 57.5649 174.972 57.4864C174.227 57.3459 172.802 56.927 170.083 56.0491C169.326 55.8046 168.21 55.4666 167.604 55.298C166.998 55.1297 166.385 54.8893 166.241 54.7642C166.097 54.6392 165.632 54.5367 165.208 54.5367C164.784 54.5367 164.437 54.4128 164.437 54.2613C164.437 54.1098 164.065 53.9858 163.611 53.9858C163.156 53.9858 162.784 53.8619 162.784 53.7104C162.784 53.5589 162.536 53.435 162.233 53.435C161.93 53.435 161.682 53.311 161.682 53.1595C161.682 53.008 161.492 52.8841 161.26 52.8841C160.506 52.8841 157.551 49.3777 157.551 48.4828C157.551 48.3283 157.427 48.2016 157.275 48.2016C157.124 48.2016 157 47.981 157 47.7116C157 47.442 156.752 47.0429 156.449 46.8244C156.146 46.606 155.898 46.2689 155.898 46.075C155.898 45.8813 155.774 45.7227 155.623 45.7227C155.471 45.7227 155.347 45.5368 155.347 45.3095C155.347 45.0823 155.223 44.8964 155.072 44.8964C154.92 44.8964 154.796 44.7713 154.796 44.6184C154.796 44.4656 154.115 43.2947 153.282 42.0164C152.448 40.7381 151.767 39.5617 151.767 39.4022C151.767 39.2427 151.643 39.1121 151.491 39.1121C151.34 39.1121 151.216 38.9262 151.216 38.699C151.216 38.4718 151.1 38.2858 150.959 38.2858C150.818 38.2858 150.62 38.028 150.52 37.7129C149.781 35.3852 145.588 33.8383 142.462 34.7401ZM109.244 124.705C109.344 125.121 109.532 125.671 109.663 125.926C109.793 126.181 109.9 126.646 109.9 126.959C109.9 127.272 110.024 127.528 110.175 127.528C110.327 127.528 110.451 127.765 110.451 128.056C110.451 128.377 110.774 128.726 111.277 128.949C111.732 129.151 112.104 129.409 112.104 129.523C112.104 129.638 112.351 129.731 112.654 129.731C112.957 129.731 113.205 129.855 113.205 130.007C113.205 130.158 113.391 130.282 113.618 130.282C113.846 130.282 114.032 130.406 114.032 130.558C114.032 130.709 114.269 130.833 114.56 130.833C114.85 130.833 115.129 130.93 115.179 131.048C115.289 131.306 119.784 133.863 120.127 133.863C120.259 133.863 120.367 133.987 120.367 134.138C120.367 134.29 120.615 134.414 120.918 134.414C121.221 134.414 121.468 134.517 121.468 134.643C121.468 134.769 121.809 135.047 122.226 135.262C122.642 135.477 123.045 135.716 123.121 135.794C123.197 135.872 123.879 136.243 124.636 136.617C125.393 136.992 126.075 137.372 126.151 137.462C126.276 137.609 127.127 138.074 128.834 138.926C129.174 139.095 129.453 139.327 129.454 139.441C129.455 139.554 129.642 139.647 129.869 139.647C130.097 139.647 130.282 139.771 130.282 139.923C130.282 140.074 130.53 140.198 130.833 140.198C131.136 140.198 131.384 140.322 131.384 140.474C131.384 140.625 131.632 140.749 131.935 140.749C132.238 140.749 132.486 140.873 132.486 141.024C132.486 141.176 132.595 141.3 132.728 141.3C132.991 141.3 135.996 143.031 136.537 143.494C136.72 143.651 137.061 143.779 137.295 143.779C137.528 143.779 137.719 143.903 137.719 144.054C137.719 144.206 137.967 144.33 138.27 144.33C138.573 144.33 138.821 144.454 138.821 144.605C138.821 144.757 139.007 144.881 139.234 144.881C139.461 144.881 139.647 145.005 139.647 145.156C139.647 145.308 139.833 145.431 140.061 145.431C140.288 145.431 140.474 145.555 140.474 145.707C140.474 145.858 140.66 145.982 140.887 145.982C141.114 145.982 141.3 146.106 141.3 146.258C141.3 146.409 141.461 146.533 141.658 146.533C142.165 146.533 143.499 147.181 143.501 147.428C143.502 147.542 143.617 147.635 143.756 147.635C143.895 147.635 144.952 148.193 146.105 148.874C147.258 149.556 148.322 150.114 148.469 150.114C148.616 150.114 148.737 150.238 148.737 150.389C148.737 150.541 148.985 150.665 149.288 150.665C149.591 150.665 149.839 150.789 149.839 150.94C149.839 151.092 150.034 151.216 150.273 151.216C150.646 151.216 150.684 150.897 150.544 148.943C150.221 144.445 149.861 138.875 149.607 134.414C148.935 122.661 151.467 123.947 128.996 123.947C109.063 123.947 109.063 123.947 109.244 124.705Z" fill="#87986A"/>
<path fill-rule="evenodd" clip-rule="evenodd" d="M67.207 95.2406C65.1688 95.4248 63.6839 96.7221 64.7537 97.3835C65.1575 97.633 68.357 96.9411 68.7899 96.5103C69.5683 95.7369 68.7729 95.0987 67.207 95.2406ZM59.5829 98.1676C57.635 99.2482 56.6957 101.086 58.0914 101.086C58.7163 101.086 60.8719 99.9787 60.8719 99.6575C60.8719 99.5344 61.0578 99.4333 61.2851 99.4333C61.5605 99.4333 61.6982 99.1578 61.6982 98.607C61.6982 97.6845 60.7929 97.4967 59.5829 98.1676ZM53.5932 103.358C53.1987 103.851 52.7539 104.403 52.6046 104.586C52.0538 105.262 52.2824 106.319 52.9792 106.319C53.5753 106.319 54.5368 105.576 54.5368 105.114C54.5368 105.006 54.8467 104.607 55.2254 104.228C56.0041 103.45 56.0512 103.261 55.5835 102.794C55.0216 102.232 54.341 102.425 53.5932 103.358ZM49.9208 109.131C49.5426 109.587 48.762 111.811 48.7568 112.448C48.7466 113.664 50.267 113.01 50.9189 111.517C51.805 109.488 51.0743 107.741 49.9208 109.131ZM47.9952 116.142C47.4605 116.358 47.5338 120.014 48.0836 120.563C48.808 121.288 49.2663 120.497 49.331 118.412C49.4032 116.094 49.1556 115.674 47.9952 116.142ZM48.1588 124.429C48.0142 126.988 49.6258 129.437 50.2992 127.683C50.5096 127.134 49.8604 124.131 49.4778 123.883C48.7777 123.429 48.202 123.667 48.1588 124.429ZM95.0952 126.609C94.9059 126.685 94.7509 126.978 94.7509 127.259C94.7509 127.541 94.6269 127.848 94.4754 127.941C94.3239 128.035 94.2 128.469 94.2 128.905C94.2 129.342 94.0752 129.776 93.9223 129.871C93.6009 130.069 94.2584 130.833 94.7509 130.833C95.1847 130.833 95.8526 130.127 95.8526 129.668C95.8526 129.461 95.9724 129.171 96.1187 129.025C96.4564 128.687 96.5773 127.206 96.3035 126.763C96.0892 126.416 95.6964 126.366 95.0952 126.609ZM50.6807 131.548C50.6807 132.42 52.3823 134.965 52.9652 134.965C54.1435 134.965 54.0793 133.557 52.8401 132.227C52.5614 131.927 52.3333 131.492 52.3333 131.258C52.3333 130.97 52.0678 130.833 51.507 130.833C50.8011 130.833 50.6807 130.937 50.6807 131.548ZM90.9829 134.221C89.3269 136.04 89.0564 137.168 90.275 137.169C91.2864 137.171 93.1368 135.137 93.0324 134.139C92.9217 133.078 91.989 133.115 90.9829 134.221ZM55.5221 137.222C54.8687 138.154 56.7759 140.175 58.3241 140.189C60.0073 140.206 59.1075 138.318 56.7863 136.962C56.0201 136.514 56.0173 136.515 55.5221 137.222ZM86.0057 138.882C85.6647 139.046 85.3859 139.271 85.3859 139.38C85.3859 139.491 85.0141 139.735 84.5596 139.923C83.9121 140.191 83.7333 140.437 83.7333 141.058C83.7333 141.755 83.8327 141.851 84.5596 141.851C85.0141 141.851 85.3859 141.757 85.3859 141.643C85.3859 141.528 85.7886 141.257 86.2811 141.04C87.436 140.531 87.8649 140.092 87.8649 139.421C87.8649 138.594 87.0763 138.365 86.0057 138.882ZM62.0288 141.08C61.0595 142.049 62.2968 143.242 64.6801 143.637C65.9298 143.844 66.4038 142.65 65.2789 142.128C65.0517 142.023 64.5887 141.793 64.2499 141.618C63.9111 141.443 63.4462 141.3 63.217 141.3C62.9876 141.3 62.8 141.176 62.8 141.025C62.8 140.651 62.4309 140.677 62.0288 141.08ZM79.6017 142.126C79.6017 142.278 79.307 142.402 78.9467 142.402C76.4951 142.402 75.4264 144.128 77.7852 144.278C80.1077 144.425 81.8201 143.147 80.5468 142.216C79.9521 141.781 79.6017 141.748 79.6017 142.126ZM69.0409 143.558C68.7751 144.575 69.3144 144.881 71.3722 144.881C74.0084 144.881 74.378 143.438 71.8206 143.131C69.5011 142.852 69.2139 142.897 69.0409 143.558Z" fill="#F7DC78"/>
<path fill-rule="evenodd" clip-rule="evenodd" d="M204.699 79.137C204.056 79.8209 203.945 80.1522 204.357 80.1522C204.498 80.1522 204.692 79.9043 204.789 79.6013C204.885 79.2984 205.141 79.0505 205.358 79.0505C205.575 79.0505 205.753 78.9265 205.753 78.775C205.753 78.3184 205.333 78.4627 204.699 79.137ZM89.5668 80.0831C93.6086 80.1261 100.302 80.1261 104.441 80.0831C108.58 80.0404 105.273 80.0051 97.0921 80.0051C88.9116 80.0051 85.5253 80.0401 89.5668 80.0831ZM80.4281 80.3368C79.383 80.6932 77.6249 81.574 77.0853 82.0112C76.0387 82.8592 74.3519 84.6344 74.4753 84.7578C74.5408 84.8234 75.1355 84.3408 75.7966 83.6853C77.6817 81.8161 78.2133 81.4746 80.2812 80.8045C81.3466 80.4593 81.9085 80.1811 81.5298 80.1864C81.1511 80.1916 80.6553 80.2591 80.4281 80.3368ZM202.459 82.5623C202.453 82.9033 202.541 83.1821 202.656 83.1821C202.77 83.1821 203.024 83.5429 203.219 83.9839C203.845 85.3991 207.07 86.4606 208.232 85.634C208.544 85.4117 208.395 85.3745 207.623 85.4814C205.553 85.7679 204.065 84.9746 203.051 83.0443C202.585 82.1585 202.469 82.064 202.459 82.5623ZM210.14 83.9726C209.766 84.3981 209.277 84.8113 209.053 84.8906C208.828 84.9699 208.733 85.1302 208.842 85.2467C208.951 85.3635 209.494 85.0046 210.049 84.4491C210.605 83.8935 211.005 83.3851 210.939 83.3189C210.873 83.2526 210.513 83.5467 210.14 83.9726ZM205.753 84.0084C205.753 84.1599 206.179 84.2838 206.7 84.2838C207.222 84.2838 207.725 84.1599 207.818 84.0084C207.921 83.842 207.546 83.7329 206.871 83.7329C206.256 83.7329 205.753 83.8569 205.753 84.0084ZM72.3858 92.7535C72.3558 93.9275 72.3164 95.384 72.2982 95.9899C72.2798 96.5959 72.3453 100.81 72.4434 105.355C72.6218 113.618 72.6218 113.618 72.6689 102.118C72.71 92.0705 72.5436 86.5746 72.3858 92.7535ZM102.454 92.8913C102.372 96.0921 102.495 108.352 102.612 108.541C102.852 108.929 103.828 108.849 104.273 108.404C104.564 108.113 104.667 107.255 104.667 105.099C104.667 102.187 104.667 102.187 106.732 102.187C108.385 102.187 108.798 102.27 108.798 102.6C108.798 102.828 108.922 103.014 109.074 103.014C109.447 103.014 109.421 102.645 109.019 102.242C108.58 101.804 104.885 101.804 104.446 102.242C104.232 102.457 104.116 103.571 104.116 105.41C104.116 108.247 104.116 108.247 103.427 108.247C102.739 108.247 102.739 108.247 102.739 100.509C102.739 92.7706 102.739 92.7706 106.664 92.8709C110.679 92.9731 111.616 93.2003 112.766 94.3505C113.007 94.5921 113.205 94.6722 113.205 94.5285C113.205 94.1974 112.785 93.8569 111.475 93.1273C110.218 92.4266 102.471 92.2241 102.454 92.8913ZM117.504 92.9827C117.142 93.9253 117.338 107.813 117.72 108.316C118.341 109.134 127.33 109.036 127.913 108.204C128.861 106.851 128.206 106.594 123.8 106.594C120.122 106.594 116.914 101.829 120.436 101.595C120.777 101.573 122.415 101.542 124.076 101.527C127.237 101.497 128.1 101.078 127.613 99.8067C127.439 99.355 120.918 99.2525 120.918 99.7015C120.918 99.8524 121.276 99.8981 121.737 99.8062C123.46 99.4616 127.253 99.9797 127.253 100.559C127.253 101.049 127.011 101.086 123.741 101.094C119.244 101.106 119.265 101.091 119.265 104.185C119.265 107.037 118.973 106.87 123.94 106.87C127.778 106.87 128.199 106.98 127.878 107.903C126.029 113.202 117.888 107.198 117.888 100.535C117.888 92.8224 117.888 92.8224 122.708 92.8224C127.528 92.8224 127.528 92.8224 127.528 93.511C127.528 94.1996 127.528 94.1996 123.947 94.1996C121.513 94.1996 120.367 94.2971 120.367 94.5045C120.367 94.6722 120.563 94.7342 120.802 94.6422C121.042 94.5502 122.622 94.4731 124.314 94.4709C127.781 94.4659 128.237 94.3158 127.973 93.265C127.747 92.3635 117.844 92.0963 117.504 92.9827ZM147.084 92.7841C147.084 92.9147 147.383 92.9643 147.748 92.8946C148.896 92.675 149.068 93.4801 148.966 98.6052C148.916 101.153 148.967 103.18 149.081 103.109C149.326 102.957 149.355 94.0663 149.114 93.1667C148.948 92.5478 147.084 92.1966 147.084 92.7841ZM157 92.8051C157 92.9472 157.44 92.9918 157.979 92.9042C158.958 92.7456 158.958 92.7456 158.874 98.9561C158.828 102.372 158.882 105.023 158.993 104.847C159.92 103.386 159.135 92.547 158.102 92.547C157.496 92.547 157 92.6632 157 92.8051ZM163.335 93.0152C163.335 93.3793 163.409 93.4099 163.666 93.1529C163.896 92.9224 165.385 92.8224 168.594 92.8224C173.323 92.8224 173.526 92.8687 173.526 93.9467C173.526 94.0861 171.889 94.212 169.877 94.2271C167.621 94.2439 166.49 94.3387 166.916 94.475C168.049 94.8381 173.096 94.7956 173.471 94.4199C174.98 92.9108 174.028 92.547 168.568 92.547C163.826 92.547 163.335 92.591 163.335 93.0152ZM179.104 92.883C178.471 93.1885 178.264 93.6487 178.76 93.6487C178.911 93.6487 179.035 93.5248 179.035 93.3733C179.035 93.2218 179.252 93.0959 179.517 93.0937C179.782 93.0912 180.185 92.9692 180.412 92.8224C181.01 92.4362 179.926 92.4866 179.104 92.883ZM185.048 93.1083C186.15 93.7801 187.118 94.6888 187.53 95.4391C187.799 95.9288 187.833 95.9354 187.841 95.4988C187.849 94.9865 186.459 93.4859 185.425 92.8913C184.417 92.3115 184.069 92.5117 185.048 93.1083ZM190.053 93.3182C190.053 94.5221 190.501 94.7505 192.862 94.7505C195.011 94.7505 195.011 94.7505 195.011 101.338C195.011 108.336 195.062 108.798 195.844 108.798C197.242 108.798 197.214 108.946 197.214 101.607C197.214 94.7505 197.214 94.7505 199.384 94.7505C201.799 94.7505 202.359 94.4337 202.06 93.2391C201.77 92.0831 190.053 92.1602 190.053 93.3182ZM201.847 93.5799C201.932 94.1806 201.864 94.1996 199.604 94.1996C196.708 94.1996 196.939 93.5531 196.939 101.659C196.939 108.247 196.939 108.247 196.117 108.247C195.295 108.247 195.295 108.247 195.222 101.292C195.148 94.3373 195.148 94.3373 192.876 94.2574C190.662 94.1795 190.603 94.1597 190.603 93.4942C190.603 92.4646 201.7 92.5492 201.847 93.5799ZM141.281 93.9478C141.77 94.4153 142.243 94.7257 142.331 94.6378C142.512 94.4569 141.02 93.0987 140.639 93.0981C140.503 93.0981 140.792 93.4804 141.281 93.9478ZM104.283 94.6353C103.971 95.4473 104.101 99.8585 104.446 100.204C104.858 100.615 109.9 100.666 109.9 100.259C109.9 100.095 108.844 99.9838 107.283 99.9838C104.667 99.9838 104.667 99.9838 104.667 97.1878C104.667 94.3921 104.667 94.3921 107.559 94.5557C109.304 94.6546 110.451 94.6166 110.451 94.4596C110.451 93.9674 104.474 94.1376 104.283 94.6353ZM119.449 94.3833C119.148 94.6838 119.234 99.4329 119.54 99.4329C119.704 99.4329 119.816 98.3772 119.816 96.8163C119.816 94.1988 119.792 94.0398 119.449 94.3833ZM138.546 94.475C138.546 94.6265 138.748 94.7505 138.995 94.7505C139.243 94.7505 139.677 95.0182 139.961 95.3454C140.245 95.6729 140.54 95.8776 140.617 95.8004C140.694 95.7233 140.429 95.3316 140.027 94.9301C139.291 94.1941 138.546 93.9652 138.546 94.475ZM177.176 94.629C176.743 95.0992 176.725 97.893 177.151 98.6879C177.586 99.5012 178.199 100.085 178.404 99.8805C178.497 99.7877 178.297 99.4726 177.96 99.1804C177.211 98.5309 176.853 96.0161 177.371 95.0474C177.762 94.3161 177.662 94.101 177.176 94.629ZM111.111 95.3606C111.776 96.4866 111.694 98.5576 110.958 99.1958C110.63 99.4798 110.438 99.7877 110.531 99.8805C110.624 99.9733 110.872 99.8772 111.083 99.6665C112.313 98.4367 112.44 96.6568 111.385 95.4391C110.702 94.6516 110.689 94.648 111.111 95.3606ZM184.819 95.0259C184.819 95.1774 184.912 95.3022 185.026 95.303C185.14 95.3041 185.444 95.6759 185.702 96.1293C186.086 96.8041 186.336 96.946 187.079 96.9099C187.987 96.8658 187.987 96.8658 187.078 96.7537C186.366 96.6659 186.073 96.4378 185.719 95.6961C185.288 94.7918 184.819 94.4428 184.819 95.0259ZM165.351 96.954C165.351 97.9387 165.401 98.3416 165.462 97.8492C165.523 97.3567 165.523 96.5513 165.462 96.0588C165.401 95.5663 165.351 95.9693 165.351 96.954ZM133.092 96.767C132.212 99.2021 132.803 104.671 134.067 105.788C134.615 106.273 134.691 106.299 134.343 105.884C134.079 105.569 133.863 105.177 133.863 105.012C133.863 104.847 133.717 104.664 133.539 104.604C133.007 104.427 132.89 98.4576 133.39 97.0228C133.615 96.3791 133.714 95.8522 133.611 95.8522C133.508 95.8522 133.274 96.2637 133.092 96.767ZM143.09 100.672C143.09 102.992 143.183 104.832 143.297 104.761C143.564 104.597 143.56 97.1933 143.293 96.7736C143.182 96.5989 143.09 98.3532 143.09 100.672ZM113.481 98.8821C113.481 99.185 113.371 99.4329 113.237 99.4329C113.104 99.4329 112.93 99.6778 112.852 99.9769C112.774 100.276 112.263 100.784 111.718 101.106C111.173 101.428 110.726 101.841 110.726 102.024C110.726 102.464 111.533 103.524 111.544 103.099C111.549 102.918 111.429 102.694 111.277 102.6C110.778 102.292 110.99 101.776 111.759 101.432C112.824 100.954 114.539 98.3312 113.786 98.3312C113.618 98.3312 113.481 98.5791 113.481 98.8821ZM167.604 99.5806C167.756 99.6379 168.995 99.721 170.359 99.7654C174.875 99.9125 173.996 100.923 169.262 101.026C164.583 101.127 164.235 101.54 168.771 101.61C173.004 101.674 173.251 101.606 173.251 100.367C173.251 99.4329 173.251 99.4329 170.29 99.4547C168.661 99.4665 167.453 99.5233 167.604 99.5806ZM179.999 100.81C180.093 100.962 180.404 101.086 180.691 101.086C180.978 101.086 181.497 101.205 181.845 101.352C182.193 101.498 182.974 101.743 183.58 101.896C186.458 102.625 187.065 105.181 184.682 106.539C184.3 106.757 184.257 106.853 184.544 106.853C186.391 106.851 187.165 103.621 185.575 102.549C184.116 101.564 179.594 100.154 179.999 100.81ZM186.747 101.3C186.747 101.418 186.995 101.693 187.298 101.912C187.601 102.13 187.849 102.467 187.849 102.661C187.849 102.855 187.973 103.014 188.125 103.014C188.602 103.014 188.425 102.463 187.724 101.762C187.024 101.062 186.747 100.931 186.747 101.3ZM130.842 103.702C130.842 104.157 130.962 104.714 131.109 104.942C131.314 105.259 131.376 105.163 131.376 104.529C131.376 104.074 131.256 103.516 131.109 103.289C130.904 102.972 130.842 103.068 130.842 103.702ZM111.553 103.804C111.553 103.954 111.723 104.246 111.93 104.453C112.138 104.661 112.513 105.228 112.763 105.713C113.014 106.198 113.28 106.594 113.355 106.594C113.429 106.594 113.18 105.983 112.802 105.237C112.134 103.918 111.553 103.251 111.553 103.804ZM147.088 104.478C147.082 105.209 147.572 106.047 148.688 107.214C149.68 108.252 150.114 108.482 150.114 107.972C150.114 107.82 149.959 107.697 149.77 107.698C149.317 107.7 147.636 105.754 147.631 105.22C147.624 104.564 147.094 103.838 147.088 104.478ZM176.281 104.749C176.281 106.127 177.558 107.612 179.173 108.112C179.476 108.205 179.352 108.069 178.897 107.809C177.171 106.821 176.18 105.071 177.006 104.468C177.451 104.142 177.442 104.115 176.884 104.115C176.438 104.115 176.281 104.281 176.281 104.749ZM149.563 105.392C149.563 105.713 151.073 106.869 151.491 106.868C151.718 106.868 151.502 106.622 151.009 106.322C150.517 106.022 150.114 105.65 150.114 105.497C150.114 105.343 149.99 105.217 149.839 105.217C149.687 105.217 149.563 105.296 149.563 105.392ZM178.795 105.699C179.419 106.495 179.968 106.853 180.55 106.843C181.026 106.834 181.007 106.789 180.412 106.515C180.034 106.34 179.523 105.977 179.278 105.707C178.703 105.074 178.299 105.067 178.795 105.699ZM155.744 105.795C155.641 105.962 155.169 106.267 154.695 106.473C153.94 106.801 153.912 106.85 154.465 106.859C154.812 106.865 155.407 106.56 155.786 106.181C156.164 105.802 156.352 105.493 156.202 105.493C156.053 105.493 155.846 105.629 155.744 105.795ZM157.97 106.212C157.306 107.227 156.837 107.696 156.485 107.696C156.332 107.696 156.13 107.82 156.036 107.972C155.942 108.123 156.007 108.247 156.179 108.247C156.662 108.247 158.723 106.117 158.599 105.746C158.539 105.564 158.257 105.773 157.97 106.212ZM165.263 106.663C165.263 106.777 167.122 106.87 169.395 106.87C173.526 106.87 173.526 106.87 173.526 107.558C173.526 108.247 173.526 108.247 168.362 108.255C164.807 108.261 163.344 108.349 163.667 108.537C165.135 109.394 173.664 108.676 173.664 107.696C173.664 106.732 173.664 106.732 169.463 106.594C167.153 106.519 165.262 106.549 165.263 106.663ZM132.761 107.421C133.27 107.875 133.815 108.247 133.971 108.247C134.316 108.247 132.455 106.621 132.092 106.606C131.951 106.599 132.252 106.966 132.761 107.421ZM111.559 107.304C111.539 108.253 113.417 109.125 113.991 108.433C114.234 108.141 114.124 108.094 113.434 108.195C112.765 108.293 112.463 108.176 112.07 107.664C111.792 107.303 111.562 107.141 111.559 107.304ZM142.383 108.496C142.696 108.936 142.953 109.432 142.953 109.598C142.953 109.764 143.077 109.9 143.228 109.9C143.38 109.9 143.503 109.836 143.503 109.758C143.503 109.46 142.253 107.703 142.039 107.699C141.915 107.698 142.07 108.056 142.383 108.496ZM137.719 108.522C137.719 108.873 138.829 108.873 139.372 108.522C139.679 108.324 139.52 108.254 138.752 108.251C138.184 108.249 137.719 108.371 137.719 108.522ZM153.695 108.522C153.38 108.726 153.492 108.79 154.16 108.794C154.644 108.796 155.116 108.674 155.21 108.522C155.428 108.169 154.241 108.169 153.695 108.522ZM179.999 108.522C180.093 108.674 180.627 108.785 181.186 108.77C182.099 108.746 182.133 108.72 181.514 108.522C180.519 108.204 179.802 108.204 179.999 108.522ZM183.442 108.522C182.811 108.725 182.834 108.745 183.718 108.766C184.248 108.779 184.867 108.669 185.095 108.522C185.614 108.187 184.49 108.187 183.442 108.522ZM152.868 110.726C152.868 110.877 152.553 111.001 152.167 111.001C151.032 111.001 149.288 113.162 149.288 114.568C149.288 114.879 149.146 115.133 148.973 115.133C148.749 115.133 148.716 115.63 148.86 116.854C149.248 120.165 149.715 126.01 150.118 132.623C150.275 135.199 150.519 138.731 150.661 140.473C150.802 142.215 150.992 145.435 151.082 147.628C151.188 150.203 151.36 151.685 151.567 151.813C151.744 151.922 151.792 152.108 151.675 152.225C151.557 152.343 151.351 152.26 151.216 152.042C150.847 151.445 150.575 151.909 150.918 152.551C151.082 152.857 151.216 154.454 151.216 156.1C151.216 157.746 151.332 159.211 151.473 159.355C151.615 159.499 151.787 161.599 151.855 164.023C151.923 166.447 152.118 170.537 152.288 173.113C152.788 180.684 153.059 185.047 153.53 193.082C153.774 197.248 154.105 202.02 154.265 203.686C155.428 215.767 154.357 218.754 151.009 212.771C150.725 212.262 147.999 209.226 145.707 206.866C144.874 206.007 143.82 204.823 143.366 204.234C142.911 203.645 142.26 202.895 141.92 202.567C141.579 202.239 141.3 201.887 141.3 201.784C141.3 201.682 141.052 201.331 140.749 201.006C140.446 200.681 140.198 200.191 140.198 199.916C140.198 199.642 140.074 199.417 139.923 199.417C139.771 199.417 139.647 199.18 139.647 198.889C139.647 198.599 139.555 198.32 139.441 198.269C139.227 198.174 138.792 197.416 137.334 194.597C136.864 193.688 136.408 192.882 136.32 192.807C136.232 192.731 135.985 192.266 135.771 191.774C135.557 191.281 135.288 190.879 135.173 190.879C135.059 190.879 134.965 190.693 134.965 190.465C134.965 190.238 134.871 190.052 134.757 190.052C134.642 190.052 134.258 189.418 133.902 188.643C131.698 183.838 125.859 183.352 123.568 187.783C122.833 189.204 123.246 194.286 124.247 196.157C124.385 196.415 124.498 197.123 124.498 197.73C124.498 198.337 124.622 198.91 124.774 199.004C124.925 199.098 125.049 199.601 125.049 200.122C125.049 200.643 125.173 201.07 125.325 201.07C125.477 201.07 125.6 201.799 125.6 202.706C125.6 203.606 125.724 204.419 125.875 204.513C126.027 204.606 126.151 205.102 126.151 205.615C126.151 206.127 126.275 206.623 126.426 206.716C126.578 206.81 126.702 207.437 126.702 208.11C126.702 208.783 126.815 209.333 126.953 209.333C127.091 209.333 127.288 209.832 127.391 210.441C127.613 211.756 129.07 214.793 129.781 215.425C130.057 215.67 130.282 216.011 130.282 216.182C130.282 216.354 130.406 216.494 130.558 216.494C130.709 216.494 130.833 216.675 130.833 216.895C130.833 217.115 131.15 217.612 131.537 218C131.924 218.387 132.37 219.074 132.528 219.527C132.686 219.98 132.912 220.35 133.03 220.35C133.149 220.35 133.4 220.722 133.588 221.177C133.776 221.631 134.039 222.003 134.172 222.003C134.305 222.003 134.414 222.189 134.414 222.416C134.414 222.644 134.538 222.829 134.689 222.829C134.841 222.829 134.965 222.984 134.965 223.174C134.966 223.363 135.338 223.952 135.791 224.482C136.245 225.012 136.616 225.601 136.617 225.79C136.617 225.98 136.71 226.136 136.824 226.137C136.938 226.138 137.465 226.827 137.995 227.669C138.525 228.51 139.238 229.495 139.578 229.858C139.919 230.22 140.198 230.708 140.198 230.942C140.198 231.177 140.322 231.368 140.474 231.368C140.625 231.368 140.749 231.497 140.749 231.655C140.749 231.813 140.997 232.208 141.3 232.533C141.603 232.858 141.851 233.287 141.851 233.486C141.851 233.684 141.975 233.847 142.126 233.847C142.278 233.847 142.402 234.022 142.402 234.236C142.402 234.451 142.804 235.056 143.297 235.581C143.789 236.106 144.467 236.892 144.803 237.326C145.71 238.499 147.825 240.733 148.028 240.733C148.125 240.733 148.624 241.136 149.137 241.628C150.395 242.836 152.251 244.392 152.8 244.699C153.046 244.837 153.639 245.334 154.117 245.802C154.595 246.271 155.346 246.929 155.786 247.263C157.461 248.537 158.218 249.166 159.277 250.167C159.878 250.735 160.483 251.2 160.62 251.2C160.758 251.2 161.408 251.727 162.065 252.37C162.722 253.014 163.611 253.789 164.039 254.092C164.468 254.395 165.474 255.293 166.275 256.089C167.075 256.884 167.862 257.535 168.023 257.535C168.184 257.535 168.59 257.795 168.924 258.114C169.259 258.432 169.966 259.02 170.496 259.421C171.027 259.822 171.789 260.491 172.191 260.908C172.592 261.325 173.036 261.666 173.177 261.666C173.56 261.666 176.832 264.959 176.832 265.344C176.832 265.527 177.079 265.855 177.382 266.073C177.685 266.292 177.933 266.681 177.933 266.937C177.933 267.194 178.035 267.446 178.16 267.496C178.284 267.547 179.086 268.642 179.942 269.929C180.797 271.217 181.749 272.545 182.056 272.88C182.364 273.216 182.616 273.617 182.616 273.773C182.616 274.036 182.784 274.269 184.074 275.793C184.346 276.115 184.836 276.817 185.161 277.354C185.487 277.891 185.823 278.392 185.907 278.468C185.991 278.544 186.234 278.945 186.448 279.359C186.661 279.772 187.064 280.356 187.342 280.655C187.621 280.955 187.849 281.328 187.849 281.486C187.849 281.644 187.973 281.773 188.125 281.773C188.276 281.773 188.4 281.959 188.4 282.186C188.4 282.414 188.503 282.6 188.629 282.6C188.755 282.6 189.033 282.94 189.247 283.357C189.461 283.774 189.853 284.315 190.12 284.56C190.386 284.805 190.603 285.078 190.603 285.166C190.603 285.576 192.374 287.892 192.469 287.607C192.682 286.969 193.082 287.297 193.082 288.108C193.082 288.926 193.673 289.263 194.046 288.659C194.14 288.508 194.457 288.384 194.751 288.384C195.045 288.384 195.286 288.26 195.286 288.108C195.286 287.957 195.769 287.833 196.358 287.833C197.4 287.833 197.987 287.313 197.619 286.718C197.451 286.447 198.894 285.629 199.541 285.629C199.776 285.629 199.969 285.785 199.969 285.974C199.969 286.163 200.262 285.977 200.621 285.561C201.345 284.719 201.762 284.607 201.988 285.195C202.158 285.638 203.194 285.472 203.756 284.911C204.24 284.427 204.185 284.252 203.549 284.252C203.246 284.252 202.998 284.128 202.998 283.977C202.998 283.578 204.031 283.638 204.178 284.046C204.26 284.274 204.507 284.158 204.911 283.702C205.522 283.015 205.522 283.015 205.319 283.84C205.128 284.62 204.875 284.933 204.238 285.174C204.077 285.235 204.064 285.381 204.207 285.523C204.349 285.665 204.502 285.623 204.574 285.423C204.641 285.234 204.876 285.079 205.096 285.079C205.315 285.079 205.561 284.906 205.641 284.696C205.726 284.475 206.013 284.372 206.321 284.452C206.707 284.553 206.855 284.45 206.859 284.078C206.862 283.671 206.914 283.644 207.108 283.951C207.312 284.272 207.526 284.235 208.383 283.73C208.949 283.396 209.581 283.187 209.786 283.265C209.996 283.346 210.16 283.231 210.16 283.004C210.16 282.782 210.346 282.6 210.573 282.6C210.8 282.6 210.986 282.712 210.986 282.849C210.986 282.986 211.295 282.955 211.672 282.78C212.05 282.605 212.36 282.369 212.361 282.255C212.365 281.926 213.322 282.016 213.685 282.379C213.942 282.636 214.016 282.575 214.016 282.104C214.016 281.771 214.14 281.498 214.291 281.498C214.443 281.498 214.567 281.622 214.567 281.773C214.567 281.925 214.691 282.049 214.842 282.049C214.994 282.049 215.118 281.801 215.118 281.498C215.118 281.131 214.934 280.947 214.567 280.947C214.261 280.947 214.016 280.763 214.016 280.534C214.016 280.066 214.447 279.98 214.704 280.396C214.997 280.869 215.668 280.697 215.668 280.15C215.668 279.456 216.413 279.197 216.738 279.779C217.059 280.351 218.425 279.754 218.636 278.95C218.833 278.197 219.329 278.385 219.182 279.157C219.093 279.618 219.174 279.845 219.425 279.845C219.631 279.845 219.8 279.659 219.8 279.432C219.8 279.205 219.985 279.019 220.211 279.019C220.437 279.019 220.776 278.771 220.966 278.468C221.35 277.852 221.9 277.743 222.069 278.25C222.142 278.47 222.4 278.377 222.832 277.974C223.191 277.64 223.705 277.366 223.975 277.366C224.277 277.366 224.409 277.221 224.32 276.988C224.211 276.704 224.368 276.647 224.948 276.757C225.621 276.885 225.676 276.849 225.37 276.479C225.079 276.126 225.102 276.022 225.503 275.868C225.769 275.766 226.03 275.813 226.084 275.973C226.252 276.477 226.686 276.29 226.686 275.714C226.686 275.018 227.132 275.003 227.558 275.685C227.957 276.324 228.631 275.827 228.499 274.992C228.455 274.707 228.471 274.629 228.536 274.818C228.739 275.408 229.716 275.227 229.716 274.599C229.716 274.103 229.832 274.058 230.697 274.22C231.547 274.38 231.698 274.326 231.832 273.815C231.917 273.491 232.126 273.242 232.297 273.263C233.123 273.361 233.328 273.211 233.18 272.615C233.095 272.274 233.097 272.15 233.184 272.34C233.372 272.747 234.674 272.807 234.674 272.408C234.674 272.257 234.86 272.133 235.087 272.133C235.314 272.133 235.5 272.257 235.5 272.408C235.5 272.56 235.748 272.684 236.051 272.684C236.429 272.684 236.602 272.5 236.602 272.099C236.602 271.605 236.667 271.569 237.024 271.865C237.466 272.232 238.805 271.777 238.805 271.26C238.805 271.134 239.059 271.031 239.369 271.031C239.678 271.031 240.242 270.721 240.621 270.343C241.372 269.592 242.142 269.366 241.56 270.067C241.283 270.4 241.29 270.479 241.595 270.471C242.134 270.459 242.937 269.797 242.937 269.365C242.937 269.114 243.046 269.147 243.281 269.467C243.635 269.95 245.14 268.977 245.14 268.266C245.14 268.12 245.721 268.001 246.431 268.001C247.377 268.001 247.892 267.841 248.359 267.403C248.709 267.073 248.996 266.949 248.996 267.127C248.996 267.305 249.244 267.45 249.547 267.45C249.915 267.45 250.098 267.267 250.098 266.9C250.098 266.597 250.265 266.349 250.469 266.349C250.947 266.349 252.517 265.567 252.73 265.223C252.918 264.918 252.271 263.319 251.959 263.319C251.845 263.319 251.751 263.156 251.751 262.958C251.751 262.759 251.503 262.33 251.2 262.005C250.897 261.68 250.649 261.276 250.649 261.108C250.649 260.939 250.301 260.283 249.876 259.65C249.451 259.017 248.738 257.786 248.292 256.916C247.847 256.045 247.389 255.332 247.275 255.332C247.161 255.331 247.068 255.083 247.068 254.78C247.068 254.477 246.968 254.229 246.844 254.229C246.721 254.229 246.45 253.796 246.242 253.265C246.034 252.735 245.763 252.301 245.64 252.301C245.517 252.301 245.416 252.053 245.416 251.75C245.416 251.447 245.313 251.2 245.187 251.2C245.061 251.2 244.782 250.859 244.568 250.442C244.353 250.025 244.112 249.623 244.033 249.547C243.63 249.164 242.937 247.862 242.937 247.491C242.937 247.258 242.834 247.068 242.708 247.068C242.583 247.068 242.19 246.448 241.835 245.691C241.48 244.933 241.087 244.314 240.962 244.314C240.836 244.314 240.733 244.066 240.733 243.763C240.733 243.46 240.609 243.212 240.458 243.212C240.306 243.212 240.182 243.026 240.182 242.799C240.182 242.571 240.058 242.386 239.907 242.386C239.756 242.386 239.632 242.273 239.632 242.137C239.632 242 239.198 241.12 238.668 240.182C237.703 238.477 237.703 238.477 237.695 232.512C237.686 226.813 237.376 223.346 236.582 220.075C236.417 219.393 236.217 218.34 236.138 217.734C236.059 217.128 235.883 216.514 235.747 216.37C235.611 216.226 235.5 215.786 235.5 215.393C235.5 214.999 235.389 214.559 235.253 214.415C235.117 214.271 234.937 213.657 234.854 213.051C234.602 211.227 234.209 209.282 233.769 207.68C233.539 206.847 233.017 204.554 232.608 202.585C232.199 200.615 231.803 198.904 231.728 198.782C231.653 198.66 231.474 197.854 231.329 196.992C231.184 196.129 230.997 195.021 230.912 194.528C230.827 194.036 230.647 193.633 230.512 193.633C230.377 193.633 230.267 193.013 230.267 192.256C230.267 191.498 230.157 190.879 230.022 190.879C229.769 190.879 229.507 189.872 229.272 187.986C229.196 187.38 229.025 186.637 228.892 186.334C228.76 186.031 228.592 185.411 228.52 184.957C228.447 184.502 228.18 183.263 227.927 182.202C226.792 177.45 226.13 174.221 225.682 171.254C225.597 170.686 225.428 170.221 225.308 170.221C225.187 170.221 225.025 169.694 224.948 169.05C224.623 166.359 223.067 162.634 222.378 162.898C222.181 162.974 221.839 162.855 221.618 162.635C221.397 162.414 221.022 162.233 220.784 162.233C220.546 162.233 220.351 162.109 220.351 161.957C220.351 161.561 215.882 161.613 214.562 162.024C213.959 162.213 213.465 162.461 213.465 162.575C213.465 162.69 213.332 162.784 213.17 162.784C211.806 162.784 210.223 167.444 211.188 168.621C211.35 168.819 211.541 169.663 211.612 170.496C211.684 171.329 211.954 173.25 212.212 174.765C213.111 180.032 213.141 180.421 212.683 180.879C212.248 181.314 211.546 180.787 211.532 180.015C211.524 179.61 210.803 174.866 210.419 172.7C210.123 171.028 209.8 167.86 209.441 163.128C209.358 162.03 209.176 161.131 209.036 161.131C208.896 161.131 208.782 160.519 208.782 159.77C208.782 159.022 208.659 158.333 208.507 158.239C208.356 158.145 208.232 157.704 208.232 157.259C208.232 156.813 208.108 156.449 207.956 156.449C207.805 156.449 207.681 156.201 207.681 155.898C207.681 155.595 207.557 155.347 207.405 155.347C207.254 155.347 207.13 155.181 207.13 154.978C207.13 154.48 204.985 152.317 204.492 152.317C204.276 152.317 204.1 152.223 204.1 152.109C204.1 151.206 197.45 150.595 196.622 151.422C196.433 151.611 196.054 151.766 195.782 151.766C195.509 151.766 195.286 151.89 195.286 152.042C195.286 152.193 195.091 152.317 194.853 152.317C194.365 152.317 194.122 152.542 192.911 154.107C190.849 156.776 190.729 157.987 191.809 165.263C192.18 167.762 192.625 171.233 192.798 172.975C192.971 174.717 193.252 176.803 193.422 177.611C193.749 179.16 193.505 179.682 192.532 179.513C192.115 179.442 192.056 179.157 191.454 174.352C191.312 173.216 191.128 171.853 191.046 171.322C190.964 170.792 190.765 169.119 190.605 167.604C190.444 166.089 190.118 163.637 189.881 162.155C189.573 160.232 189.533 159.359 189.743 159.106C189.952 158.854 189.924 158.045 189.645 156.292C189.429 154.939 189.177 153.243 189.085 152.524C188.992 151.804 188.801 151.215 188.659 151.215C188.516 151.215 188.4 150.969 188.4 150.668C188.4 149.663 185.828 147.065 183.963 146.186C182.054 145.287 175.27 145.349 174.949 146.269C174.899 146.415 174.546 146.533 174.165 146.533C173.52 146.533 171.047 148.737 171.047 149.312C171.047 149.428 170.893 149.692 170.703 149.898C170.017 150.644 169.67 151.502 169.67 152.451C169.67 152.983 169.546 153.419 169.395 153.419C169.243 153.419 169.119 153.791 169.119 154.245C169.119 155.085 168.955 155.224 168.394 154.861C168.087 154.662 167.871 153.474 167.569 150.32C167.486 149.449 167.305 148.736 167.167 148.736C167.029 148.736 166.916 148.248 166.916 147.651C166.916 147.054 166.792 146.489 166.64 146.395C166.489 146.302 166.365 145.682 166.365 145.018C166.365 144.354 166.241 143.734 166.089 143.641C165.938 143.547 165.814 142.982 165.814 142.385C165.814 141.788 165.702 141.3 165.564 141.3C165.426 141.3 165.251 140.649 165.174 139.854C165.098 139.058 164.906 137.85 164.748 137.168C164.59 136.486 164.343 135.302 164.199 134.536C164.054 133.77 163.787 132.593 163.604 131.92C163.131 130.173 162.521 126.6 162.326 124.429C162.234 123.407 162.052 122.57 161.921 122.57C161.79 122.57 161.682 121.957 161.682 121.209C161.682 120.46 161.558 119.771 161.407 119.678C161.256 119.584 161.132 119.026 161.132 118.438C161.132 117.85 161.008 117.292 160.856 117.199C160.705 117.105 160.581 116.718 160.581 116.339C160.581 114.42 158.569 111.001 157.44 111.001C157.198 111.001 157 110.877 157 110.726C157 110.567 156.128 110.45 154.934 110.45C153.741 110.45 152.868 110.567 152.868 110.726ZM73.2755 117.114C73.2851 117.5 75.4702 120.647 75.4702 120.275C75.4702 120.152 75.0983 119.512 74.6438 118.851C74.1894 118.191 73.8175 117.525 73.8175 117.372C73.8175 117.219 73.6936 117.017 73.5421 116.923C73.3906 116.83 73.2708 116.915 73.2755 117.114ZM77.6737 122.167C77.6737 123.412 80.5528 123.809 90.0684 123.879C95.2949 123.918 101.637 123.98 104.162 124.017C106.688 124.054 108.692 124.023 108.616 123.947C108.54 123.871 102.26 123.747 94.6594 123.672C80.8412 123.534 80.8412 123.534 79.2574 122.792C78.3862 122.383 77.6737 122.102 77.6737 122.167ZM169.571 155.967C169.805 156.645 169.813 156.694 170.21 159.892C170.481 162.079 170.911 165.038 172.153 173.25C172.753 177.223 172.791 178.665 172.3 178.854C171.731 179.072 171.306 178.085 171.015 175.867C170.896 174.958 170.679 173.471 170.534 172.562C170.388 171.653 170.005 168.829 169.683 166.285C169.361 163.742 168.979 161.349 168.833 160.965C168.688 160.583 168.568 159.725 168.568 159.06C168.568 158.396 168.432 157.552 168.265 157.185C168.041 156.696 168.044 156.363 168.274 155.933C168.683 155.169 169.302 155.185 169.571 155.967Z" fill="#FEC0C1"/>
<path fill-rule="evenodd" clip-rule="evenodd" d="M205.753 78.7754C205.753 78.9269 206.248 79.0509 206.854 79.0509C207.46 79.0509 207.956 78.9269 207.956 78.7754C207.956 78.6239 207.46 78.5 206.854 78.5C206.248 78.5 205.753 78.6239 205.753 78.7754ZM204.567 79.8885C204.064 80.4768 203.923 82.0807 204.375 82.0807C204.527 82.0807 204.651 81.6717 204.651 81.1718C204.651 80.6718 204.798 80.1163 204.977 79.937C205.156 79.7577 205.243 79.5505 205.169 79.477C205.095 79.4032 204.824 79.5885 204.567 79.8885ZM81.943 80.4281C81.4885 80.5438 88.0266 80.6531 96.4724 80.671C106.548 80.6922 111.828 80.6088 111.828 80.4281C111.828 80.1006 83.2296 80.1006 81.943 80.4281ZM201.896 81.3461C201.896 82.0532 202.009 82.6316 202.146 82.6316C202.37 82.6316 202.238 80.4531 201.996 80.1755C201.941 80.1124 201.896 80.6393 201.896 81.3461ZM79.0082 81.3692C77.317 82.2091 76.021 83.1455 76.021 83.5281C76.021 83.6978 76.362 83.5166 76.7785 83.1257C77.195 82.7349 78.2796 82.0358 79.1886 81.5725C80.0975 81.1092 80.7173 80.7305 80.5658 80.7313C80.4143 80.7319 79.7133 81.0189 79.0082 81.3692ZM211.293 82.8266C211.254 83.2359 209.398 85.1865 208.645 85.6102C208.156 85.8851 208.149 85.9211 208.583 85.9286C209.288 85.9404 211.602 83.5471 211.449 82.9651C211.381 82.7059 211.311 82.6437 211.293 82.8266ZM74.9917 84.496C74.6529 84.9097 74.3742 85.4033 74.372 85.5925C74.3701 85.782 74.2445 85.9368 74.093 85.9368C73.9415 85.9368 73.8175 86.0608 73.8175 86.2123C73.8175 86.7428 74.2789 86.4808 74.6662 85.7303C74.881 85.3138 75.2121 84.8089 75.4013 84.6089C75.6991 84.2941 75.8797 83.7229 75.6768 83.7386C75.639 83.7416 75.3308 84.0823 74.9917 84.496ZM72.883 89.4024C72.6392 90.0376 72.6778 115.133 72.9224 115.133C73.0361 115.133 73.1303 109.245 73.1322 102.05C73.1339 94.8539 73.1163 88.9667 73.0929 88.9667C73.0694 88.9667 72.975 89.1628 72.883 89.4024ZM102.368 92.5003C101.697 93.2418 101.676 107.972 102.345 108.641C102.988 109.284 104.667 109.138 104.667 108.438C104.667 108.237 104.557 108.247 104.336 108.468C102.56 110.243 102.152 106.861 102.456 92.8917C102.461 92.6336 103.394 92.5474 106.182 92.5474C108.477 92.5474 109.9 92.4419 109.9 92.2719C109.9 91.715 102.886 91.9276 102.368 92.5003ZM117.49 92.6088C116.861 93.507 116.847 108.002 117.475 108.523C117.76 108.76 117.888 108.77 117.888 108.556C117.888 108.386 117.764 108.247 117.612 108.247C117.312 108.247 117.209 93.751 117.504 92.9831C117.839 92.1091 127.746 92.3609 127.969 93.2489C128.2 94.1686 128.038 94.2931 126.341 94.4994C124.911 94.6732 124.911 94.6732 126.466 94.712C128.097 94.7528 128.354 94.5625 128.354 93.3125C128.354 91.8337 118.481 91.1941 117.49 92.6088ZM134.594 92.2031C134.524 92.3168 135.62 92.4096 137.03 92.4096C138.44 92.4096 139.537 92.3168 139.467 92.2031C139.397 92.0893 138.3 91.9965 137.031 91.9965C135.761 91.9965 134.664 92.0893 134.594 92.2031ZM147.153 92.3325C146.501 92.6471 146.16 103.926 146.772 104.893C146.899 105.093 146.943 102.847 146.869 99.9013C146.702 93.2798 146.807 92.5474 147.923 92.5474C148.371 92.5474 148.737 92.4234 148.737 92.2719C148.737 91.9188 147.949 91.9488 147.153 92.3325ZM157.275 92.2719C156.973 92.4672 157.181 92.5399 158.049 92.5432C158.771 92.5457 159.169 92.4394 159.066 92.2719C158.85 91.9224 157.816 91.9224 157.275 92.2719ZM163.457 92.3871C162.955 92.7534 162.916 93.2238 162.833 99.9143C162.71 109.817 162.174 108.933 168.31 108.949C173.389 108.962 173.389 108.962 168.431 108.811C160.313 108.564 160.512 92.5496 168.633 92.5432C172.161 92.5405 173.801 92.4493 173.526 92.2719C172.833 91.8241 164.09 91.9241 163.457 92.3871ZM179.586 92.2719C179.586 92.6008 180.335 92.6008 181.101 92.2719C181.543 92.0822 181.447 92.0315 180.619 92.0158C180.051 92.0053 179.586 92.1204 179.586 92.2719ZM183.167 92.2719C184.162 92.5906 184.879 92.5906 184.682 92.2719C184.588 92.1204 184.054 92.0089 183.495 92.024C182.582 92.0486 182.548 92.0739 183.167 92.2719ZM190.259 92.294C189.549 92.7079 189.676 94.7509 190.413 94.7509C190.614 94.7509 190.604 94.6415 190.383 94.4203C188.808 92.8451 189.784 92.5333 196.043 92.6107C202.509 92.6909 203.106 92.8749 201.849 94.3978C201.54 94.7718 201.548 94.8195 201.896 94.7057C202.463 94.5206 202.585 92.9211 202.071 92.4074C201.576 91.9117 191.089 91.8108 190.259 92.294ZM149.219 97.8746C149.307 104.612 149.833 106.595 151.531 106.595C151.701 106.595 151.512 106.336 151.11 106.02C149.686 104.9 149.563 104.309 149.559 98.5519C149.557 95.6281 149.464 93.0925 149.352 92.9167C149.241 92.7413 149.181 94.9723 149.219 97.8746ZM177.974 93.271C177.032 94.2749 177.426 94.362 178.476 93.3817C178.967 92.9228 179.201 92.5551 178.995 92.5642C178.79 92.5735 178.331 92.8917 177.974 93.271ZM159.268 98.8825C159.274 102.869 159.354 104.588 159.492 103.703C159.772 101.902 159.763 94.2598 159.479 93.3737C159.355 92.9872 159.262 95.4048 159.268 98.8825ZM112.93 93.7205C112.93 94.1135 113.584 95.3018 113.8 95.3018C114.903 95.3018 113.801 99.7567 112.386 101.017C112.003 101.358 111.822 101.636 111.983 101.637C112.416 101.637 113.412 100.635 113.615 99.9936C113.713 99.6854 113.909 99.4333 114.05 99.4333C114.677 99.4333 114.33 95.4398 113.618 94.4754C113.24 93.962 112.93 93.6224 112.93 93.7205ZM136.067 94.4754C136.067 94.6269 136.632 94.7509 137.322 94.7509C138.089 94.7509 138.512 94.6437 138.408 94.4754C138.314 94.3239 137.749 94.2 137.152 94.2C136.555 94.2 136.067 94.3239 136.067 94.4754ZM180.825 94.4754C180.72 94.6465 181.241 94.7509 182.203 94.7509C183.164 94.7509 183.686 94.6465 183.58 94.4754C183.486 94.3239 182.866 94.2 182.203 94.2C181.539 94.2 180.919 94.3239 180.825 94.4754ZM109.9 95.0263C109.9 95.1778 110.033 95.3018 110.195 95.3018C111.211 95.3018 111.577 97.3552 110.857 99.0202C110.634 99.5363 110.649 99.5421 111.086 99.1086C111.824 98.3779 111.72 96.106 110.915 95.3497C110.222 94.6988 109.9 94.5961 109.9 95.0263ZM134.662 95.1178C133.346 96.0823 132.582 100.621 133.264 103.427C133.484 104.332 133.537 103.9 133.56 101.008C133.589 97.3039 133.918 95.8824 134.868 95.3505C135.146 95.1949 135.312 95.0065 135.238 94.9318C135.163 94.8569 134.904 94.9407 134.662 95.1178ZM139.096 94.8911C139.096 94.9682 139.468 95.4205 139.923 95.8959C140.899 96.9175 141.04 96.6046 140.097 95.5083C139.491 94.8032 139.096 94.56 139.096 94.8911ZM165.58 97.0232C165.557 98.3489 165.631 99.4336 165.745 99.4339C165.859 99.4342 165.917 98.6594 165.875 97.7124C165.744 94.7853 165.623 94.5033 165.58 97.0232ZM197.15 101.706C197.076 108.661 197.076 108.661 196.317 108.748C194.914 108.909 194.841 108.602 194.762 102.188C194.722 98.9307 194.634 96.2104 194.566 96.1427C194.498 96.0746 194.455 98.7703 194.47 102.133C194.493 107.178 194.57 108.318 194.911 108.66C195.412 109.16 197.18 109.211 197.361 108.729C197.58 108.15 197.641 94.7506 197.425 94.7506C197.314 94.7509 197.19 97.8807 197.15 101.706ZM187.873 95.4395C187.97 96.7924 187.87 96.9544 186.935 96.9544C186.179 96.9544 185.944 96.7999 185.575 96.0592C185.201 95.3064 185.127 95.2593 185.112 95.7637C185.085 96.6905 186.271 97.4766 187.362 97.2549C188.35 97.0541 188.677 96.2597 188.135 95.3786C187.855 94.9233 187.836 94.9277 187.873 95.4395ZM176.464 95.4855C176.187 95.7626 176.252 97.586 176.556 98.0561C176.746 98.3495 176.824 98.0096 176.827 96.8855C176.832 95.2863 176.797 95.1527 176.464 95.4855ZM179.242 95.7347C178.902 96.0799 179.024 97.3304 179.454 97.8983C179.675 98.1903 179.946 98.3385 180.057 98.2277C180.168 98.1167 180.116 97.9383 179.943 97.8311C179.769 97.7237 179.587 97.161 179.537 96.5803C179.488 96 179.355 95.6193 179.242 95.7347ZM140.749 100.673C140.749 102.736 140.847 103.812 141.025 103.703C141.18 103.607 141.3 102.282 141.3 100.673C141.3 99.0634 141.18 97.7388 141.025 97.643C140.847 97.5334 140.749 98.6095 140.749 100.673ZM143.608 100.535C143.608 102.277 143.653 102.99 143.707 102.119C143.762 101.248 143.762 99.8225 143.707 98.9513C143.653 98.0801 143.608 98.7929 143.608 100.535ZM130.456 99.2268C130.196 100.197 130.262 102.832 130.558 103.289C130.741 103.573 130.826 102.902 130.829 101.155C130.833 98.5552 130.751 98.1275 130.456 99.2268ZM166.365 99.1885C166.365 99.3232 167.574 99.4234 169.05 99.4116C170.527 99.3997 171.612 99.3479 171.461 99.2964C170.773 99.0634 166.365 98.97 166.365 99.1885ZM185.214 100.23C185.318 100.398 185.625 100.535 185.897 100.535C186.168 100.535 186.779 100.907 187.255 101.361C188.165 102.231 188.716 102.488 188.114 101.762C187.325 100.811 184.724 99.4372 185.214 100.23ZM180.412 101.361C180.412 101.513 180.73 101.637 181.119 101.637C181.508 101.637 182.072 101.768 182.373 101.93C182.674 102.091 183.131 102.18 183.388 102.127C183.645 102.075 183.212 101.819 182.426 101.559C180.781 101.014 180.412 100.978 180.412 101.361ZM165.658 103.978C165.676 106.457 165.676 106.457 169.808 106.469C173.939 106.481 173.939 106.481 169.887 106.393C165.835 106.305 165.835 106.305 165.738 103.902C165.64 101.499 165.64 101.499 165.658 103.978ZM104.667 102.426C104.667 102.557 105.596 102.685 106.732 102.712C108.007 102.741 108.798 102.65 108.798 102.474C108.798 102.301 107.976 102.188 106.732 102.188C105.596 102.188 104.667 102.295 104.667 102.426ZM184.313 102.541C184.565 102.725 184.963 103 185.196 103.152C186.007 103.677 186.042 104.846 185.271 105.617C183.831 107.057 179.035 106.403 179.035 104.766C179.035 104.092 178.309 103.565 177.382 103.565C175.769 103.565 175.316 104.799 176.422 106.182C176.854 106.723 176.857 106.722 176.571 106.131C175.915 104.772 176.179 104.116 177.382 104.116C178.08 104.116 178.484 104.242 178.484 104.46C178.485 105.208 179.791 106.293 181.08 106.618C184.906 107.582 187.938 104.594 185.102 102.654C184.332 102.127 183.606 102.023 184.313 102.541ZM156.61 103.703C155.951 105.424 155.276 105.979 153.144 106.559C151.924 106.89 152.657 106.938 154.037 106.618C155.386 106.304 157.081 104.641 156.931 103.779C156.826 103.18 156.812 103.177 156.61 103.703ZM188.4 104.407C188.4 104.899 188.515 105.179 188.675 105.08C188.827 104.986 188.951 104.607 188.951 104.237C188.951 103.867 188.827 103.565 188.675 103.565C188.524 103.565 188.4 103.944 188.4 104.407ZM112.787 105.08C114.181 107.576 114.316 107.902 114.144 108.352C113.691 109.533 112.268 108.725 111.048 106.595C109.903 104.595 109.922 105.099 111.071 107.191C112.006 108.894 112.621 109.28 113.894 108.96C114.866 108.717 114.784 107.862 113.6 105.89C112.37 103.841 111.75 103.223 112.787 105.08ZM133.992 105.034C134.073 105.311 134.139 105.587 134.139 105.648C134.139 107.021 138.786 107.047 139.992 105.68C140.809 104.753 140.524 104.614 139.607 105.491C138.169 106.864 134.968 106.651 134.163 105.129C133.955 104.735 133.896 104.702 133.992 105.034ZM158.784 105.631C158.658 105.934 158.426 106.268 158.268 106.373C158.109 106.479 158.063 106.648 158.165 106.75C158.468 107.053 159.253 106.084 159.129 105.561C159.025 105.13 158.99 105.137 158.784 105.631ZM147.464 106.25C148.575 108.386 153.719 110.243 154.993 108.969C155.087 108.875 154.225 108.798 153.078 108.798C150.569 108.798 149.024 108.111 147.972 106.526C147.168 105.314 146.902 105.17 147.464 106.25ZM119.815 106.388C119.816 106.502 121.541 106.595 123.649 106.595C125.758 106.595 127.71 106.677 127.988 106.776C128.284 106.883 128.398 106.854 128.264 106.707C127.987 106.404 119.814 106.095 119.815 106.388ZM131.683 106.801C132.65 108.342 134.411 109.028 137.637 109.122C139.695 109.181 140.631 109.12 140.447 108.936C140.288 108.778 139.087 108.7 137.621 108.755C134.845 108.857 133.604 108.447 132.293 106.992C131.588 106.21 131.243 106.103 131.683 106.801ZM176.842 107.077C176.923 108.707 183.695 109.755 186.038 108.499C187.209 107.871 188.052 107.146 187.609 107.146C187.456 107.146 187.248 107.28 187.146 107.444C185.969 109.349 178.204 109.077 177.428 107.104C177.315 106.815 176.828 106.793 176.842 107.077ZM120.862 109.003C122.119 109.054 124.102 109.054 125.269 109.003C126.436 108.951 125.407 108.91 122.983 108.91C120.559 108.91 119.605 108.952 120.862 109.003ZM141.3 110.22C141.3 110.347 141.734 110.451 142.264 110.451C142.794 110.451 143.228 110.331 143.228 110.184C143.228 110.037 142.794 109.933 142.264 109.953C141.734 109.973 141.3 110.093 141.3 110.22ZM151.972 110.483C150.761 111.097 149.563 112.087 149.563 112.476C149.563 112.626 149.346 112.988 149.081 113.281C148.425 114.006 148.267 122.967 148.9 123.599C149.312 124.011 149.306 123.248 148.849 117.406C148.719 115.746 148.759 115.133 148.996 115.133C149.174 115.133 149.247 115.015 149.157 114.87C148.683 114.102 150.96 111.002 151.999 111.002C152.308 111.002 152.637 110.878 152.731 110.726C152.824 110.575 153.823 110.451 154.95 110.451C156.133 110.451 157 110.567 157 110.726C157 110.878 157.198 111.002 157.44 111.002C158.052 111.002 159.732 112.907 159.934 113.831C160.026 114.251 160.209 114.661 160.341 114.742C160.473 114.824 160.581 115.372 160.581 115.96C160.581 116.548 160.705 117.105 160.856 117.199C161.26 117.449 161.193 116.447 160.682 114.611C159.604 110.734 155.407 108.745 151.972 110.483ZM161.151 118.491C161.14 119.05 161.256 119.584 161.407 119.678C161.739 119.884 161.739 118.799 161.407 118.025C161.216 117.581 161.167 117.672 161.151 118.491ZM75.1947 119.507C75.1947 120.402 79.9959 123.426 81.3307 123.372C81.7642 123.354 81.6615 123.267 80.9789 123.075C80.4487 122.925 79.897 122.688 79.7532 122.549C79.6095 122.409 79.2685 122.295 78.9958 122.295C78.7231 122.295 78.5 122.198 78.5 122.079C78.5 121.96 78.1571 121.66 77.7379 121.413C77.3189 121.165 76.5752 120.579 76.0852 120.111C75.5955 119.643 75.1947 119.371 75.1947 119.507ZM161.682 121.314C161.682 121.836 161.806 122.339 161.958 122.432C162.124 122.535 162.233 122.16 162.233 121.485C162.233 120.87 162.109 120.367 161.958 120.367C161.806 120.367 161.682 120.793 161.682 121.314ZM89.311 123.603C92.7575 123.647 98.3971 123.647 101.843 123.603C105.29 123.559 102.47 123.523 95.5772 123.523C88.6843 123.523 85.8647 123.559 89.311 123.603ZM168.481 155.729C168.317 156.157 168.689 160.49 168.944 161.132C169.035 161.359 169.295 163.032 169.522 164.85C170.162 169.98 170.969 175.344 171.48 177.864C171.807 179.48 172.701 179.075 172.696 177.314C172.689 175.084 172.165 174.641 172.126 176.832C172.092 178.746 171.68 178.246 171.626 176.225C171.611 175.664 171.477 174.92 171.329 174.572C171.182 174.224 170.925 172.762 170.76 171.323C170.399 168.181 170.002 165.165 169.654 162.922C169.315 160.739 169.013 156.826 169.197 157C169.39 157.183 170.252 162.623 170.529 165.401C170.87 168.83 171.081 170.06 171.378 170.359C171.559 170.541 171.604 170.217 171.511 169.395C171.339 167.868 170.037 158.648 169.78 157.138C169.514 155.567 168.828 154.823 168.481 155.729ZM190.385 157.976C190.187 158.2 190.078 158.779 190.14 159.274C190.201 159.765 190.198 159.951 190.133 159.686C189.909 158.774 189.425 159.166 189.622 160.099C189.82 161.039 191.041 170.267 191.434 173.802C191.932 178.278 192.072 179.043 192.446 179.354C193.084 179.883 193.764 179.006 193.475 178.026C193.245 177.245 193.245 177.245 193.146 178.14C193.092 178.632 192.918 179.035 192.76 179.035C192.602 179.035 192.542 178.854 192.627 178.633C192.712 178.412 192.607 177.699 192.394 177.049C192.181 176.399 191.875 174.566 191.714 172.975C191.552 171.385 191.297 169.278 191.146 168.293C190.996 167.308 190.821 165.201 190.757 163.611C190.634 160.519 190.802 161.124 191.407 165.952C191.578 167.315 191.851 169.236 192.014 170.221C192.177 171.206 192.369 173.096 192.44 174.421C192.519 175.872 192.688 176.832 192.866 176.832C193.311 176.832 192.714 171.134 191.38 162.646C191.07 160.677 190.826 158.725 190.837 158.308C190.86 157.438 190.86 157.438 190.385 157.976ZM210.364 166.086C209.68 166.885 209.768 167.43 210.468 166.73C210.788 166.409 211.004 166.007 210.947 165.836C210.886 165.652 210.649 165.753 210.364 166.086ZM209.917 168.775C209.976 171.166 210.365 171.978 210.411 169.808C210.46 167.505 210.832 167.865 211.122 170.496C211.23 171.481 211.554 173.581 211.841 175.163C212.128 176.745 212.363 178.511 212.363 179.088C212.363 179.683 212.498 180.137 212.674 180.137C213.013 180.137 212.942 179.314 212.222 174.904C211.987 173.464 211.684 171.543 211.55 170.634C211.157 167.972 210.974 167.467 210.403 167.467C209.963 167.467 209.889 167.666 209.917 168.775ZM171.626 173.182C171.61 174.164 171.716 174.904 171.874 174.904C172.195 174.904 172.195 173.151 171.874 172.149C171.71 171.637 171.646 171.903 171.626 173.182ZM210.454 172.907C210.492 174.388 210.946 174.875 210.967 173.457C210.977 172.738 210.862 172.149 210.711 172.149C210.559 172.149 210.444 172.49 210.454 172.907ZM210.991 175.454C210.988 175.833 211.172 177.197 211.399 178.484C211.626 179.772 211.812 180.856 211.812 180.894C211.812 180.932 212.06 180.963 212.363 180.963C212.666 180.963 212.914 180.839 212.914 180.688C212.914 180.536 212.753 180.412 212.556 180.412C212.184 180.412 211.54 177.889 211.533 176.402C211.53 175.957 211.408 175.406 211.261 175.179C211.05 174.851 210.994 174.909 210.991 175.454Z" fill="#E89694"/>
<path fill-rule="evenodd" clip-rule="evenodd" d="M205.096 79.7303C204.379 80.824 204.518 82.3161 205.408 83.0815C206.14 83.7106 207.681 83.988 207.681 83.4906C207.681 83.3567 207.929 83.1823 208.232 83.103C208.535 83.024 208.782 82.7615 208.782 82.5202C208.782 82.2786 208.906 82.0811 209.058 82.0811C209.62 82.0811 209.335 80.4051 208.657 79.7275C207.691 78.7616 205.729 78.7629 205.096 79.7303ZM79.464 81.4407C78.7066 81.8324 78.0455 82.2605 77.9951 82.3924C77.9444 82.5241 77.7585 82.6326 77.582 82.6334C77.4051 82.634 76.8887 83.0006 76.4342 83.4481C75.3113 84.5538 75.2154 84.6882 74.0241 86.8325C73.8349 87.1735 73.5581 87.5392 73.4091 87.6458C72.9733 87.9576 73.0364 116.021 73.4732 116.166C73.6628 116.23 73.8175 116.519 73.8175 116.809C73.8175 117.1 73.9112 117.337 74.0258 117.337C74.1404 117.337 74.3971 117.706 74.5962 118.156C75.019 119.111 76.562 120.718 77.7029 121.392C78.1414 121.651 78.5 121.96 78.5 122.079C78.5 122.198 78.6669 122.295 78.8707 122.295C79.0748 122.295 79.6635 122.512 80.1791 122.777C81.4073 123.409 148.449 123.683 148.477 123.056C148.486 122.865 148.517 120.707 148.546 118.261C148.591 114.46 148.669 113.737 149.081 113.282C149.346 112.989 149.563 112.626 149.563 112.476C149.563 112.063 150.775 111.095 152.082 110.463C155.615 108.757 159.697 110.769 160.656 114.691C161.513 118.19 161.682 119.017 161.682 119.682C161.682 120.059 161.806 120.367 161.958 120.367C162.109 120.367 162.233 121.049 162.233 121.882C162.233 123.397 162.233 123.397 191.527 123.397C221.285 123.397 221.987 123.375 223.127 122.394C223.366 122.188 223.769 122.02 224.022 122.02C224.275 122.02 224.482 121.904 224.482 121.763C224.482 121.621 224.728 121.428 225.029 121.333C225.85 121.072 227.694 119.136 228.241 117.961C228.506 117.391 228.805 116.862 228.906 116.786C229.56 116.293 230.078 90.0457 229.446 89.4133C229.291 89.2588 229.165 88.8412 229.165 88.4856C229.165 87.466 227.177 83.7409 226.63 83.7357C226.523 83.7346 226.132 83.455 225.761 83.114C224.664 82.1073 224.247 81.8057 223.95 81.8057C223.796 81.8057 223.264 81.5584 222.768 81.2559C221.956 80.7612 221.377 80.7059 217.004 80.7051C211.76 80.704 211.537 80.7957 211.537 82.9559C211.537 84.4466 209.199 85.9373 206.862 85.9373C205.646 85.9373 204.651 85.8445 204.65 85.7307C204.65 85.6169 204.278 85.2762 203.825 84.9732C203.371 84.6703 202.999 84.2676 202.999 84.0781C202.999 83.8888 202.874 83.7338 202.723 83.7338C202.571 83.7338 202.447 83.4859 202.447 83.1829C202.447 82.8799 202.331 82.632 202.189 82.632C202.047 82.632 201.893 82.2293 201.845 81.7368C201.722 80.4629 81.9163 80.1732 79.464 81.4407ZM109.9 92.2724C109.9 92.4239 110.272 92.5478 110.726 92.5478C111.181 92.5478 111.553 92.6415 111.553 92.756C111.553 92.8706 111.894 93.1169 112.31 93.3036C114.218 94.1588 115.127 98.3491 113.764 100.011C112.799 101.189 112.29 101.637 111.918 101.637C111.712 101.637 111.553 101.938 111.553 102.326C111.553 102.705 111.662 103.014 111.796 103.014C111.93 103.014 112.111 103.232 112.198 103.496C112.285 103.761 112.857 104.776 113.47 105.75C114.647 107.625 114.863 108.632 114.147 108.907C113.375 109.203 112.41 109.086 112.045 108.651C111.85 108.419 111.566 108.078 111.415 107.894C110.936 107.312 109.9 105.182 109.9 104.779C109.9 104.566 109.776 104.392 109.625 104.392C109.473 104.392 109.349 104.206 109.349 103.979C109.349 103.751 109.225 103.565 109.074 103.565C108.922 103.565 108.798 103.39 108.798 103.176C108.798 102.658 105.432 102.445 104.976 102.934C104.79 103.134 104.667 104.359 104.667 106.003C104.667 108.881 104.58 109.074 103.287 109.074C101.971 109.074 101.912 108.714 101.912 100.606C101.912 91.2227 101.512 91.9969 106.362 91.9969C108.537 91.9969 109.9 92.103 109.9 92.2724ZM127.872 92.3803C128.363 92.7525 128.489 93.5292 128.187 94.3156C128.046 94.6836 127.432 94.7513 124.238 94.7513C120.455 94.7513 120.455 94.7513 120.136 95.4529C119.37 97.1333 120.025 99.5908 121.16 99.2985C121.557 99.1963 122.129 99.1278 122.432 99.1459C128.278 99.4971 127.804 99.3726 127.804 100.556C127.804 101.637 127.804 101.637 124.413 101.637C120.216 101.637 119.982 101.76 119.927 104.007C119.871 106.269 119.961 106.319 124.134 106.324C127.963 106.329 128.23 106.396 128.473 107.424C128.812 108.858 128.531 108.936 123.036 108.936C116.385 108.936 117.061 109.869 117.061 100.701C117.061 92.276 122.361 88.197 127.872 92.3803ZM139.836 92.3412C140.813 92.7808 142.712 94.6508 143.237 95.6897C143.952 97.1055 143.807 105.12 143.047 106.187C142.455 107.018 142.455 107.018 142.991 108.115C143.718 109.605 143.489 110.451 142.36 110.451C141.813 110.451 141.308 110.227 140.966 109.832C140.482 109.273 140.113 109.198 137.215 109.074C134.288 108.947 133.93 108.874 133.204 108.247C131.907 107.127 131.384 106.515 131.384 106.114C131.384 105.906 131.272 105.805 131.135 105.89C130.182 106.479 130.386 96.8339 131.364 95.048C131.786 94.2778 132.909 93.1014 133.231 93.0926C133.351 93.0893 133.76 92.8442 134.139 92.5478C134.961 91.9047 138.574 91.7736 139.836 92.3412ZM149.049 92.59C149.513 93.1251 149.563 93.7049 149.563 98.5301C149.563 104.244 149.618 104.522 151.013 105.871C152.302 107.117 155.399 106.398 156.196 104.668C156.37 104.289 156.626 103.758 156.764 103.488C156.902 103.219 156.995 100.634 156.97 97.7434C156.922 92.0757 156.961 91.9165 158.377 92.0633C160.136 92.2457 160.36 105.115 158.63 106.615C158.339 106.867 158.102 107.183 158.102 107.317C158.102 109.124 151.096 109.682 149.045 108.037C146.557 106.043 145.029 93.3576 147.153 92.333C148.085 91.8835 148.483 91.9374 149.049 92.59ZM173.366 92.1641C175.862 93.1218 173.621 94.7513 169.808 94.7513C166.491 94.7513 162.794 98.7915 166.021 98.8892C171.013 99.0402 173.802 99.6001 173.802 100.451C173.802 101.376 173.066 101.637 170.447 101.64C165.781 101.646 165.814 101.628 165.814 104.152C165.814 106.32 165.814 106.32 169.69 106.32C173.733 106.32 174.353 106.487 174.353 107.576C174.353 109.469 163.473 109.869 162.988 107.994C162.465 105.974 162.86 92.8235 163.457 92.3875C164.009 91.9837 172.403 91.7945 173.366 92.1641ZM185.186 92.5219C186.999 93.5402 187.262 93.7661 187.847 94.8067C188.657 96.2472 188.503 97.0231 187.362 97.2553C186.418 97.447 185.095 96.7331 185.095 96.0321C185.095 94.8014 180.805 94.133 179.969 95.2333C179.001 96.5094 179.697 98.1062 181.463 98.6573C182.097 98.8551 182.616 99.1107 182.616 99.2253C182.616 99.3401 183.112 99.4338 183.718 99.4338C184.324 99.4338 184.819 99.5478 184.819 99.6875C184.819 99.8268 185.169 100.018 185.596 100.112C186.884 100.395 188.4 101.826 188.4 102.759C188.4 103.203 188.524 103.565 188.675 103.565C188.827 103.565 188.951 103.868 188.951 104.238C188.951 104.608 188.827 104.987 188.675 105.08C188.524 105.174 188.4 105.559 188.4 105.935C188.4 108.663 181.525 110.285 178.539 108.261C177.887 107.819 177.267 107.419 177.162 107.371C176.308 106.984 175.559 104.523 176.123 103.959C176.97 103.112 179.035 103.685 179.035 104.766C179.035 106.077 182.97 106.96 184.695 106.037C186.171 105.247 186.11 103.366 184.589 102.778C183.164 102.227 181.214 101.637 180.816 101.637C180.594 101.637 180.412 101.544 180.412 101.429C180.412 101.314 180.01 101.043 179.517 100.825C179.025 100.607 178.382 100.205 178.088 99.9312C177.794 99.6577 177.422 99.4338 177.26 99.4338C176.597 99.4338 175.958 95.8096 176.556 95.4399C176.708 95.3463 176.832 95.0292 176.832 94.7351C176.832 94.4409 176.956 94.2004 177.107 94.2004C177.259 94.2004 177.382 94.003 177.382 93.7614C177.382 93.5201 177.63 93.2576 177.933 93.1786C178.236 93.0992 178.484 92.9249 178.484 92.791C178.484 92.6574 178.732 92.5478 179.035 92.5478C179.338 92.5478 179.586 92.4239 179.586 92.2724C179.586 91.7388 184.155 91.9424 185.186 92.5219ZM202.071 92.4079C203.24 93.5766 202.447 94.6081 200.313 94.6946C199.215 94.7389 198.316 94.894 198.316 95.0389C198.316 95.1838 198.138 95.3022 197.921 95.3022C197.589 95.3022 197.527 96.3552 197.529 101.904C197.533 109.212 197.557 109.074 196.253 109.074C194.517 109.074 194.48 108.925 194.481 101.955C194.483 94.2522 194.647 94.7513 192.107 94.7513C189.713 94.7513 188.756 93.5019 190.262 92.3412C190.968 91.797 201.52 91.8567 202.071 92.4079ZM105.011 95.1634C103.423 96.9669 104.844 99.9847 107.282 99.9847C110.526 99.9847 112.038 98.3758 110.979 96.0508C110.43 94.8452 105.886 94.1696 105.011 95.1634ZM135.171 95.2584C133.031 96.5486 132.875 105.769 134.993 105.769C135.255 105.769 135.519 105.915 135.578 106.093C135.713 106.499 138.634 106.468 138.77 106.058C138.824 105.899 138.986 105.769 139.132 105.769C141.057 105.769 141.608 97.7247 139.817 95.7691C138.743 94.5968 136.65 94.3668 135.171 95.2584ZM169.224 159.066C169.319 160.278 169.513 162.013 169.654 162.922C169.982 165.035 170.38 168.043 170.748 171.186C171.128 174.428 172.149 177.44 172.149 175.317C172.149 175.09 172.025 174.904 171.874 174.904C171.714 174.904 171.598 174.004 171.598 172.756C171.598 171.574 171.487 170.489 171.351 170.345C171.079 170.058 170.863 168.755 170.529 165.401C170.252 162.623 169.39 157.183 169.197 157C169.117 156.925 169.129 157.854 169.224 159.066ZM190.757 163.611C190.821 165.202 190.996 167.309 191.146 168.293C191.297 169.278 191.553 171.385 191.715 172.976C192.046 176.222 192.864 179.234 193.032 177.826C193.084 177.388 193.003 176.953 192.851 176.859C192.7 176.766 192.516 175.637 192.442 174.351C192.368 173.064 192.175 171.206 192.013 170.222C191.851 169.237 191.578 167.316 191.407 165.952C190.802 161.125 190.634 160.52 190.757 163.611ZM210.443 170.015C210.439 171.189 210.547 172.15 210.685 172.15C210.823 172.15 211 172.8 211.079 173.596C211.285 175.669 211.756 178.487 212.057 179.449C212.547 181.013 212.41 178.3 211.841 175.164C211.554 173.582 211.23 171.482 211.122 170.497C210.824 167.789 210.453 167.526 210.443 170.015Z" fill="#FF7679"/>
</svg>
