<svg width="20" height="26" viewBox="0 0 20 26" fill="none" xmlns="http://www.w3.org/2000/svg">
<path d="M8.75 19.25H11.25V11.75H8.75V19.25ZM10 9.25C10.3542 9.25 10.6513 9.13 10.8913 8.89C11.1313 8.65 11.2508 8.35333 11.25 8C11.25 7.64583 11.13 7.34875 10.89 7.10875C10.65 6.86875 10.3533 6.74917 10 6.75C9.64583 6.75 9.34875 6.87 9.10875 7.11C8.86875 7.35 8.74917 7.64667 8.75 8C8.75 8.35417 8.87 8.65125 9.11 8.89125C9.35 9.13125 9.64667 9.25083 10 9.25ZM10 25.5C7.10417 24.7708 4.71333 23.1092 2.8275 20.515C0.941667 17.9208 -0.000832781 15.0408 5.5212e-07 11.875V4.25L10 0.5L20 4.25V11.875C20 15.0417 19.0571 17.9221 17.1712 20.5163C15.2854 23.1104 12.895 24.7717 10 25.5ZM10 22.875C12.1667 22.1875 13.9583 20.8125 15.375 18.75C16.7917 16.6875 17.5 14.3958 17.5 11.875V5.96875L10 3.15625L2.5 5.96875V11.875C2.5 14.3958 3.20833 16.6875 4.625 18.75C6.04167 20.8125 7.83333 22.1875 10 22.875Z" fill="#544C4C"/>
</svg>
