<svg width="131" height="15" viewBox="0 0 131 15" fill="none" xmlns="http://www.w3.org/2000/svg">
<path d="M3.9689 14L0.368898 0.589999H2.9969L5.8229 12.02H5.1389L8.0909 0.589999H10.6289L13.5629 12.02H12.8789L15.7049 0.589999H18.3329L14.7329 14H11.9249L8.9549 2.876H9.7469L6.7769 14H3.9689ZM23.6844 14.216C22.6764 14.216 21.7944 13.988 21.0384 13.532C20.2824 13.076 19.6944 12.458 19.2744 11.678C18.8544 10.898 18.6444 10.034 18.6444 9.086C18.6444 8.102 18.8544 7.232 19.2744 6.476C19.7064 5.708 20.2884 5.102 21.0204 4.658C21.7644 4.214 22.5924 3.992 23.5044 3.992C24.2724 3.992 24.9444 4.118 25.5204 4.37C26.1084 4.622 26.6064 4.97 27.0144 5.414C27.4224 5.858 27.7344 6.368 27.9504 6.944C28.1664 7.508 28.2744 8.12 28.2744 8.78C28.2744 8.948 28.2624 9.122 28.2384 9.302C28.2264 9.482 28.1964 9.638 28.1484 9.77H20.5884V7.97H26.8164L25.7004 8.816C25.8084 8.264 25.7784 7.772 25.6104 7.34C25.4544 6.908 25.1904 6.566 24.8184 6.314C24.4584 6.062 24.0204 5.936 23.5044 5.936C23.0124 5.936 22.5744 6.062 22.1904 6.314C21.8064 6.554 21.5124 6.914 21.3084 7.394C21.1164 7.862 21.0444 8.432 21.0924 9.104C21.0444 9.704 21.1224 10.238 21.3264 10.706C21.5424 11.162 21.8544 11.516 22.2624 11.768C22.6824 12.02 23.1624 12.146 23.7024 12.146C24.2424 12.146 24.6984 12.032 25.0704 11.804C25.4544 11.576 25.7544 11.27 25.9704 10.886L27.8784 11.822C27.6864 12.29 27.3864 12.704 26.9784 13.064C26.5704 13.424 26.0844 13.706 25.5204 13.91C24.9684 14.114 24.3564 14.216 23.6844 14.216ZM30.0619 14V0.373999H32.4199V14H30.0619ZM39.313 14.216C38.341 14.216 37.465 13.994 36.685 13.55C35.917 13.094 35.311 12.482 34.867 11.714C34.423 10.934 34.201 10.058 34.201 9.086C34.201 8.114 34.423 7.244 34.867 6.476C35.311 5.708 35.917 5.102 36.685 4.658C37.465 4.214 38.341 3.992 39.313 3.992C40.009 3.992 40.657 4.118 41.257 4.37C41.857 4.61 42.373 4.946 42.805 5.378C43.249 5.798 43.567 6.302 43.759 6.89L41.689 7.79C41.509 7.298 41.203 6.902 40.771 6.602C40.351 6.302 39.865 6.152 39.313 6.152C38.797 6.152 38.335 6.278 37.927 6.53C37.531 6.782 37.219 7.13 36.991 7.574C36.763 8.018 36.649 8.528 36.649 9.104C36.649 9.68 36.763 10.19 36.991 10.634C37.219 11.078 37.531 11.426 37.927 11.678C38.335 11.93 38.797 12.056 39.313 12.056C39.877 12.056 40.369 11.906 40.789 11.606C41.209 11.306 41.509 10.904 41.689 10.4L43.759 11.336C43.567 11.888 43.255 12.386 42.823 12.83C42.391 13.262 41.875 13.604 41.275 13.856C40.675 14.096 40.021 14.216 39.313 14.216ZM50.3362 14.216C49.3762 14.216 48.5002 13.994 47.7082 13.55C46.9282 13.106 46.3042 12.5 45.8362 11.732C45.3802 10.964 45.1522 10.088 45.1522 9.104C45.1522 8.12 45.3802 7.244 45.8362 6.476C46.3042 5.708 46.9282 5.102 47.7082 4.658C48.4882 4.214 49.3642 3.992 50.3362 3.992C51.2962 3.992 52.1662 4.214 52.9462 4.658C53.7262 5.102 54.3442 5.708 54.8002 6.476C55.2682 7.232 55.5022 8.108 55.5022 9.104C55.5022 10.088 55.2682 10.964 54.8002 11.732C54.3322 12.5 53.7082 13.106 52.9282 13.55C52.1482 13.994 51.2842 14.216 50.3362 14.216ZM50.3362 12.056C50.8642 12.056 51.3262 11.93 51.7222 11.678C52.1302 11.426 52.4482 11.078 52.6762 10.634C52.9162 10.178 53.0362 9.668 53.0362 9.104C53.0362 8.528 52.9162 8.024 52.6762 7.592C52.4482 7.148 52.1302 6.8 51.7222 6.548C51.3262 6.284 50.8642 6.152 50.3362 6.152C49.7962 6.152 49.3222 6.284 48.9142 6.548C48.5062 6.8 48.1822 7.148 47.9422 7.592C47.7142 8.024 47.6002 8.528 47.6002 9.104C47.6002 9.668 47.7142 10.178 47.9422 10.634C48.1822 11.078 48.5062 11.426 48.9142 11.678C49.3222 11.93 49.7962 12.056 50.3362 12.056ZM57.2904 14V4.208H59.5044V6.476L59.2524 6.098C59.4324 5.39 59.7924 4.862 60.3324 4.514C60.8724 4.166 61.5084 3.992 62.2404 3.992C63.0444 3.992 63.7524 4.202 64.3644 4.622C64.9764 5.042 65.3724 5.594 65.5524 6.278L64.8864 6.332C65.1864 5.552 65.6364 4.97 66.2364 4.586C66.8364 4.19 67.5264 3.992 68.3064 3.992C69.0024 3.992 69.6204 4.148 70.1604 4.46C70.7124 4.772 71.1444 5.21 71.4564 5.774C71.7684 6.326 71.9244 6.968 71.9244 7.7V14H69.5664V8.258C69.5664 7.826 69.4884 7.454 69.3324 7.142C69.1764 6.83 68.9604 6.59 68.6844 6.422C68.4084 6.242 68.0724 6.152 67.6764 6.152C67.3044 6.152 66.9744 6.242 66.6864 6.422C66.3984 6.59 66.1764 6.83 66.0204 7.142C65.8644 7.454 65.7864 7.826 65.7864 8.258V14H63.4284V8.258C63.4284 7.826 63.3504 7.454 63.1944 7.142C63.0384 6.83 62.8164 6.59 62.5284 6.422C62.2524 6.242 61.9224 6.152 61.5384 6.152C61.1664 6.152 60.8364 6.242 60.5484 6.422C60.2604 6.59 60.0384 6.83 59.8824 7.142C59.7264 7.454 59.6484 7.826 59.6484 8.258V14H57.2904ZM78.5633 14.216C77.5553 14.216 76.6733 13.988 75.9173 13.532C75.1613 13.076 74.5733 12.458 74.1533 11.678C73.7333 10.898 73.5233 10.034 73.5233 9.086C73.5233 8.102 73.7333 7.232 74.1533 6.476C74.5853 5.708 75.1673 5.102 75.8993 4.658C76.6433 4.214 77.4713 3.992 78.3833 3.992C79.1513 3.992 79.8233 4.118 80.3993 4.37C80.9873 4.622 81.4853 4.97 81.8933 5.414C82.3013 5.858 82.6133 6.368 82.8293 6.944C83.0453 7.508 83.1533 8.12 83.1533 8.78C83.1533 8.948 83.1413 9.122 83.1173 9.302C83.1053 9.482 83.0753 9.638 83.0273 9.77H75.4673V7.97H81.6953L80.5793 8.816C80.6873 8.264 80.6573 7.772 80.4893 7.34C80.3333 6.908 80.0693 6.566 79.6973 6.314C79.3373 6.062 78.8993 5.936 78.3833 5.936C77.8913 5.936 77.4533 6.062 77.0693 6.314C76.6853 6.554 76.3913 6.914 76.1873 7.394C75.9953 7.862 75.9233 8.432 75.9713 9.104C75.9233 9.704 76.0013 10.238 76.2053 10.706C76.4213 11.162 76.7333 11.516 77.1413 11.768C77.5613 12.02 78.0413 12.146 78.5813 12.146C79.1213 12.146 79.5773 12.032 79.9493 11.804C80.3333 11.576 80.6333 11.27 80.8493 10.886L82.7573 11.822C82.5653 12.29 82.2653 12.704 81.8573 13.064C81.4493 13.424 80.9633 13.706 80.3993 13.91C79.8473 14.114 79.2353 14.216 78.5633 14.216Z" fill="black"/>
<path d="M93.126 14.216C92.274 14.216 91.482 14.06 90.75 13.748C90.03 13.436 89.406 13.004 88.878 12.452C88.362 11.888 87.984 11.234 87.744 10.49L89.778 9.608C90.102 10.376 90.57 10.982 91.182 11.426C91.794 11.858 92.484 12.074 93.252 12.074C93.684 12.074 94.056 12.008 94.368 11.876C94.692 11.732 94.938 11.54 95.106 11.3C95.286 11.06 95.376 10.772 95.376 10.436C95.376 10.04 95.256 9.716 95.016 9.464C94.788 9.2 94.44 8.996 93.972 8.852L91.398 8.024C90.354 7.7 89.568 7.214 89.04 6.566C88.512 5.918 88.248 5.156 88.248 4.28C88.248 3.512 88.434 2.834 88.806 2.246C89.19 1.658 89.718 1.202 90.39 0.877999C91.074 0.541999 91.854 0.373999 92.73 0.373999C93.534 0.373999 94.272 0.517999 94.944 0.805999C95.616 1.082 96.192 1.472 96.672 1.976C97.164 2.468 97.53 3.05 97.77 3.722L95.754 4.622C95.49 3.95 95.094 3.434 94.566 3.074C94.038 2.702 93.426 2.516 92.73 2.516C92.322 2.516 91.962 2.588 91.65 2.732C91.338 2.864 91.092 3.056 90.912 3.308C90.744 3.548 90.66 3.836 90.66 4.172C90.66 4.544 90.78 4.874 91.02 5.162C91.26 5.438 91.626 5.654 92.118 5.81L94.584 6.584C95.652 6.932 96.45 7.412 96.978 8.024C97.518 8.636 97.788 9.392 97.788 10.292C97.788 11.06 97.59 11.738 97.194 12.326C96.798 12.914 96.252 13.376 95.556 13.712C94.86 14.048 94.05 14.216 93.126 14.216ZM104.258 14.108C103.154 14.108 102.296 13.808 101.684 13.208C101.084 12.596 100.784 11.738 100.784 10.634V6.314H99.0923V4.208H99.2723C99.7523 4.208 100.124 4.082 100.388 3.83C100.652 3.578 100.784 3.212 100.784 2.732V1.976H103.142V4.208H105.392V6.314H103.142V10.508C103.142 10.832 103.196 11.108 103.304 11.336C103.424 11.564 103.604 11.738 103.844 11.858C104.096 11.978 104.414 12.038 104.798 12.038C104.882 12.038 104.978 12.032 105.086 12.02C105.206 12.008 105.32 11.996 105.428 11.984V14C105.26 14.024 105.068 14.048 104.852 14.072C104.636 14.096 104.438 14.108 104.258 14.108ZM110.165 14.216C109.481 14.216 108.887 14.102 108.383 13.874C107.879 13.646 107.489 13.322 107.213 12.902C106.937 12.47 106.799 11.972 106.799 11.408C106.799 10.868 106.919 10.388 107.159 9.968C107.399 9.536 107.771 9.176 108.275 8.888C108.779 8.6 109.415 8.396 110.183 8.276L113.387 7.754V9.554L110.633 10.022C110.165 10.106 109.817 10.256 109.589 10.472C109.361 10.688 109.247 10.97 109.247 11.318C109.247 11.654 109.373 11.924 109.625 12.128C109.889 12.32 110.213 12.416 110.597 12.416C111.089 12.416 111.521 12.314 111.893 12.11C112.277 11.894 112.571 11.6 112.775 11.228C112.991 10.856 113.099 10.448 113.099 10.004V7.484C113.099 7.064 112.931 6.716 112.595 6.44C112.271 6.152 111.839 6.008 111.299 6.008C110.795 6.008 110.345 6.146 109.949 6.422C109.565 6.686 109.283 7.04 109.103 7.484L107.177 6.548C107.369 6.032 107.669 5.588 108.077 5.216C108.497 4.832 108.989 4.532 109.553 4.316C110.117 4.1 110.729 3.992 111.389 3.992C112.193 3.992 112.901 4.142 113.513 4.442C114.125 4.73 114.599 5.138 114.935 5.666C115.283 6.182 115.457 6.788 115.457 7.484V14H113.225V12.326L113.729 12.29C113.477 12.71 113.177 13.064 112.829 13.352C112.481 13.628 112.085 13.844 111.641 14C111.197 14.144 110.705 14.216 110.165 14.216ZM118.629 14V6.314H116.901V4.208H118.629V3.884C118.629 3.14 118.779 2.51 119.079 1.994C119.391 1.466 119.823 1.064 120.375 0.788C120.927 0.511999 121.581 0.373999 122.337 0.373999C122.481 0.373999 122.637 0.385999 122.805 0.409999C122.985 0.422 123.135 0.44 123.255 0.463999V2.498C123.135 2.474 123.021 2.462 122.913 2.462C122.817 2.45 122.727 2.444 122.643 2.444C122.115 2.444 121.707 2.564 121.419 2.804C121.131 3.032 120.987 3.392 120.987 3.884V4.208H125.271V6.314H120.987V14H118.629ZM125.757 14V6.314H124.029V4.208H125.757V3.884C125.757 3.14 125.907 2.51 126.207 1.994C126.507 1.466 126.933 1.064 127.485 0.788C128.049 0.511999 128.709 0.373999 129.465 0.373999C129.609 0.373999 129.765 0.385999 129.933 0.409999C130.113 0.422 130.257 0.44 130.365 0.463999V2.498C130.257 2.474 130.149 2.462 130.041 2.462C129.945 2.45 129.855 2.444 129.771 2.444C129.243 2.444 128.835 2.564 128.547 2.804C128.259 3.032 128.115 3.392 128.115 3.884V4.208H130.275V6.314H128.115V14H125.757Z" fill="#F84C3B"/>
</svg>
